solid Framework
facet normal -7.124013739015392e-17 1.5541369289275492e-14 1.0
  outer loop
    vertex -118.30262645280554 -147.30833673966558 1.0000000000001017
    vertex -118.30262645280554 -142.13195583761515 1.0000000000000213
    vertex -118.64336818991485 -144.72014628864036 1.0000000000000613
  endloop
endfacet
facet normal -7.124013739015392e-17 1.5541369289275492e-14 1.0
  outer loop
    vertex -118.30262645280554 -142.13195583761515 1.0000000000000213
    vertex -118.30262645280554 -147.30833673966558 1.0000000000001017
    vertex -117.30362222775926 -149.72014628864036 1.0000000000001392
  endloop
endfacet
facet normal -7.124013739015392e-17 1.5541369289275492e-14 1.0
  outer loop
    vertex -118.30262645280554 -142.13195583761515 1.0000000000000213
    vertex -117.30362222775926 -149.72014628864036 1.0000000000001392
    vertex -117.30362222775923 -139.72014628864036 0.9999999999999841
  endloop
endfacet
facet normal -7.124013739015392e-17 1.5541369289275492e-14 1.0
  outer loop
    vertex -117.30362222775923 -139.72014628864036 0.9999999999999841
    vertex -117.30362222775926 -149.72014628864036 1.0000000000001392
    vertex -115.71443600178033 -151.79121410050584 1.0000000000001714
  endloop
endfacet
facet normal -7.124013739015392e-17 1.5541369289275492e-14 1.0
  outer loop
    vertex -117.30362222775923 -139.72014628864036 0.9999999999999841
    vertex -115.71443600178033 -151.79121410050584 1.0000000000001714
    vertex -115.71443600178033 -137.6490784767749 0.9999999999999516
  endloop
endfacet
facet normal -7.124013739015392e-17 1.5541369289275492e-14 1.0
  outer loop
    vertex -115.71443600178033 -137.6490784767749 0.9999999999999516
    vertex -115.71443600178033 -151.79121410050584 1.0000000000001714
    vertex -113.64336818991485 -153.38040032648473 1.0000000000001963
  endloop
endfacet
facet normal -7.124013739015392e-17 1.5541369289275492e-14 1.0
  outer loop
    vertex -115.71443600178033 -137.6490784767749 0.9999999999999516
    vertex -113.64336818991485 -153.38040032648473 1.0000000000001963
    vertex -113.64336818991485 -136.05989225079597 0.9999999999999274
  endloop
endfacet
facet normal -7.124013739015392e-17 1.5541369289275492e-14 1.0
  outer loop
    vertex -113.64336818991485 -136.05989225079597 0.9999999999999274
    vertex -113.64336818991485 -153.38040032648473 1.0000000000001963
    vertex -111.23155864094007 -154.37940455153105 1.0000000000002123
  endloop
endfacet
facet normal -7.124013739015392e-17 1.5541369289275492e-14 1.0
  outer loop
    vertex -113.64336818991485 -136.05989225079597 0.9999999999999274
    vertex -111.23155864094007 -154.37940455153105 1.0000000000002123
    vertex -111.99336818991485 -146.60811419684705 1.0000000000000913
  endloop
endfacet
facet normal -7.124013739015392e-17 1.5541369289275492e-14 1.0
  outer loop
    vertex -111.99336818991485 -146.60811419684705 1.0000000000000913
    vertex -111.23155864094007 -154.37940455153105 1.0000000000002123
    vertex -111.9779396394385 -146.6453620126548 1.0000000000000917
  endloop
endfacet
facet normal -7.124013739015392e-17 1.5541369289275492e-14 1.0
  outer loop
    vertex -111.9779396394385 -146.6453620126548 1.0000000000000917
    vertex -111.23155864094007 -154.37940455153105 1.0000000000002123
    vertex -111.36603437731013 -147.4428124760356 1.0000000000001044
  endloop
endfacet
facet normal -7.124013739015392e-17 1.5541369289275492e-14 1.0
  outer loop
    vertex -111.36603437731013 -147.4428124760356 1.0000000000001044
    vertex -111.23155864094007 -154.37940455153105 1.0000000000002123
    vertex -110.56858391392937 -148.054717738164 1.0000000000001137
  endloop
endfacet
facet normal -7.124013739015392e-17 1.5541369289275492e-14 1.0
  outer loop
    vertex -110.56858391392937 -148.054717738164 1.0000000000001137
    vertex -111.23155864094007 -154.37940455153105 1.0000000000002123
    vertex -108.64336818991487 -154.72014628864036 1.0000000000002176
  endloop
endfacet
facet normal -7.124013739015392e-17 1.5541369289275492e-14 1.0
  outer loop
    vertex -110.56858391392937 -148.054717738164 1.0000000000001137
    vertex -108.64336818991487 -154.72014628864036 1.0000000000002176
    vertex -109.63993318052646 -148.43937746664722 1.00000000000012
  endloop
endfacet
facet normal -7.124013739015392e-17 1.5541369289275492e-14 1.0
  outer loop
    vertex -109.63993318052646 -148.43937746664722 1.00000000000012
    vertex -108.64336818991487 -154.72014628864036 1.0000000000002176
    vertex -108.64336818991488 -148.57057773666935 1.000000000000122
  endloop
endfacet
facet normal -7.124013739015392e-17 1.5541369289275492e-14 1.0
  outer loop
    vertex -108.64336818991488 -148.57057773666935 1.000000000000122
    vertex -108.64336818991487 -154.72014628864036 1.0000000000002176
    vertex -107.64680319930324 -148.43937746664722 1.0000000000001201
  endloop
endfacet
facet normal -7.124013739015392e-17 1.5541369289275492e-14 1.0
  outer loop
    vertex -107.64680319930324 -148.43937746664722 1.0000000000001201
    vertex -108.64336818991487 -154.72014628864036 1.0000000000002176
    vertex -106.05517773888965 -154.37940455153105 1.0000000000002125
  endloop
endfacet
facet normal -7.124013739015392e-17 1.5541369289275492e-14 1.0
  outer loop
    vertex -107.64680319930324 -148.43937746664722 1.0000000000001201
    vertex -106.05517773888965 -154.37940455153105 1.0000000000002125
    vertex -106.71815246590037 -148.054717738164 1.0000000000001141
  endloop
endfacet
facet normal -7.124013739015392e-17 1.5541369289275492e-14 1.0
  outer loop
    vertex -106.71815246590037 -148.054717738164 1.0000000000001141
    vertex -106.05517773888965 -154.37940455153105 1.0000000000002125
    vertex -105.92070200251962 -147.44281247603558 1.000000000000105
  endloop
endfacet
facet normal -7.124013739015392e-17 1.5541369289275492e-14 1.0
  outer loop
    vertex -105.92070200251962 -147.44281247603558 1.000000000000105
    vertex -106.05517773888965 -154.37940455153105 1.0000000000002125
    vertex -103.64336818991487 -153.38040032648476 1.0000000000001972
  endloop
endfacet
facet normal -7.124013739015392e-17 1.5541369289275492e-14 1.0
  outer loop
    vertex -105.92070200251962 -147.44281247603558 1.000000000000105
    vertex -103.64336818991487 -153.38040032648476 1.0000000000001972
    vertex -105.30879674039092 -146.64536201265446 1.0000000000000924
  endloop
endfacet
facet normal -7.124013739015392e-17 1.5541369289275492e-14 1.0
  outer loop
    vertex -105.30879674039092 -146.64536201265446 1.0000000000000924
    vertex -103.64336818991487 -153.38040032648476 1.0000000000001972
    vertex -105.29336818991484 -146.60811419684737 1.000000000000092
  endloop
endfacet
facet normal -7.124013739015392e-17 1.5541369289275492e-14 1.0
  outer loop
    vertex -105.29336818991484 -146.60811419684737 1.000000000000092
    vertex -103.64336818991487 -153.38040032648476 1.0000000000001972
    vertex -105.29336818991484 -142.83217838043336 1.0000000000000333
  endloop
endfacet
facet normal -7.124013739015392e-17 1.5541369289275492e-14 1.0
  outer loop
    vertex -113.64336818991485 -136.05989225079597 0.9999999999999274
    vertex -111.99336818991485 -142.83217838043367 1.0000000000000329
    vertex -111.23155864094007 -135.06088802574968 0.999999999999912
  endloop
endfacet
facet normal -7.124013739015392e-17 1.5541369289275492e-14 1.0
  outer loop
    vertex -111.99336818991485 -142.83217838043367 1.0000000000000329
    vertex -113.64336818991485 -136.05989225079597 0.9999999999999274
    vertex -111.99336818991485 -146.60811419684705 1.0000000000000913
  endloop
endfacet
facet normal -7.124013739015392e-17 1.5541369289275492e-14 1.0
  outer loop
    vertex -111.23155864094007 -135.06088802574968 0.999999999999912
    vertex -111.99336818991485 -142.83217838043367 1.0000000000000329
    vertex -111.97793963943846 -142.79493056462587 1.0000000000000322
  endloop
endfacet
facet normal -7.124013739015392e-17 1.5541369289275492e-14 1.0
  outer loop
    vertex -111.23155864094007 -135.06088802574968 0.999999999999912
    vertex -111.97793963943846 -142.79493056462587 1.0000000000000322
    vertex -111.36603437731011 -141.99748010124515 1.0000000000000198
  endloop
endfacet
facet normal -7.124013739015392e-17 1.5541369289275492e-14 1.0
  outer loop
    vertex -111.23155864094007 -135.06088802574968 0.999999999999912
    vertex -111.36603437731011 -141.99748010124515 1.0000000000000198
    vertex -110.56858391392934 -141.38557483911677 1.0000000000000104
  endloop
endfacet
facet normal -7.124013739015392e-17 1.5541369289275492e-14 1.0
  outer loop
    vertex -111.23155864094007 -135.06088802574968 0.999999999999912
    vertex -110.56858391392934 -141.38557483911677 1.0000000000000104
    vertex -108.64336818991487 -134.72014628864036 0.9999999999999069
  endloop
endfacet
facet normal -7.124013739015392e-17 1.5541369289275492e-14 1.0
  outer loop
    vertex -108.64336818991487 -134.72014628864036 0.9999999999999069
    vertex -110.56858391392934 -141.38557483911677 1.0000000000000104
    vertex -109.6399331805265 -141.0009151106335 1.0000000000000042
  endloop
endfacet
facet normal -7.124013739015392e-17 1.5541369289275492e-14 1.0
  outer loop
    vertex -108.64336818991487 -134.72014628864036 0.9999999999999069
    vertex -109.6399331805265 -141.0009151106335 1.0000000000000042
    vertex -108.64336818991488 -140.86971484061135 1.0000000000000022
  endloop
endfacet
facet normal -7.124013739015392e-17 1.5541369289275492e-14 1.0
  outer loop
    vertex -108.64336818991487 -134.72014628864036 0.9999999999999069
    vertex -108.64336818991488 -140.86971484061135 1.0000000000000022
    vertex -107.6468031993033 -141.0009151106335 1.0000000000000047
  endloop
endfacet
facet normal -7.124013739015392e-17 1.5541369289275492e-14 1.0
  outer loop
    vertex -108.64336818991487 -134.72014628864036 0.9999999999999069
    vertex -107.6468031993033 -141.0009151106335 1.0000000000000047
    vertex -106.05517773888965 -135.06088802574968 0.9999999999999123
  endloop
endfacet
facet normal -7.124013739015392e-17 1.5541369289275492e-14 1.0
  outer loop
    vertex -106.05517773888965 -135.06088802574968 0.9999999999999123
    vertex -107.6468031993033 -141.0009151106335 1.0000000000000047
    vertex -106.7181524659004 -141.3855748391167 1.000000000000011
  endloop
endfacet
facet normal -7.124013739015392e-17 1.5541369289275492e-14 1.0
  outer loop
    vertex -106.05517773888965 -135.06088802574968 0.9999999999999123
    vertex -106.7181524659004 -141.3855748391167 1.000000000000011
    vertex -105.92070200251962 -141.99748010124506 1.0000000000000207
  endloop
endfacet
facet normal -7.124013739015392e-17 1.5541369289275492e-14 1.0
  outer loop
    vertex -106.05517773888965 -135.06088802574968 0.9999999999999123
    vertex -105.92070200251962 -141.99748010124506 1.0000000000000207
    vertex -103.64336818991485 -136.059892250796 0.9999999999999282
  endloop
endfacet
facet normal -7.124013739015392e-17 1.5541369289275492e-14 1.0
  outer loop
    vertex -103.64336818991485 -136.059892250796 0.9999999999999282
    vertex -105.92070200251962 -141.99748010124506 1.0000000000000207
    vertex -105.30879674039089 -142.79493056462624 1.0000000000000324
  endloop
endfacet
facet normal -7.124013739015392e-17 1.5541369289275492e-14 1.0
  outer loop
    vertex -103.64336818991485 -136.059892250796 0.9999999999999282
    vertex -105.30879674039089 -142.79493056462624 1.0000000000000324
    vertex -105.29336818991484 -142.83217838043336 1.0000000000000333
  endloop
endfacet
facet normal -7.124013739015392e-17 1.5541369289275492e-14 1.0
  outer loop
    vertex -103.64336818991485 -136.059892250796 0.9999999999999282
    vertex -105.29336818991484 -142.83217838043336 1.0000000000000333
    vertex -103.64336818991487 -153.38040032648476 1.0000000000001972
  endloop
endfacet
facet normal -7.124013739015392e-17 1.5541369289275492e-14 1.0
  outer loop
    vertex -103.64336818991485 -136.059892250796 0.9999999999999282
    vertex -103.64336818991487 -153.38040032648476 1.0000000000001972
    vertex -101.57230037804939 -151.79121410050584 1.0000000000001725
  endloop
endfacet
facet normal -7.124013739015392e-17 1.5541369289275492e-14 1.0
  outer loop
    vertex -103.64336818991485 -136.059892250796 0.9999999999999282
    vertex -101.57230037804939 -151.79121410050584 1.0000000000001725
    vertex -101.57230037804939 -137.6490784767749 0.9999999999999527
  endloop
endfacet
facet normal -7.124013739015392e-17 1.5541369289275492e-14 1.0
  outer loop
    vertex -101.57230037804939 -137.6490784767749 0.9999999999999527
    vertex -101.57230037804939 -151.79121410050584 1.0000000000001725
    vertex -99.98311415207047 -149.72014628864036 1.0000000000001403
  endloop
endfacet
facet normal -7.124013739015392e-17 1.5541369289275492e-14 1.0
  outer loop
    vertex -101.57230037804939 -137.6490784767749 0.9999999999999527
    vertex -99.98311415207047 -149.72014628864036 1.0000000000001403
    vertex -99.98311415207047 -139.72014628864036 0.9999999999999852
  endloop
endfacet
facet normal -7.124013739015392e-17 1.5541369289275492e-14 1.0
  outer loop
    vertex -99.98311415207047 -139.72014628864036 0.9999999999999852
    vertex -99.98311415207047 -149.72014628864036 1.0000000000001403
    vertex -98.98410992702418 -147.30833673966558 1.0000000000001033
  endloop
endfacet
facet normal -7.124013739015392e-17 1.5541369289275492e-14 1.0
  outer loop
    vertex -99.98311415207047 -139.72014628864036 0.9999999999999852
    vertex -98.98410992702418 -147.30833673966558 1.0000000000001033
    vertex -98.98410992702418 -142.13195583761515 1.0000000000000226
  endloop
endfacet
facet normal -7.124013739015392e-17 1.5541369289275492e-14 1.0
  outer loop
    vertex -98.98410992702418 -142.13195583761515 1.0000000000000226
    vertex -98.98410992702418 -147.30833673966558 1.0000000000001033
    vertex -98.64336818991487 -144.72014628864036 1.0000000000000628
  endloop
endfacet
facet normal 0.13052619222004713 0.9914448613738109 -1.5399112016698174e-14
  outer loop
    vertex -106.05517773888965 -135.0608880257497 -8.771223747316981e-14
    vertex -108.64336818991487 -134.72014628864036 0.9999999999999069
    vertex -106.05517773888965 -135.06088802574968 0.9999999999999123
  endloop
endfacet
facet normal 0.13052619222004713 0.9914448613738109 -1.5399112016698174e-14
  outer loop
    vertex -108.64336818991487 -134.72014628864036 0.9999999999999069
    vertex -106.05517773888965 -135.0608880257497 -8.771223747316981e-14
    vertex -108.64336818991487 -134.7201462886404 -9.312657311966176e-14
  endloop
endfacet
facet normal -0.9238795325112845 0.38268343236509494 -6.013241848101477e-15
  outer loop
    vertex -118.30262645280554 -142.13195583761518 2.1296386876201722e-14
    vertex -117.30362222775923 -139.72014628864036 0.9999999999999841
    vertex -117.30362222775923 -139.7201462886404 -1.5882051229709758e-14
  endloop
endfacet
facet normal -0.9238795325112845 0.38268343236509494 -6.013241848101477e-15
  outer loop
    vertex -117.30362222775923 -139.72014628864036 0.9999999999999841
    vertex -118.30262645280554 -142.13195583761518 2.1296386876201722e-14
    vertex -118.30262645280554 -142.13195583761515 1.0000000000000213
  endloop
endfacet
facet normal -0.13052619222004713 0.9914448613738109 -1.5417709424431714e-14
  outer loop
    vertex -108.64336818991487 -134.7201462886404 -9.312657311966176e-14
    vertex -111.23155864094007 -135.06088802574968 0.999999999999912
    vertex -108.64336818991487 -134.72014628864036 0.9999999999999069
  endloop
endfacet
facet normal -0.13052619222004713 0.9914448613738109 -1.5417709424431714e-14
  outer loop
    vertex -111.23155864094007 -135.06088802574968 0.999999999999912
    vertex -108.64336818991487 -134.7201462886404 -9.312657311966176e-14
    vertex -111.23155864094007 -135.0608880257497 -8.807319318293593e-14
  endloop
endfacet
facet normal -0.9914448613738109 0.13052619222004713 -2.0991864233537427e-15
  outer loop
    vertex -118.64336818991485 -144.7201462886404 6.136247066024225e-14
    vertex -118.30262645280554 -142.13195583761515 1.0000000000000213
    vertex -118.30262645280554 -142.13195583761518 2.1296386876201722e-14
  endloop
endfacet
facet normal -0.9914448613738109 0.13052619222004713 -2.0991864233537427e-15
  outer loop
    vertex -118.30262645280554 -142.13195583761515 1.0000000000000213
    vertex -118.64336818991485 -144.7201462886404 6.136247066024225e-14
    vertex -118.64336818991485 -144.72014628864036 1.0000000000000613
  endloop
endfacet
facet normal -0.3826834323650874 0.9238795325112877 -1.4385615413859753e-14
  outer loop
    vertex -111.23155864094007 -135.0608880257497 -8.807319318293593e-14
    vertex -113.64336818991485 -136.05989225079597 0.9999999999999274
    vertex -111.23155864094007 -135.06088802574968 0.999999999999912
  endloop
endfacet
facet normal -0.3826834323650874 0.9238795325112877 -1.4385615413859753e-14
  outer loop
    vertex -113.64336818991485 -136.05989225079597 0.9999999999999274
    vertex -111.23155864094007 -135.0608880257497 -8.807319318293593e-14
    vertex -113.64336818991485 -136.059892250796 -7.25520976629923e-14
  endloop
endfacet
facet normal 0.3826834323650874 -0.9238795325112877 1.4385615413859753e-14
  outer loop
    vertex -106.05517773888965 -154.37940455153108 2.126029130522511e-13
    vertex -103.64336818991487 -153.38040032648476 1.0000000000001972
    vertex -106.05517773888965 -154.37940455153105 1.0000000000002125
  endloop
endfacet
facet normal 0.3826834323650874 -0.9238795325112877 1.4385615413859753e-14
  outer loop
    vertex -103.64336818991487 -153.38040032648476 1.0000000000001972
    vertex -106.05517773888965 -154.37940455153108 2.126029130522511e-13
    vertex -103.64336818991487 -153.3804003264848 1.9708181753230746e-13
  endloop
endfacet
facet normal 0.7933533402912353 0.6087614290087204 -9.404467576330304e-15
  outer loop
    vertex -99.98311415207047 -139.72014628864036 0.9999999999999852
    vertex -101.57230037804939 -137.64907847677492 -4.7285197979363146e-14
    vertex -101.57230037804939 -137.6490784767749 0.9999999999999527
  endloop
endfacet
facet normal 0.7933533402912353 0.6087614290087204 -9.404467576330304e-15
  outer loop
    vertex -101.57230037804939 -137.64907847677492 -4.7285197979363146e-14
    vertex -99.98311415207047 -139.72014628864036 0.9999999999999852
    vertex -99.98311415207047 -139.7201462886404 -1.4799184100411365e-14
  endloop
endfacet
facet normal 0.6087614290087199 0.7933533402912357 -1.2286428990505933e-14
  outer loop
    vertex -101.57230037804939 -137.64907847677492 -4.7285197979363146e-14
    vertex -103.64336818991485 -136.059892250796 0.9999999999999282
    vertex -101.57230037804939 -137.6490784767749 0.9999999999999527
  endloop
endfacet
facet normal 0.6087614290087199 0.7933533402912357 -1.2286428990505933e-14
  outer loop
    vertex -103.64336818991485 -136.059892250796 0.9999999999999282
    vertex -101.57230037804939 -137.64907847677492 -4.7285197979363146e-14
    vertex -103.64336818991485 -136.05989225079603 -7.183018624346004e-14
  endloop
endfacet
facet normal 7.124013739015392e-17 -1.5541369289275492e-14 -1.0
  outer loop
    vertex -118.30262645280554 -142.13195583761518 2.1296386876201722e-14
    vertex -118.30262645280554 -147.3083367396656 1.0178951015404891e-13
    vertex -118.64336818991485 -144.7201462886404 6.136247066024225e-14
  endloop
endfacet
facet normal 7.124013739015392e-17 -1.5541369289275492e-14 -1.0
  outer loop
    vertex -118.30262645280554 -147.3083367396656 1.0178951015404891e-13
    vertex -118.30262645280554 -142.13195583761518 2.1296386876201722e-14
    vertex -117.30362222775923 -139.7201462886404 -1.5882051229709758e-14
  endloop
endfacet
facet normal 7.124013739015392e-17 -1.5541369289275492e-14 -1.0
  outer loop
    vertex -118.30262645280554 -147.3083367396656 1.0178951015404891e-13
    vertex -117.30362222775923 -139.7201462886404 -1.5882051229709758e-14
    vertex -117.30362222775926 -149.7201462886404 1.3932890396972652e-13
  endloop
endfacet
facet normal 7.124013739015392e-17 -1.5541369289275492e-14 -1.0
  outer loop
    vertex -117.30362222775926 -149.7201462886404 1.3932890396972652e-13
    vertex -117.30362222775923 -139.7201462886404 -1.5882051229709758e-14
    vertex -115.71443600178033 -151.79121410050587 1.7145396213891217e-13
  endloop
endfacet
facet normal 7.124013739015392e-17 -1.5541369289275492e-14 -1.0
  outer loop
    vertex -115.71443600178033 -151.79121410050587 1.7145396213891217e-13
    vertex -117.30362222775923 -139.7201462886404 -1.5882051229709758e-14
    vertex -115.71443600178033 -137.64907847677492 -4.836806510866154e-14
  endloop
endfacet
facet normal 7.124013739015392e-17 -1.5541369289275492e-14 -1.0
  outer loop
    vertex -115.71443600178033 -151.79121410050587 1.7145396213891217e-13
    vertex -115.71443600178033 -137.64907847677492 -4.836806510866154e-14
    vertex -113.64336818991485 -136.059892250796 -7.25520976629923e-14
  endloop
endfacet
facet normal 7.124013739015392e-17 -1.5541369289275492e-14 -1.0
  outer loop
    vertex -115.71443600178033 -151.79121410050587 1.7145396213891217e-13
    vertex -113.64336818991485 -136.059892250796 -7.25520976629923e-14
    vertex -113.64336818991485 -153.38040032648476 1.963599061127752e-13
  endloop
endfacet
facet normal 7.124013739015392e-17 -1.5541369289275492e-14 -1.0
  outer loop
    vertex -113.64336818991485 -153.38040032648476 1.963599061127752e-13
    vertex -113.64336818991485 -136.059892250796 -7.25520976629923e-14
    vertex -111.23155864094007 -135.0608880257497 -8.807319318293593e-14
  endloop
endfacet
facet normal 7.124013739015392e-17 -1.5541369289275492e-14 -1.0
  outer loop
    vertex -113.64336818991485 -153.38040032648476 1.963599061127752e-13
    vertex -111.23155864094007 -135.0608880257497 -8.807319318293593e-14
    vertex -111.23155864094007 -154.37940455153108 2.1224195734248497e-13
  endloop
endfacet
facet normal 7.124013739015392e-17 -1.5541369289275492e-14 -1.0
  outer loop
    vertex -111.23155864094007 -154.37940455153108 2.1224195734248497e-13
    vertex -111.23155864094007 -135.0608880257497 -8.807319318293593e-14
    vertex -108.64336818991487 -134.7201462886404 -9.312657311966176e-14
  endloop
endfacet
facet normal 7.124013739015392e-17 -1.5541369289275492e-14 -1.0
  outer loop
    vertex -111.23155864094007 -154.37940455153108 2.1224195734248497e-13
    vertex -108.64336818991487 -134.7201462886404 -9.312657311966176e-14
    vertex -108.64336818991487 -154.7201462886404 2.1765629298897693e-13
  endloop
endfacet
facet normal 7.124013739015392e-17 -1.5541369289275492e-14 -1.0
  outer loop
    vertex -108.64336818991487 -154.7201462886404 2.1765629298897693e-13
    vertex -108.64336818991487 -134.7201462886404 -9.312657311966176e-14
    vertex -106.05517773888965 -135.0608880257497 -8.771223747316981e-14
  endloop
endfacet
facet normal 7.124013739015392e-17 -1.5541369289275492e-14 -1.0
  outer loop
    vertex -108.64336818991487 -154.7201462886404 2.1765629298897693e-13
    vertex -106.05517773888965 -135.0608880257497 -8.771223747316981e-14
    vertex -106.05517773888965 -154.37940455153108 2.126029130522511e-13
  endloop
endfacet
facet normal 7.124013739015392e-17 -1.5541369289275492e-14 -1.0
  outer loop
    vertex -106.05517773888965 -154.37940455153108 2.126029130522511e-13
    vertex -106.05517773888965 -135.0608880257497 -8.771223747316981e-14
    vertex -103.64336818991485 -136.05989225079603 -7.183018624346004e-14
  endloop
endfacet
facet normal 7.124013739015392e-17 -1.5541369289275492e-14 -1.0
  outer loop
    vertex -106.05517773888965 -154.37940455153108 2.126029130522511e-13
    vertex -103.64336818991485 -136.05989225079603 -7.183018624346004e-14
    vertex -103.64336818991487 -153.3804003264848 1.9708181753230746e-13
  endloop
endfacet
facet normal 7.124013739015392e-17 -1.5541369289275492e-14 -1.0
  outer loop
    vertex -103.64336818991487 -153.3804003264848 1.9708181753230746e-13
    vertex -103.64336818991485 -136.05989225079603 -7.183018624346004e-14
    vertex -101.57230037804939 -151.79121410050587 1.7253682926821056e-13
  endloop
endfacet
facet normal 7.124013739015392e-17 -1.5541369289275492e-14 -1.0
  outer loop
    vertex -101.57230037804939 -151.79121410050587 1.7253682926821056e-13
    vertex -103.64336818991485 -136.05989225079603 -7.183018624346004e-14
    vertex -101.57230037804939 -137.64907847677492 -4.7285197979363146e-14
  endloop
endfacet
facet normal 7.124013739015392e-17 -1.5541369289275492e-14 -1.0
  outer loop
    vertex -101.57230037804939 -151.79121410050587 1.7253682926821056e-13
    vertex -101.57230037804939 -137.64907847677492 -4.7285197979363146e-14
    vertex -99.98311415207047 -139.7201462886404 -1.4799184100411365e-14
  endloop
endfacet
facet normal 7.124013739015392e-17 -1.5541369289275492e-14 -1.0
  outer loop
    vertex -101.57230037804939 -151.79121410050587 1.7253682926821056e-13
    vertex -99.98311415207047 -139.7201462886404 -1.4799184100411365e-14
    vertex -99.98311415207047 -149.7201462886404 1.404117710990249e-13
  endloop
endfacet
facet normal 7.124013739015392e-17 -1.5541369289275492e-14 -1.0
  outer loop
    vertex -99.98311415207047 -149.7201462886404 1.404117710990249e-13
    vertex -99.98311415207047 -139.7201462886404 -1.4799184100411365e-14
    vertex -98.98410992702418 -142.13195583761518 2.2740209715266244e-14
  endloop
endfacet
facet normal 7.124013739015392e-17 -1.5541369289275492e-14 -1.0
  outer loop
    vertex -99.98311415207047 -149.7201462886404 1.404117710990249e-13
    vertex -98.98410992702418 -142.13195583761518 2.2740209715266244e-14
    vertex -98.98410992702418 -147.3083367396656 1.0323333299311343e-13
  endloop
endfacet
facet normal 7.124013739015392e-17 -1.5541369289275492e-14 -1.0
  outer loop
    vertex -98.98410992702418 -147.3083367396656 1.0323333299311343e-13
    vertex -98.98410992702418 -142.13195583761518 2.2740209715266244e-14
    vertex -98.64336818991487 -144.7201462886404 6.280629349930678e-14
  endloop
endfacet
facet normal -0.9914448613738109 -0.13052619222004713 1.957925087075678e-15
  outer loop
    vertex -118.30262645280554 -147.3083367396656 1.0178951015404891e-13
    vertex -118.64336818991485 -144.72014628864036 1.0000000000000613
    vertex -118.64336818991485 -144.7201462886404 6.136247066024225e-14
  endloop
endfacet
facet normal -0.9914448613738109 -0.13052619222004713 1.957925087075678e-15
  outer loop
    vertex -118.64336818991485 -144.72014628864036 1.0000000000000613
    vertex -118.30262645280554 -147.3083367396656 1.0178951015404891e-13
    vertex -118.30262645280554 -147.30833673966558 1.0000000000001017
  endloop
endfacet
facet normal -0.6087614290087177 -0.7933533402912374 1.2286428990505958e-14
  outer loop
    vertex -115.71443600178033 -151.79121410050587 1.7145396213891217e-13
    vertex -113.64336818991485 -153.38040032648473 1.0000000000001963
    vertex -115.71443600178033 -151.79121410050584 1.0000000000001714
  endloop
endfacet
facet normal -0.6087614290087177 -0.7933533402912374 1.2286428990505958e-14
  outer loop
    vertex -113.64336818991485 -153.38040032648473 1.0000000000001963
    vertex -115.71443600178033 -151.79121410050587 1.7145396213891217e-13
    vertex -113.64336818991485 -153.38040032648476 1.963599061127752e-13
  endloop
endfacet
facet normal -0.7933533402912332 -0.6087614290087233 9.404467576330352e-15
  outer loop
    vertex -115.71443600178033 -151.79121410050587 1.7145396213891217e-13
    vertex -117.30362222775926 -149.72014628864036 1.0000000000001392
    vertex -117.30362222775926 -149.7201462886404 1.3932890396972652e-13
  endloop
endfacet
facet normal -0.7933533402912332 -0.6087614290087233 9.404467576330352e-15
  outer loop
    vertex -117.30362222775926 -149.72014628864036 1.0000000000001392
    vertex -115.71443600178033 -151.79121410050587 1.7145396213891217e-13
    vertex -115.71443600178033 -151.79121410050584 1.0000000000001714
  endloop
endfacet
facet normal 0.9238795325112862 0.3826834323650912 -5.881607238445309e-15
  outer loop
    vertex -98.98410992702418 -142.13195583761515 1.0000000000000226
    vertex -99.98311415207047 -139.7201462886404 -1.4799184100411365e-14
    vertex -99.98311415207047 -139.72014628864036 0.9999999999999852
  endloop
endfacet
facet normal 0.9238795325112862 0.3826834323650912 -5.881607238445309e-15
  outer loop
    vertex -99.98311415207047 -139.7201462886404 -1.4799184100411365e-14
    vertex -98.98410992702418 -142.13195583761515 1.0000000000000226
    vertex -98.98410992702418 -142.13195583761518 2.2740209715266244e-14
  endloop
endfacet
facet normal -0.6087614290087233 0.7933533402912332 -1.237316548618671e-14
  outer loop
    vertex -113.64336818991485 -136.059892250796 -7.25520976629923e-14
    vertex -115.71443600178033 -137.6490784767749 0.9999999999999516
    vertex -113.64336818991485 -136.05989225079597 0.9999999999999274
  endloop
endfacet
facet normal -0.6087614290087233 0.7933533402912332 -1.237316548618671e-14
  outer loop
    vertex -115.71443600178033 -137.6490784767749 0.9999999999999516
    vertex -113.64336818991485 -136.059892250796 -7.25520976629923e-14
    vertex -115.71443600178033 -137.64907847677492 -4.836806510866154e-14
  endloop
endfacet
facet normal -0.7933533402912374 0.6087614290087177 -9.517504778252834e-15
  outer loop
    vertex -117.30362222775923 -139.7201462886404 -1.5882051229709758e-14
    vertex -115.71443600178033 -137.6490784767749 0.9999999999999516
    vertex -115.71443600178033 -137.64907847677492 -4.836806510866154e-14
  endloop
endfacet
facet normal -0.7933533402912374 0.6087614290087177 -9.517504778252834e-15
  outer loop
    vertex -115.71443600178033 -137.6490784767749 0.9999999999999516
    vertex -117.30362222775923 -139.7201462886404 -1.5882051229709758e-14
    vertex -117.30362222775923 -139.72014628864036 0.9999999999999841
  endloop
endfacet
facet normal 0.3826834323650934 0.9238795325112852 -1.4331090573262462e-14
  outer loop
    vertex -103.64336818991485 -136.05989225079603 -7.183018624346004e-14
    vertex -106.05517773888965 -135.06088802574968 0.9999999999999123
    vertex -103.64336818991485 -136.059892250796 0.9999999999999282
  endloop
endfacet
facet normal 0.3826834323650934 0.9238795325112852 -1.4331090573262462e-14
  outer loop
    vertex -106.05517773888965 -135.06088802574968 0.9999999999999123
    vertex -103.64336818991485 -136.05989225079603 -7.183018624346004e-14
    vertex -106.05517773888965 -135.0608880257497 -8.771223747316981e-14
  endloop
endfacet
facet normal -0.13052619222004713 -0.9914448613738109 1.5399112016698174e-14
  outer loop
    vertex -111.23155864094007 -154.37940455153108 2.1224195734248497e-13
    vertex -108.64336818991487 -154.72014628864036 1.0000000000002176
    vertex -111.23155864094007 -154.37940455153105 1.0000000000002123
  endloop
endfacet
facet normal -0.13052619222004713 -0.9914448613738109 1.5399112016698174e-14
  outer loop
    vertex -108.64336818991487 -154.72014628864036 1.0000000000002176
    vertex -111.23155864094007 -154.37940455153108 2.1224195734248497e-13
    vertex -108.64336818991487 -154.7201462886404 2.1765629298897693e-13
  endloop
endfacet
facet normal -0.9238795325112877 -0.3826834323650874 5.881607238445249e-15
  outer loop
    vertex -117.30362222775926 -149.7201462886404 1.3932890396972652e-13
    vertex -118.30262645280554 -147.30833673966558 1.0000000000001017
    vertex -118.30262645280554 -147.3083367396656 1.0178951015404891e-13
  endloop
endfacet
facet normal -0.9238795325112877 -0.3826834323650874 5.881607238445249e-15
  outer loop
    vertex -118.30262645280554 -147.30833673966558 1.0000000000001017
    vertex -117.30362222775926 -149.7201462886404 1.3932890396972652e-13
    vertex -117.30362222775926 -149.72014628864036 1.0000000000001392
  endloop
endfacet
facet normal 0.13052619222004713 -0.9914448613738109 1.5417709424431714e-14
  outer loop
    vertex -108.64336818991487 -154.72014628864036 1.0000000000002176
    vertex -106.05517773888965 -154.37940455153108 2.126029130522511e-13
    vertex -106.05517773888965 -154.37940455153105 1.0000000000002125
  endloop
endfacet
facet normal 0.13052619222004713 -0.9914448613738109 1.5417709424431714e-14
  outer loop
    vertex -106.05517773888965 -154.37940455153108 2.126029130522511e-13
    vertex -108.64336818991487 -154.72014628864036 1.0000000000002176
    vertex -108.64336818991487 -154.7201462886404 2.1765629298897693e-13
  endloop
endfacet
facet normal -0.38268343236509494 -0.9238795325112845 1.4331090573262452e-14
  outer loop
    vertex -113.64336818991485 -153.38040032648473 1.0000000000001963
    vertex -111.23155864094007 -154.37940455153108 2.1224195734248497e-13
    vertex -111.23155864094007 -154.37940455153105 1.0000000000002123
  endloop
endfacet
facet normal -0.38268343236509494 -0.9238795325112845 1.4331090573262452e-14
  outer loop
    vertex -111.23155864094007 -154.37940455153108 2.1224195734248497e-13
    vertex -113.64336818991485 -153.38040032648473 1.0000000000001963
    vertex -113.64336818991485 -153.38040032648476 1.963599061127752e-13
  endloop
endfacet
facet normal 0.9914448613738104 -0.1305261922200515 2.0991864233538105e-15
  outer loop
    vertex -98.98410992702418 -147.30833673966558 1.0000000000001033
    vertex -98.64336818991487 -144.7201462886404 6.280629349930678e-14
    vertex -98.64336818991487 -144.72014628864036 1.0000000000000628
  endloop
endfacet
facet normal 0.9914448613738104 -0.1305261922200515 2.0991864233538105e-15
  outer loop
    vertex -98.64336818991487 -144.7201462886404 6.280629349930678e-14
    vertex -98.98410992702418 -147.30833673966558 1.0000000000001033
    vertex -98.98410992702418 -147.3083367396656 1.0323333299311343e-13
  endloop
endfacet
facet normal 0.9914448613738104 0.1305261922200515 -1.957925087075746e-15
  outer loop
    vertex -98.64336818991487 -144.72014628864036 1.0000000000000628
    vertex -98.98410992702418 -142.13195583761518 2.2740209715266244e-14
    vertex -98.98410992702418 -142.13195583761515 1.0000000000000226
  endloop
endfacet
facet normal 0.9914448613738104 0.1305261922200515 -1.957925087075746e-15
  outer loop
    vertex -98.98410992702418 -142.13195583761518 2.2740209715266244e-14
    vertex -98.64336818991487 -144.72014628864036 1.0000000000000628
    vertex -98.64336818991487 -144.7201462886404 6.280629349930678e-14
  endloop
endfacet
facet normal 0.7933533402912353 -0.6087614290087204 9.517504778252875e-15
  outer loop
    vertex -101.57230037804939 -151.79121410050584 1.0000000000001725
    vertex -99.98311415207047 -149.7201462886404 1.404117710990249e-13
    vertex -99.98311415207047 -149.72014628864036 1.0000000000001403
  endloop
endfacet
facet normal 0.7933533402912353 -0.6087614290087204 9.517504778252875e-15
  outer loop
    vertex -99.98311415207047 -149.7201462886404 1.404117710990249e-13
    vertex -101.57230037804939 -151.79121410050584 1.0000000000001725
    vertex -101.57230037804939 -151.79121410050587 1.7253682926821056e-13
  endloop
endfacet
facet normal 0.6087614290087233 -0.7933533402912332 1.237316548618671e-14
  outer loop
    vertex -103.64336818991487 -153.38040032648476 1.0000000000001972
    vertex -101.57230037804939 -151.79121410050587 1.7253682926821056e-13
    vertex -101.57230037804939 -151.79121410050584 1.0000000000001725
  endloop
endfacet
facet normal 0.6087614290087233 -0.7933533402912332 1.237316548618671e-14
  outer loop
    vertex -101.57230037804939 -151.79121410050587 1.7253682926821056e-13
    vertex -103.64336818991487 -153.38040032648476 1.0000000000001972
    vertex -103.64336818991487 -153.3804003264848 1.9708181753230746e-13
  endloop
endfacet
facet normal 0.9238795325112862 -0.3826834323650912 6.0132418481014196e-15
  outer loop
    vertex -99.98311415207047 -149.72014628864036 1.0000000000001403
    vertex -98.98410992702418 -147.3083367396656 1.0323333299311343e-13
    vertex -98.98410992702418 -147.30833673966558 1.0000000000001033
  endloop
endfacet
facet normal 0.9238795325112862 -0.3826834323650912 6.0132418481014196e-15
  outer loop
    vertex -98.98410992702418 -147.3083367396656 1.0323333299311343e-13
    vertex -99.98311415207047 -149.72014628864036 1.0000000000001403
    vertex -99.98311415207047 -149.7201462886404 1.404117710990249e-13
  endloop
endfacet
facet normal 0.38268343236511265 -0.9238795325112774 1.6595999996520894e-14
  outer loop
    vertex -107.64680319930326 -148.4393774666472 3.0000000000001203
    vertex -106.71815246590037 -148.054717738164 1.0000000000001141
    vertex -106.71815246590037 -148.05471773816396 3.0000000000001146
  endloop
endfacet
facet normal 0.38268343236511265 -0.9238795325112774 1.6595999996520894e-14
  outer loop
    vertex -106.71815246590037 -148.054717738164 1.0000000000001141
    vertex -107.64680319930326 -148.4393774666472 3.0000000000001203
    vertex -107.64680319930324 -148.43937746664722 1.0000000000001201
  endloop
endfacet
facet normal 0.9238795325114946 0.3826834323645878 -6.23170668253529e-16
  outer loop
    vertex -105.29336818991484 -142.83217838043333 3.0000000000000333
    vertex -105.30879674039089 -142.79493056462624 1.0000000000000324
    vertex -105.30879674039092 -142.79493056462624 3.0000000000000324
  endloop
endfacet
facet normal 0.9238795325114946 0.3826834323645878 -6.23170668253529e-16
  outer loop
    vertex -105.30879674039089 -142.79493056462624 1.0000000000000324
    vertex -105.29336818991484 -142.83217838043333 3.0000000000000333
    vertex -105.29336818991484 -142.83217838043336 1.0000000000000333
  endloop
endfacet
facet normal -0.7933533402912462 0.6087614290087062 -1.4065258215998855e-14
  outer loop
    vertex -111.36603437731011 -141.99748010124515 1.0000000000000198
    vertex -111.97793963943849 -142.79493056462587 3.000000000000032
    vertex -111.36603437731011 -141.9974801012451 3.00000000000002
  endloop
endfacet
facet normal -0.7933533402912462 0.6087614290087062 -1.4065258215998855e-14
  outer loop
    vertex -111.97793963943849 -142.79493056462587 3.000000000000032
    vertex -111.36603437731011 -141.99748010124515 1.0000000000000198
    vertex -111.97793963943846 -142.79493056462587 1.0000000000000322
  endloop
endfacet
facet normal -0.3826834323651045 -0.9238795325112806 1.65959999965209e-14
  outer loop
    vertex -110.56858391392934 -148.05471773816396 3.000000000000114
    vertex -109.63993318052646 -148.43937746664722 1.00000000000012
    vertex -109.63993318052646 -148.4393774666472 3.0000000000001203
  endloop
endfacet
facet normal -0.3826834323651045 -0.9238795325112806 1.65959999965209e-14
  outer loop
    vertex -109.63993318052646 -148.43937746664722 1.00000000000012
    vertex -110.56858391392934 -148.05471773816396 3.000000000000114
    vertex -110.56858391392937 -148.054717738164 1.0000000000001137
  endloop
endfacet
facet normal 0.6087614290086936 0.7933533402912559 -6.711856942856681e-15
  outer loop
    vertex -105.92070200251962 -141.99748010124506 1.0000000000000207
    vertex -106.71815246590037 -141.3855748391167 3.00000000000001
    vertex -105.92070200251962 -141.99748010124506 3.00000000000002
  endloop
endfacet
facet normal 0.6087614290086936 0.7933533402912559 -6.711856942856681e-15
  outer loop
    vertex -106.71815246590037 -141.3855748391167 3.00000000000001
    vertex -105.92070200251962 -141.99748010124506 1.0000000000000207
    vertex -106.7181524659004 -141.3855748391167 1.000000000000011
  endloop
endfacet
facet normal 1.0 0.0 0.0
  outer loop
    vertex -105.29336818991484 -146.60811419684737 3.000000000000092
    vertex -105.29336818991484 -142.83217838043336 1.0000000000000333
    vertex -105.29336818991484 -142.83217838043333 3.0000000000000333
  endloop
endfacet
facet normal 1.0 0.0 0.0
  outer loop
    vertex -105.29336818991484 -142.83217838043336 1.0000000000000333
    vertex -105.29336818991484 -146.60811419684737 3.000000000000092
    vertex -105.29336818991484 -146.60811419684737 1.000000000000092
  endloop
endfacet
facet normal -0.3826834323651264 0.9238795325112715 -1.530118668605764e-14
  outer loop
    vertex -109.6399331805265 -141.0009151106335 1.0000000000000042
    vertex -110.56858391392934 -141.3855748391167 3.00000000000001
    vertex -109.63993318052646 -141.0009151106335 3.0000000000000044
  endloop
endfacet
facet normal -0.3826834323651264 0.9238795325112715 -1.530118668605764e-14
  outer loop
    vertex -110.56858391392934 -141.3855748391167 3.00000000000001
    vertex -109.6399331805265 -141.0009151106335 1.0000000000000042
    vertex -110.56858391392934 -141.38557483911677 1.0000000000000104
  endloop
endfacet
facet normal -0.13052619222003536 -0.9914448613738125 1.0463079606811648e-14
  outer loop
    vertex -109.63993318052646 -148.4393774666472 3.0000000000001203
    vertex -108.64336818991488 -148.57057773666935 1.000000000000122
    vertex -108.64336818991487 -148.57057773666935 3.000000000000122
  endloop
endfacet
facet normal -0.13052619222003536 -0.9914448613738125 1.0463079606811648e-14
  outer loop
    vertex -108.64336818991488 -148.57057773666935 1.000000000000122
    vertex -109.63993318052646 -148.4393774666472 3.0000000000001203
    vertex -109.63993318052646 -148.43937746664722 1.00000000000012
  endloop
endfacet
facet normal -1.0 -0.0 0.0
  outer loop
    vertex -111.99336818991485 -146.60811419684705 1.0000000000000913
    vertex -111.99336818991485 -142.83217838043365 3.000000000000033
    vertex -111.99336818991485 -142.83217838043367 1.0000000000000329
  endloop
endfacet
facet normal -1.0 -0.0 0.0
  outer loop
    vertex -111.99336818991485 -142.83217838043365 3.000000000000033
    vertex -111.99336818991485 -146.60811419684705 1.0000000000000913
    vertex -111.99336818991485 -146.60811419684703 3.0000000000000915
  endloop
endfacet
facet normal 0.7933533402912287 0.6087614290087292 -1.3808205074161162e-15
  outer loop
    vertex -105.92070200251962 -141.99748010124506 3.00000000000002
    vertex -105.30879674039089 -142.79493056462624 1.0000000000000324
    vertex -105.92070200251962 -141.99748010124506 1.0000000000000207
  endloop
endfacet
facet normal 0.7933533402912287 0.6087614290087292 -1.3808205074161162e-15
  outer loop
    vertex -105.30879674039089 -142.79493056462624 1.0000000000000324
    vertex -105.92070200251962 -141.99748010124506 3.00000000000002
    vertex -105.30879674039092 -142.79493056462624 3.0000000000000324
  endloop
endfacet
facet normal 0.13052619222003092 -0.9914448613738132 9.711068227761691e-15
  outer loop
    vertex -108.64336818991487 -148.57057773666935 3.000000000000122
    vertex -107.64680319930324 -148.43937746664722 1.0000000000001201
    vertex -107.64680319930326 -148.4393774666472 3.0000000000001203
  endloop
endfacet
facet normal 0.13052619222003092 -0.9914448613738132 9.711068227761691e-15
  outer loop
    vertex -107.64680319930324 -148.43937746664722 1.0000000000001201
    vertex -108.64336818991487 -148.57057773666935 3.000000000000122
    vertex -108.64336818991488 -148.57057773666935 1.000000000000122
  endloop
endfacet
facet normal -0.923879532511134 0.38268343236545876 -9.08458203188335e-15
  outer loop
    vertex -111.99336818991485 -142.83217838043367 1.0000000000000329
    vertex -111.97793963943849 -142.79493056462587 3.000000000000032
    vertex -111.97793963943846 -142.79493056462587 1.0000000000000322
  endloop
endfacet
facet normal -0.923879532511134 0.38268343236545876 -9.08458203188335e-15
  outer loop
    vertex -111.97793963943849 -142.79493056462587 3.000000000000032
    vertex -111.99336818991485 -142.83217838043367 1.0000000000000329
    vertex -111.99336818991485 -142.83217838043365 3.000000000000033
  endloop
endfacet
facet normal 0.7933533402912214 -0.6087614290087384 2.4465217121139968e-15
  outer loop
    vertex -105.30879674039092 -146.64536201265446 3.0000000000000924
    vertex -105.92070200251962 -147.44281247603558 1.000000000000105
    vertex -105.30879674039092 -146.64536201265446 1.0000000000000924
  endloop
endfacet
facet normal 0.7933533402912214 -0.6087614290087384 2.4465217121139968e-15
  outer loop
    vertex -105.92070200251962 -147.44281247603558 1.000000000000105
    vertex -105.30879674039092 -146.64536201265446 3.0000000000000924
    vertex -105.92070200251962 -147.44281247603558 3.000000000000105
  endloop
endfacet
facet normal -0.9238795325112525 -0.3826834323651723 9.08436274769644e-15
  outer loop
    vertex -111.9779396394385 -146.6453620126548 1.0000000000000917
    vertex -111.99336818991485 -146.60811419684703 3.0000000000000915
    vertex -111.99336818991485 -146.60811419684705 1.0000000000000913
  endloop
endfacet
facet normal -0.9238795325112525 -0.3826834323651723 9.08436274769644e-15
  outer loop
    vertex -111.99336818991485 -146.60811419684703 3.0000000000000915
    vertex -111.9779396394385 -146.6453620126548 1.0000000000000917
    vertex -111.97793963943849 -146.6453620126548 3.000000000000092
  endloop
endfacet
facet normal -0.6087614290087137 -0.7933533402912406 1.9385636191000375e-14
  outer loop
    vertex -111.36603437731011 -147.44281247603558 3.0000000000001044
    vertex -110.56858391392937 -148.054717738164 1.0000000000001137
    vertex -110.56858391392934 -148.05471773816396 3.000000000000114
  endloop
endfacet
facet normal -0.6087614290087137 -0.7933533402912406 1.9385636191000375e-14
  outer loop
    vertex -110.56858391392937 -148.054717738164 1.0000000000001137
    vertex -111.36603437731011 -147.44281247603558 3.0000000000001044
    vertex -111.36603437731013 -147.4428124760356 1.0000000000001044
  endloop
endfacet
facet normal 0.9238795325113514 -0.38268343236493374 3.748551709026236e-15
  outer loop
    vertex -105.30879674039092 -146.64536201265446 3.0000000000000924
    vertex -105.29336818991484 -146.60811419684737 1.000000000000092
    vertex -105.29336818991484 -146.60811419684737 3.000000000000092
  endloop
endfacet
facet normal 0.9238795325113514 -0.38268343236493374 3.748551709026236e-15
  outer loop
    vertex -105.29336818991484 -146.60811419684737 1.000000000000092
    vertex -105.30879674039092 -146.64536201265446 3.0000000000000924
    vertex -105.30879674039092 -146.64536201265446 1.0000000000000924
  endloop
endfacet
facet normal 0.3826834323651004 0.9238795325112823 -8.129343840939248e-15
  outer loop
    vertex -106.7181524659004 -141.3855748391167 1.000000000000011
    vertex -107.64680319930329 -141.0009151106335 3.0000000000000044
    vertex -106.71815246590037 -141.3855748391167 3.00000000000001
  endloop
endfacet
facet normal 0.3826834323651004 0.9238795325112823 -8.129343840939248e-15
  outer loop
    vertex -107.64680319930329 -141.0009151106335 3.0000000000000044
    vertex -106.7181524659004 -141.3855748391167 1.000000000000011
    vertex -107.6468031993033 -141.0009151106335 1.0000000000000047
  endloop
endfacet
facet normal -0.7933533402912534 -0.608761429008697 1.5120300960257518e-14
  outer loop
    vertex -111.36603437731013 -147.4428124760356 1.0000000000001044
    vertex -111.97793963943849 -146.6453620126548 3.000000000000092
    vertex -111.9779396394385 -146.6453620126548 1.0000000000000917
  endloop
endfacet
facet normal -0.7933533402912534 -0.608761429008697 1.5120300960257518e-14
  outer loop
    vertex -111.97793963943849 -146.6453620126548 3.000000000000092
    vertex -111.36603437731013 -147.4428124760356 1.0000000000001044
    vertex -111.36603437731011 -147.44281247603558 3.0000000000001044
  endloop
endfacet
facet normal 0.13052619222003686 0.9914448613738125 -1.1219152144378869e-14
  outer loop
    vertex -107.6468031993033 -141.0009151106335 1.0000000000000047
    vertex -108.64336818991487 -140.86971484061132 3.0000000000000027
    vertex -107.64680319930329 -141.0009151106335 3.0000000000000044
  endloop
endfacet
facet normal 0.13052619222003686 0.9914448613738125 -1.1219152144378869e-14
  outer loop
    vertex -108.64336818991487 -140.86971484061132 3.0000000000000027
    vertex -107.6468031993033 -141.0009151106335 1.0000000000000047
    vertex -108.64336818991488 -140.86971484061135 1.0000000000000022
  endloop
endfacet
facet normal -0.6087614290087137 0.7933533402912406 -2.151804684834807e-14
  outer loop
    vertex -110.56858391392934 -141.38557483911677 1.0000000000000104
    vertex -111.36603437731011 -141.9974801012451 3.00000000000002
    vertex -110.56858391392934 -141.3855748391167 3.00000000000001
  endloop
endfacet
facet normal -0.6087614290087137 0.7933533402912406 -2.151804684834807e-14
  outer loop
    vertex -111.36603437731011 -141.9974801012451 3.00000000000002
    vertex -110.56858391392934 -141.38557483911677 1.0000000000000104
    vertex -111.36603437731011 -141.99748010124515 1.0000000000000198
  endloop
endfacet
facet normal 0.6087614290087209 -0.7933533402912352 7.773669244757652e-15
  outer loop
    vertex -106.71815246590037 -148.05471773816396 3.0000000000001146
    vertex -105.92070200251962 -147.44281247603558 1.000000000000105
    vertex -105.92070200251962 -147.44281247603558 3.000000000000105
  endloop
endfacet
facet normal 0.6087614290087209 -0.7933533402912352 7.773669244757652e-15
  outer loop
    vertex -105.92070200251962 -147.44281247603558 1.000000000000105
    vertex -106.71815246590037 -148.05471773816396 3.0000000000001146
    vertex -106.71815246590037 -148.054717738164 1.0000000000001141
  endloop
endfacet
facet normal -0.13052619222004366 0.9914448613738116 -1.3175782906834157e-14
  outer loop
    vertex -108.64336818991488 -140.86971484061135 1.0000000000000022
    vertex -109.63993318052646 -141.0009151106335 3.0000000000000044
    vertex -108.64336818991487 -140.86971484061132 3.0000000000000027
  endloop
endfacet
facet normal -0.13052619222004366 0.9914448613738116 -1.3175782906834157e-14
  outer loop
    vertex -109.63993318052646 -141.0009151106335 3.0000000000000044
    vertex -108.64336818991488 -140.86971484061135 1.0000000000000022
    vertex -109.6399331805265 -141.0009151106335 1.0000000000000042
  endloop
endfacet
facet normal -6.888389369443824e-17 1.5541685449913838e-14 1.0
  outer loop
    vertex -111.97793963943849 -146.6453620126548 3.000000000000092
    vertex -111.99336818991485 -142.83217838043365 3.000000000000033
    vertex -111.99336818991485 -146.60811419684703 3.0000000000000915
  endloop
endfacet
facet normal -6.888389369443824e-17 1.5541685449913838e-14 1.0
  outer loop
    vertex -111.99336818991485 -142.83217838043365 3.000000000000033
    vertex -111.97793963943849 -146.6453620126548 3.000000000000092
    vertex -111.97793963943849 -142.79493056462587 3.000000000000032
  endloop
endfacet
facet normal -6.888389369443824e-17 1.5541685449913838e-14 1.0
  outer loop
    vertex -111.97793963943849 -142.79493056462587 3.000000000000032
    vertex -111.97793963943849 -146.6453620126548 3.000000000000092
    vertex -111.36603437731011 -147.44281247603558 3.0000000000001044
  endloop
endfacet
facet normal -6.888389369443824e-17 1.5541685449913838e-14 1.0
  outer loop
    vertex -111.97793963943849 -142.79493056462587 3.000000000000032
    vertex -111.36603437731011 -147.44281247603558 3.0000000000001044
    vertex -111.36603437731011 -141.9974801012451 3.00000000000002
  endloop
endfacet
facet normal -6.888389369443824e-17 1.5541685449913838e-14 1.0
  outer loop
    vertex -111.36603437731011 -141.9974801012451 3.00000000000002
    vertex -111.36603437731011 -147.44281247603558 3.0000000000001044
    vertex -110.56858391392934 -148.05471773816396 3.000000000000114
  endloop
endfacet
facet normal -6.888389369443824e-17 1.5541685449913838e-14 1.0
  outer loop
    vertex -111.36603437731011 -141.9974801012451 3.00000000000002
    vertex -110.56858391392934 -148.05471773816396 3.000000000000114
    vertex -110.56858391392934 -141.3855748391167 3.00000000000001
  endloop
endfacet
facet normal -6.888389369443824e-17 1.5541685449913838e-14 1.0
  outer loop
    vertex -110.56858391392934 -141.3855748391167 3.00000000000001
    vertex -110.56858391392934 -148.05471773816396 3.000000000000114
    vertex -109.63993318052646 -148.4393774666472 3.0000000000001203
  endloop
endfacet
facet normal -6.888389369443824e-17 1.5541685449913838e-14 1.0
  outer loop
    vertex -110.56858391392934 -141.3855748391167 3.00000000000001
    vertex -109.63993318052646 -148.4393774666472 3.0000000000001203
    vertex -109.63993318052646 -141.0009151106335 3.0000000000000044
  endloop
endfacet
facet normal -6.888389369443824e-17 1.5541685449913838e-14 1.0
  outer loop
    vertex -109.63993318052646 -141.0009151106335 3.0000000000000044
    vertex -109.63993318052646 -148.4393774666472 3.0000000000001203
    vertex -108.64336818991487 -148.57057773666935 3.000000000000122
  endloop
endfacet
facet normal -6.888389369443824e-17 1.5541685449913838e-14 1.0
  outer loop
    vertex -109.63993318052646 -141.0009151106335 3.0000000000000044
    vertex -108.64336818991487 -148.57057773666935 3.000000000000122
    vertex -108.64336818991487 -140.86971484061132 3.0000000000000027
  endloop
endfacet
facet normal -6.888389369443824e-17 1.5541685449913838e-14 1.0
  outer loop
    vertex -108.64336818991487 -140.86971484061132 3.0000000000000027
    vertex -108.64336818991487 -148.57057773666935 3.000000000000122
    vertex -107.64680319930326 -148.4393774666472 3.0000000000001203
  endloop
endfacet
facet normal -6.888389369443824e-17 1.5541685449913838e-14 1.0
  outer loop
    vertex -108.64336818991487 -140.86971484061132 3.0000000000000027
    vertex -107.64680319930326 -148.4393774666472 3.0000000000001203
    vertex -107.64680319930329 -141.0009151106335 3.0000000000000044
  endloop
endfacet
facet normal -6.888389369443824e-17 1.5541685449913838e-14 1.0
  outer loop
    vertex -107.64680319930329 -141.0009151106335 3.0000000000000044
    vertex -107.64680319930326 -148.4393774666472 3.0000000000001203
    vertex -106.71815246590037 -141.3855748391167 3.00000000000001
  endloop
endfacet
facet normal -6.888389369443824e-17 1.5541685449913838e-14 1.0
  outer loop
    vertex -106.71815246590037 -141.3855748391167 3.00000000000001
    vertex -107.64680319930326 -148.4393774666472 3.0000000000001203
    vertex -106.71815246590037 -148.05471773816396 3.0000000000001146
  endloop
endfacet
facet normal -6.888389369443824e-17 1.5541685449913838e-14 1.0
  outer loop
    vertex -106.71815246590037 -141.3855748391167 3.00000000000001
    vertex -106.71815246590037 -148.05471773816396 3.0000000000001146
    vertex -105.92070200251962 -147.44281247603558 3.000000000000105
  endloop
endfacet
facet normal -6.888389369443824e-17 1.5541685449913838e-14 1.0
  outer loop
    vertex -106.71815246590037 -141.3855748391167 3.00000000000001
    vertex -105.92070200251962 -147.44281247603558 3.000000000000105
    vertex -105.92070200251962 -141.99748010124506 3.00000000000002
  endloop
endfacet
facet normal -6.888389369443824e-17 1.5541685449913838e-14 1.0
  outer loop
    vertex -105.92070200251962 -141.99748010124506 3.00000000000002
    vertex -105.92070200251962 -147.44281247603558 3.000000000000105
    vertex -105.30879674039092 -146.64536201265446 3.0000000000000924
  endloop
endfacet
facet normal -6.888389369443824e-17 1.5541685449913838e-14 1.0
  outer loop
    vertex -105.92070200251962 -141.99748010124506 3.00000000000002
    vertex -105.30879674039092 -146.64536201265446 3.0000000000000924
    vertex -105.30879674039092 -142.79493056462624 3.0000000000000324
  endloop
endfacet
facet normal -6.888389369443824e-17 1.5541685449913838e-14 1.0
  outer loop
    vertex -105.30879674039092 -142.79493056462624 3.0000000000000324
    vertex -105.30879674039092 -146.64536201265446 3.0000000000000924
    vertex -105.29336818991484 -146.60811419684737 3.000000000000092
  endloop
endfacet
facet normal -6.888389369443824e-17 1.5541685449913838e-14 1.0
  outer loop
    vertex -105.30879674039092 -142.79493056462624 3.0000000000000324
    vertex -105.29336818991484 -146.60811419684737 3.000000000000092
    vertex -105.29336818991484 -142.83217838043333 3.0000000000000333
  endloop
endfacet
endsolid Framework
