solid Framework
facet normal 0.13052617810119188 -0.9914448632325935 0.0
  outer loop
    vertex 254.07469961353954 -182.13218185937842 0.0
    vertex 235.95736642239632 -184.51737376114028 -1.0
    vertex 254.07469961353954 -182.13218185937842 -1.0
  endloop
endfacet
facet normal 0.13052617810119188 -0.9914448632325935 0.0
  outer loop
    vertex 235.95736642239632 -184.51737376114028 -1.0
    vertex 254.07469961353954 -182.13218185937842 0.0
    vertex 235.95736642239632 -184.51737376114028 0.0
  endloop
endfacet
facet normal -0.13052620633891263 -0.9914448595150269 -0.0
  outer loop
    vertex 235.95736642239632 -184.51737376114028 0.0
    vertex 217.84003329918662 -182.13218134337168 -1.0
    vertex 235.95736642239632 -184.51737376114028 -1.0
  endloop
endfacet
facet normal -0.13052620633891263 -0.9914448595150269 -0.0
  outer loop
    vertex 217.84003329918662 -182.13218134337168 -1.0
    vertex 235.95736642239632 -184.51737376114028 0.0
    vertex 217.84003329918662 -182.13218134337168 0.0
  endloop
endfacet
facet normal 0.9659258337224861 -0.25881901736062696 0.0
  outer loop
    vertex 217.84003329918662 -182.13218134337168 -1.0
    vertex 214.35778668520808 -195.12810665302098 0.0
    vertex 214.35778668520808 -195.12810665302098 -1.0
  endloop
endfacet
facet normal 0.9659258337224861 -0.25881901736062696 0.0
  outer loop
    vertex 214.35778668520808 -195.12810665302098 0.0
    vertex 217.84003329918662 -182.13218134337168 -1.0
    vertex 217.84003329918662 -182.13218134337168 0.0
  endloop
endfacet
facet normal -0.9659258232945954 -0.25881905627804586 5.06223848631465e-17
  outer loop
    vertex 254.07469961353954 -182.13218185937842 0.0
    vertex 257.55694812628985 -195.12810704174524 -1.0
    vertex 257.55694812628985 -195.12810704174524 0.0
  endloop
endfacet
facet normal -0.9659258232945954 -0.25881905627804586 5.06223848631465e-17
  outer loop
    vertex 257.55694812628985 -195.12810704174524 -1.0
    vertex 254.07469961353954 -182.13218185937842 0.0
    vertex 254.07469961353954 -182.13218185937842 -1.0
  endloop
endfacet
facet normal 0.0 0.0 1.0
  outer loop
    vertex 158.04599861275145 -144.4247456901003 0.0
    vertex 168.34255932100658 -132.63470595543515 0.0
    vertex 155.34663360816376 -136.11695445468803 0.0
  endloop
endfacet
facet normal 0.0 0.0 1.0
  outer loop
    vertex 168.34255932100658 -132.63470595543515 0.0
    vertex 158.04599861275145 -144.4247456901003 0.0
    vertex 161.59897686439095 -152.40486550013836 0.0
  endloop
endfacet
facet normal 0.0 0.0 1.0
  outer loop
    vertex 168.34255932100658 -132.63470595543515 0.0
    vertex 161.59897686439095 -152.40486550013836 0.0
    vertex 165.96664118984873 -159.9698820222162 0.0
  endloop
endfacet
facet normal 0.0 0.0 1.0
  outer loop
    vertex 168.34255932100658 -132.63470595543515 0.0
    vertex 165.96664118984873 -159.9698820222162 0.0
    vertex 171.10113854478266 -167.0369113522363 0.0
  endloop
endfacet
facet normal 0.0 0.0 1.0
  outer loop
    vertex 168.34255932100658 -132.63470595543515 0.0
    vertex 171.10113854478266 -167.0369113522363 0.0
    vertex 168.34255983701325 -96.40003964108226 0.0
  endloop
endfacet
facet normal 0.0 0.0 1.0
  outer loop
    vertex 168.34255983701325 -96.40003964108226 0.0
    vertex 165.95736741924466 -114.51737276429189 0.0
    vertex 168.34255932100658 -132.63470595543515 0.0
  endloop
endfacet
facet normal 0.0 0.0 1.0
  outer loop
    vertex 168.34255983701325 -96.40003964108226 0.0
    vertex 158.04599861269762 -84.61000183221981 0.0
    vertex 155.34663360812488 -92.91779306763696 0.0
  endloop
endfacet
facet normal 0.0 0.0 1.0
  outer loop
    vertex 158.04599861269762 -84.61000183221981 0.0
    vertex 168.34255983701325 -96.40003964108226 0.0
    vertex 161.59897742839817 -76.62988091511484 0.0
  endloop
endfacet
facet normal 0.0 0.0 1.0
  outer loop
    vertex 161.59897742839817 -76.62988091511484 0.0
    vertex 168.34255983701325 -96.40003964108226 0.0
    vertex 165.96664186647166 -69.06486445805571 0.0
  endloop
endfacet
facet normal 0.0 0.0 1.0
  outer loop
    vertex 165.96664186647166 -69.06486445805571 0.0
    vertex 168.34255983701325 -96.40003964108226 0.0
    vertex 171.1011393266079 -61.99783520446973 0.0
  endloop
endfacet
facet normal 0.0 0.0 1.0
  outer loop
    vertex 171.1011393266079 -61.99783520446973 0.0
    vertex 168.34255983701325 -96.40003964108226 0.0
    vertex 171.10113854478266 -167.0369113522363 0.0
  endloop
endfacet
facet normal 0.0 0.0 1.0
  outer loop
    vertex 171.1011393266079 -61.99783520446973 0.0
    vertex 171.10113854478266 -167.0369113522363 0.0
    vertex 176.94621430170938 -173.52852563798797 0.0
  endloop
endfacet
facet normal 0.0 0.0 1.0
  outer loop
    vertex 171.1011393266079 -61.99783520446973 0.0
    vertex 176.94621430170938 -173.52852563798797 0.0
    vertex 176.94621518017124 -55.50622100572995 0.0
  endloop
endfacet
facet normal 0.0 0.0 1.0
  outer loop
    vertex 176.94621518017124 -55.50622100572995 0.0
    vertex 176.94621430170938 -173.52852563798797 0.0
    vertex 183.43782858747517 -179.37360139489886 0.0
  endloop
endfacet
facet normal 0.0 0.0 1.0
  outer loop
    vertex 176.94621518017124 -55.50622100572995 0.0
    vertex 183.43782858747517 -179.37360139489886 0.0
    vertex 183.43782955294904 -49.66114534545553 0.0
  endloop
endfacet
facet normal 0.0 0.0 1.0
  outer loop
    vertex 183.43782955294904 -49.66114534545553 0.0
    vertex 183.43782858747517 -179.37360139489886 0.0
    vertex 190.50485791750768 -184.50809874981564 0.0
  endloop
endfacet
facet normal 0.0 0.0 1.0
  outer loop
    vertex 183.43782955294904 -49.66114534545553 0.0
    vertex 190.50485791750768 -184.50809874981564 0.0
    vertex 190.50485895941563 -44.52664809574119 0.0
  endloop
endfacet
facet normal 0.0 0.0 1.0
  outer loop
    vertex 190.50485895941563 -44.52664809574119 0.0
    vertex 190.50485791750768 -184.50809874981564 0.0
    vertex 198.06987554665648 -188.8757636393306 0.0
  endloop
endfacet
facet normal 0.0 0.0 1.0
  outer loop
    vertex 190.50485895941563 -44.52664809574119 0.0
    vertex 198.06987554665648 -188.8757636393306 0.0
    vertex 198.0698755465226 -40.15898388291735 0.0
  endloop
endfacet
facet normal 0.0 0.0 1.0
  outer loop
    vertex 198.0698755465226 -40.15898388291735 0.0
    vertex 198.06987554665648 -188.8757636393306 0.0
    vertex 206.0499954094604 -36.60600575009226 0.0
  endloop
endfacet
facet normal 0.0 0.0 1.0
  outer loop
    vertex 206.0499954094604 -36.60600575009226 0.0
    vertex 198.06987554665648 -188.8757636393306 0.0
    vertex 206.04999540960063 -192.4287417721413 0.0
  endloop
endfacet
facet normal 0.0 0.0 1.0
  outer loop
    vertex 206.0499954094604 -36.60600575009226 0.0
    vertex 206.04999540960063 -192.4287417721413 0.0
    vertex 214.3577866851107 -33.906640869184756 0.0
  endloop
endfacet
facet normal 0.0 0.0 1.0
  outer loop
    vertex 214.3577866851107 -33.906640869184756 0.0
    vertex 206.04999540960063 -192.4287417721413 0.0
    vertex 214.35778668520808 -195.12810665302098 0.0
  endloop
endfacet
facet normal 0.0 0.0 1.0
  outer loop
    vertex 214.3577866851107 -33.906640869184756 0.0
    vertex 214.35778668520808 -195.12810665302098 0.0
    vertex 217.84003522494987 -46.90256566290216 0.0
  endloop
endfacet
facet normal 0.0 0.0 1.0
  outer loop
    vertex 217.84003522494987 -46.90256566290216 0.0
    vertex 214.35778668520808 -195.12810665302098 0.0
    vertex 217.84003329918662 -182.13218134337168 0.0
  endloop
endfacet
facet normal 0.0 0.0 1.0
  outer loop
    vertex 217.84003522494987 -46.90256566290216 0.0
    vertex 217.84003329918662 -182.13218134337168 0.0
    vertex 235.95736642239632 -184.51737376114028 0.0
  endloop
endfacet
facet normal 0.0 0.0 1.0
  outer loop
    vertex 217.84003522494987 -46.90256566290216 0.0
    vertex 235.95736642239632 -184.51737376114028 0.0
    vertex 235.95736841609306 -44.51737376114031 0.0
  endloop
endfacet
facet normal 0.0 0.0 1.0
  outer loop
    vertex 235.95736841609306 -44.51737376114031 0.0
    vertex 235.95736642239632 -184.51737376114028 0.0
    vertex 254.07469961353954 -182.13218185937842 0.0
  endloop
endfacet
facet normal 0.0 0.0 1.0
  outer loop
    vertex 235.95736841609306 -44.51737376114031 0.0
    vertex 254.07469961353954 -182.13218185937842 0.0
    vertex 254.0747015393027 -46.902566178908856 0.0
  endloop
endfacet
facet normal 0.0 0.0 1.0
  outer loop
    vertex 254.0747015393027 -46.902566178908856 0.0
    vertex 254.07469961353954 -182.13218185937842 0.0
    vertex 257.55694812628985 -195.12810704174524 0.0
  endloop
endfacet
facet normal 0.0 0.0 1.0
  outer loop
    vertex 254.0747015393027 -46.902566178908856 0.0
    vertex 257.55694812628985 -195.12810704174524 0.0
    vertex 257.5569481261925 -33.90664125790887 0.0
  endloop
endfacet
facet normal 0.0 0.0 1.0
  outer loop
    vertex 257.5569481261925 -33.90664125790887 0.0
    vertex 257.55694812628985 -195.12810704174524 0.0
    vertex 265.8647394017999 -36.606006138788615 0.0
  endloop
endfacet
facet normal 0.0 0.0 1.0
  outer loop
    vertex 265.8647394017999 -36.606006138788615 0.0
    vertex 257.55694812628985 -195.12810704174524 0.0
    vertex 265.86473940194014 -192.42874216083763 0.0
  endloop
endfacet
facet normal 0.0 0.0 1.0
  outer loop
    vertex 265.8647394017999 -36.606006138788615 0.0
    vertex 265.86473940194014 -192.42874216083763 0.0
    vertex 273.84485926474406 -40.15898427159936 0.0
  endloop
endfacet
facet normal 0.0 0.0 1.0
  outer loop
    vertex 273.84485926474406 -40.15898427159936 0.0
    vertex 265.86473940194014 -192.42874216083763 0.0
    vertex 273.844859264878 -188.87576402801258 0.0
  endloop
endfacet
facet normal 0.0 0.0 1.0
  outer loop
    vertex 273.84485926474406 -40.15898427159936 0.0
    vertex 273.844859264878 -188.87576402801258 0.0
    vertex 281.40987689389294 -44.526649161114264 0.0
  endloop
endfacet
facet normal 0.0 0.0 1.0
  outer loop
    vertex 281.40987689389294 -44.526649161114264 0.0
    vertex 273.844859264878 -188.87576402801258 0.0
    vertex 281.4098758519849 -184.50809981518879 0.0
  endloop
endfacet
facet normal 0.0 0.0 1.0
  outer loop
    vertex 281.40987689389294 -44.526649161114264 0.0
    vertex 281.4098758519849 -184.50809981518879 0.0
    vertex 288.47690525845155 -179.3736025654745 0.0
  endloop
endfacet
facet normal 0.0 0.0 1.0
  outer loop
    vertex 281.40987689389294 -44.526649161114264 0.0
    vertex 288.47690525845155 -179.3736025654745 0.0
    vertex 288.47690622392537 -49.66114651603107 0.0
  endloop
endfacet
facet normal 0.0 0.0 1.0
  outer loop
    vertex 288.47690622392537 -49.66114651603107 0.0
    vertex 288.47690525845155 -179.3736025654745 0.0
    vertex 294.96851963122924 -173.52852690520007 0.0
  endloop
endfacet
facet normal 0.0 0.0 1.0
  outer loop
    vertex 288.47690622392537 -49.66114651603107 0.0
    vertex 294.96851963122924 -173.52852690520007 0.0
    vertex 294.9685205096912 -55.506222272941955 0.0
  endloop
endfacet
facet normal 0.0 0.0 1.0
  outer loop
    vertex 294.9685205096912 -55.506222272941955 0.0
    vertex 294.96851963122924 -173.52852690520007 0.0
    vertex 300.81359548479264 -167.03691270646036 0.0
  endloop
endfacet
facet normal 0.0 0.0 1.0
  outer loop
    vertex 294.9685205096912 -55.506222272941955 0.0
    vertex 300.81359548479264 -167.03691270646036 0.0
    vertex 300.8135962666179 -61.997836558693656 0.0
  endloop
endfacet
facet normal 0.0 0.0 1.0
  outer loop
    vertex 300.8135962666179 -61.997836558693656 0.0
    vertex 300.81359548479264 -167.03691270646036 0.0
    vertex 303.5721750014761 -132.63470788119835 0.0
  endloop
endfacet
facet normal 0.0 0.0 1.0
  outer loop
    vertex 303.5721750014761 -132.63470788119835 0.0
    vertex 300.81359548479264 -167.03691270646036 0.0
    vertex 305.94809294492893 -159.96988345287434 0.0
  endloop
endfacet
facet normal 0.0 0.0 1.0
  outer loop
    vertex 303.5721750014761 -132.63470788119835 0.0
    vertex 305.94809294492893 -159.96988345287434 0.0
    vertex 316.5681012032757 -136.11695484329303 0.0
  endloop
endfacet
facet normal 0.0 0.0 1.0
  outer loop
    vertex 316.5681012032757 -136.11695484329303 0.0
    vertex 305.94809294492893 -159.96988345287434 0.0
    vertex 310.3157573830024 -152.40486699581518 0.0
  endloop
endfacet
facet normal 0.0 0.0 1.0
  outer loop
    vertex 316.5681012032757 -136.11695484329303 0.0
    vertex 310.3157573830024 -152.40486699581518 0.0
    vertex 313.8687361987029 -144.4247460787102 0.0
  endloop
endfacet
facet normal 0.0 0.0 1.0
  outer loop
    vertex 305.9573674192447 -114.51737475798868 0.0
    vertex 303.57217551748283 -96.40004156684546 0.0
    vertex 303.5721750014761 -132.63470788119835 0.0
  endloop
endfacet
facet normal 0.0 0.0 1.0
  outer loop
    vertex 300.8135962666179 -61.997836558693656 0.0
    vertex 303.57217551748283 -96.40004156684546 0.0
    vertex 305.9480936215519 -69.06486588871384 0.0
  endloop
endfacet
facet normal 0.0 0.0 1.0
  outer loop
    vertex 303.57217551748283 -96.40004156684546 0.0
    vertex 300.8135962666179 -61.997836558693656 0.0
    vertex 303.5721750014761 -132.63470788119835 0.0
  endloop
endfacet
facet normal 0.0 0.0 1.0
  outer loop
    vertex 305.9480936215519 -69.06486588871384 0.0
    vertex 303.57217551748283 -96.40004156684546 0.0
    vertex 316.5681012032369 -92.9177934562421 0.0
  endloop
endfacet
facet normal 0.0 0.0 1.0
  outer loop
    vertex 305.9480936215519 -69.06486588871384 0.0
    vertex 316.5681012032369 -92.9177934562421 0.0
    vertex 310.3157579470096 -76.6298824107916 0.0
  endloop
endfacet
facet normal 0.0 0.0 1.0
  outer loop
    vertex 310.3157579470096 -76.6298824107916 0.0
    vertex 316.5681012032369 -92.9177934562421 0.0
    vertex 313.8687361986491 -84.61000222082971 0.0
  endloop
endfacet
facet normal 0.8090169943742337 0.5877852522934557 0.0
  outer loop
    vertex 300.8135962666179 -61.997836558693656 -1.0
    vertex 305.9480936215519 -69.06486588871384 0.0
    vertex 305.9480936215519 -69.06486588871384 -1.0
  endloop
endfacet
facet normal 0.8090169943742337 0.5877852522934557 0.0
  outer loop
    vertex 305.9480936215519 -69.06486588871384 0.0
    vertex 300.8135962666179 -61.997836558693656 -1.0
    vertex 300.8135962666179 -61.997836558693656 0.0
  endloop
endfacet
facet normal 0.9510565162953334 -0.3090169943743944 0.0
  outer loop
    vertex 316.5681012032757 -136.11695484329303 -1.0
    vertex 313.8687361987029 -144.4247460787102 0.0
    vertex 313.8687361987029 -144.4247460787102 -1.0
  endloop
endfacet
facet normal 0.9510565162953334 -0.3090169943743944 0.0
  outer loop
    vertex 313.8687361987029 -144.4247460787102 0.0
    vertex 316.5681012032757 -136.11695484329303 -1.0
    vertex 316.5681012032757 -136.11695484329303 0.0
  endloop
endfacet
facet normal 0.49999999355217956 0.8660254075070896 0.0
  outer loop
    vertex 273.84485926474406 -40.15898427159936 0.0
    vertex 281.40987689389294 -44.526649161114264 -1.0
    vertex 273.84485926474406 -40.15898427159936 -1.0
  endloop
endfacet
facet normal 0.49999999355217956 0.8660254075070896 0.0
  outer loop
    vertex 281.40987689389294 -44.526649161114264 -1.0
    vertex 273.84485926474406 -40.15898427159936 0.0
    vertex 281.40987689389294 -44.526649161114264 0.0
  endloop
endfacet
facet normal 0.9135454546150606 -0.40673664987576685 0.0
  outer loop
    vertex 313.8687361987029 -144.4247460787102 -1.0
    vertex 310.3157573830024 -152.40486699581518 0.0
    vertex 310.3157573830024 -152.40486699581518 -1.0
  endloop
endfacet
facet normal 0.9135454546150606 -0.40673664987576685 0.0
  outer loop
    vertex 310.3157573830024 -152.40486699581518 0.0
    vertex 313.8687361987029 -144.4247460787102 -1.0
    vertex 313.8687361987029 -144.4247460787102 0.0
  endloop
endfacet
facet normal 0.6691306063579554 0.7431448254782073 0.0
  outer loop
    vertex 288.47690622392537 -49.66114651603107 0.0
    vertex 294.9685205096912 -55.506222272941955 -1.0
    vertex 288.47690622392537 -49.66114651603107 -1.0
  endloop
endfacet
facet normal 0.6691306063579554 0.7431448254782073 0.0
  outer loop
    vertex 294.9685205096912 -55.506222272941955 -1.0
    vertex 288.47690622392537 -49.66114651603107 0.0
    vertex 294.9685205096912 -55.506222272941955 0.0
  endloop
endfacet
facet normal 0.5877852522914992 0.8090169943756551 0.0
  outer loop
    vertex 281.40987689389294 -44.526649161114264 0.0
    vertex 288.47690622392537 -49.66114651603107 -1.0
    vertex 281.40987689389294 -44.526649161114264 -1.0
  endloop
endfacet
facet normal 0.5877852522914992 0.8090169943756551 0.0
  outer loop
    vertex 288.47690622392537 -49.66114651603107 -1.0
    vertex 281.40987689389294 -44.526649161114264 0.0
    vertex 288.47690622392537 -49.66114651603107 0.0
  endloop
endfacet
facet normal 0.7431448254765847 0.6691306063597575 0.0
  outer loop
    vertex 294.9685205096912 -55.506222272941955 -1.0
    vertex 300.8135962666179 -61.997836558693656 0.0
    vertex 300.8135962666179 -61.997836558693656 -1.0
  endloop
endfacet
facet normal 0.7431448254765847 0.6691306063597575 0.0
  outer loop
    vertex 300.8135962666179 -61.997836558693656 0.0
    vertex 294.9685205096912 -55.506222272941955 -1.0
    vertex 294.9685205096912 -55.506222272941955 0.0
  endloop
endfacet
facet normal 0.9510565162947774 0.30901699437610525 0.0
  outer loop
    vertex 313.8687361986491 -84.61000222082971 -1.0
    vertex 316.5681012032369 -92.9177934562421 0.0
    vertex 316.5681012032369 -92.9177934562421 -1.0
  endloop
endfacet
facet normal 0.9510565162947774 0.30901699437610525 0.0
  outer loop
    vertex 316.5681012032369 -92.9177934562421 0.0
    vertex 313.8687361986491 -84.61000222082971 -1.0
    vertex 313.8687361986491 -84.61000222082971 0.0
  endloop
endfacet
facet normal -0.258818950480716 -0.9659258516428995 -3.923330740438818e-17
  outer loop
    vertex 168.34255983701325 -96.40003964108226 -0.9999999999999978
    vertex 155.34663360812488 -92.91779306763696 0.0
    vertex 155.34663360812488 -92.91779306763696 -1.0
  endloop
endfacet
facet normal -0.258818950480716 -0.9659258516428995 -3.923330740438818e-17
  outer loop
    vertex 155.34663360812488 -92.91779306763696 0.0
    vertex 168.34255983701325 -96.40003964108226 -0.9999999999999978
    vertex 168.34255983701325 -96.40003964108226 0.0
  endloop
endfacet
facet normal -0.9914448632325935 -0.13052617810119282 -0.0
  outer loop
    vertex 165.95736741924466 -114.51737276429189 0.0
    vertex 168.34255932100658 -132.63470595543515 -0.9999999999999978
    vertex 168.34255932100658 -132.63470595543515 0.0
  endloop
endfacet
facet normal -0.9914448632325935 -0.13052617810119282 -0.0
  outer loop
    vertex 168.34255932100658 -132.63470595543515 -0.9999999999999978
    vertex 165.95736741924466 -114.51737276429189 0.0
    vertex 165.95736741924466 -114.51737276429189 -0.9999999999999978
  endloop
endfacet
facet normal -0.2588191109914277 0.9659258086341866 -6.006462588593868e-17
  outer loop
    vertex 155.34663360816376 -136.11695445468803 0.0
    vertex 168.34255932100658 -132.63470595543515 -0.9999999999999978
    vertex 155.34663360816376 -136.11695445468803 -1.0
  endloop
endfacet
facet normal -0.2588191109914277 0.9659258086341866 -6.006462588593868e-17
  outer loop
    vertex 168.34255932100658 -132.63470595543515 -0.9999999999999978
    vertex 155.34663360816376 -136.11695445468803 0.0
    vertex 168.34255932100658 -132.63470595543515 0.0
  endloop
endfacet
facet normal 0.9914448595150274 -0.13052620633891035 0.0
  outer loop
    vertex 305.9573674192447 -114.51737475798868 -1.0
    vertex 303.5721750014761 -132.63470788119835 0.0
    vertex 303.5721750014761 -132.63470788119835 -1.0
  endloop
endfacet
facet normal 0.9914448595150274 -0.13052620633891035 0.0
  outer loop
    vertex 303.5721750014761 -132.63470788119835 0.0
    vertex 305.9573674192447 -114.51737475798868 -1.0
    vertex 305.9573674192447 -114.51737475798868 0.0
  endloop
endfacet
facet normal -0.9914448595150269 0.13052620633891307 0.0
  outer loop
    vertex 168.34255983701325 -96.40003964108226 0.0
    vertex 165.95736741924466 -114.51737276429189 -0.9999999999999978
    vertex 165.95736741924466 -114.51737276429189 0.0
  endloop
endfacet
facet normal -0.9914448595150269 0.13052620633891307 0.0
  outer loop
    vertex 165.95736741924466 -114.51737276429189 -0.9999999999999978
    vertex 168.34255983701325 -96.40003964108226 0.0
    vertex 168.34255983701325 -96.40003964108226 -0.9999999999999978
  endloop
endfacet
facet normal -0.4067366294736671 -0.9135454636986609 -0.0
  outer loop
    vertex 206.04999540960063 -192.4287417721413 0.0
    vertex 198.06987554665648 -188.8757636393306 -1.0
    vertex 206.04999540960063 -192.4287417721413 -1.0
  endloop
endfacet
facet normal -0.4067366294736671 -0.9135454636986609 -0.0
  outer loop
    vertex 198.06987554665648 -188.8757636393306 -1.0
    vertex 206.04999540960063 -192.4287417721413 0.0
    vertex 198.06987554665648 -188.8757636393306 0.0
  endloop
endfacet
facet normal -0.5877852522914959 -0.8090169943756574 -0.0
  outer loop
    vertex 190.50485791750768 -184.50809874981564 0.0
    vertex 183.43782858747517 -179.37360139489886 -1.0
    vertex 190.50485791750768 -184.50809874981564 -1.0
  endloop
endfacet
facet normal -0.5877852522914959 -0.8090169943756574 -0.0
  outer loop
    vertex 183.43782858747517 -179.37360139489886 -1.0
    vertex 190.50485791750768 -184.50809874981564 0.0
    vertex 183.43782858747517 -179.37360139489886 0.0
  endloop
endfacet
facet normal -0.8660253963406452 0.5000000128930281 0.0
  outer loop
    vertex 165.96664186647166 -69.06486445805571 0.0
    vertex 161.59897742839817 -76.62988091511484 -1.0
    vertex 161.59897742839817 -76.62988091511484 0.0
  endloop
endfacet
facet normal -0.8660253963406452 0.5000000128930281 0.0
  outer loop
    vertex 161.59897742839817 -76.62988091511484 -1.0
    vertex 165.96664186647166 -69.06486445805571 0.0
    vertex 165.96664186647166 -69.06486445805571 -1.0
  endloop
endfacet
facet normal -0.7431448155156557 0.6691306174224896 0.0
  outer loop
    vertex 176.94621518017124 -55.50622100572995 0.0
    vertex 171.1011393266079 -61.99783520446973 -1.0
    vertex 171.1011393266079 -61.99783520446973 0.0
  endloop
endfacet
facet normal -0.7431448155156557 0.6691306174224896 0.0
  outer loop
    vertex 171.1011393266079 -61.99783520446973 -1.0
    vertex 176.94621518017124 -55.50622100572995 0.0
    vertex 176.94621518017124 -55.50622100572995 -1.0
  endloop
endfacet
facet normal 0.30901698021430263 0.9510565208962258 0.0
  outer loop
    vertex 257.5569481261925 -33.90664125790887 0.0
    vertex 265.8647394017999 -36.606006138788615 -1.0
    vertex 257.5569481261925 -33.90664125790887 -1.0
  endloop
endfacet
facet normal 0.30901698021430263 0.9510565208962258 0.0
  outer loop
    vertex 265.8647394017999 -36.606006138788615 -1.0
    vertex 257.5569481261925 -33.90664125790887 0.0
    vertex 265.8647394017999 -36.606006138788615 0.0
  endloop
endfacet
facet normal -0.49999999355218444 -0.8660254075070867 -0.0
  outer loop
    vertex 198.06987554665648 -188.8757636393306 0.0
    vertex 190.50485791750768 -184.50809874981564 -1.0
    vertex 198.06987554665648 -188.8757636393306 -1.0
  endloop
endfacet
facet normal -0.49999999355218444 -0.8660254075070867 -0.0
  outer loop
    vertex 190.50485791750768 -184.50809874981564 -1.0
    vertex 198.06987554665648 -188.8757636393306 0.0
    vertex 190.50485791750768 -184.50809874981564 0.0
  endloop
endfacet
facet normal -0.9135454546150596 0.40673664987576963 0.0
  outer loop
    vertex 161.59897742839817 -76.62988091511484 0.0
    vertex 158.04599861269762 -84.61000183221981 -1.0
    vertex 158.04599861269762 -84.61000183221981 0.0
  endloop
endfacet
facet normal -0.9135454546150596 0.40673664987576963 0.0
  outer loop
    vertex 158.04599861269762 -84.61000183221981 -1.0
    vertex 161.59897742839817 -76.62988091511484 0.0
    vertex 161.59897742839817 -76.62988091511484 -1.0
  endloop
endfacet
facet normal -0.8090169943742337 -0.5877852522934555 -0.0
  outer loop
    vertex 165.96664118984873 -159.9698820222162 0.0
    vertex 171.10113854478266 -167.0369113522363 -1.0
    vertex 171.10113854478266 -167.0369113522363 0.0
  endloop
endfacet
facet normal -0.8090169943742337 -0.5877852522934555 -0.0
  outer loop
    vertex 171.10113854478266 -167.0369113522363 -1.0
    vertex 165.96664118984873 -159.9698820222162 0.0
    vertex 165.96664118984873 -159.9698820222162 -1.0
  endloop
endfacet
facet normal -0.5877852402481637 0.8090170031256503 0.0
  outer loop
    vertex 183.43782955294904 -49.66114534545553 0.0
    vertex 190.50485895941563 -44.52664809574119 -1.0
    vertex 183.43782955294904 -49.66114534545553 -1.0
  endloop
endfacet
facet normal -0.5877852402481637 0.8090170031256503 0.0
  outer loop
    vertex 190.50485895941563 -44.52664809574119 -1.0
    vertex 183.43782955294904 -49.66114534545553 0.0
    vertex 190.50485895941563 -44.52664809574119 0.0
  endloop
endfacet
facet normal -0.49999998710697746 0.8660254112282286 0.0
  outer loop
    vertex 190.50485895941563 -44.52664809574119 0.0
    vertex 198.0698755465226 -40.15898388291735 -1.0
    vertex 190.50485895941563 -44.52664809574119 -1.0
  endloop
endfacet
facet normal -0.49999998710697746 0.8660254112282286 0.0
  outer loop
    vertex 198.0698755465226 -40.15898388291735 -1.0
    vertex 190.50485895941563 -44.52664809574119 0.0
    vertex 198.0698755465226 -40.15898388291735 0.0
  endloop
endfacet
facet normal 0.8660253963406475 -0.5000000128930244 0.0
  outer loop
    vertex 310.3157573830024 -152.40486699581518 -1.0
    vertex 305.94809294492893 -159.96988345287434 0.0
    vertex 305.94809294492893 -159.96988345287434 -1.0
  endloop
endfacet
facet normal 0.8660253963406475 -0.5000000128930244 0.0
  outer loop
    vertex 305.94809294492893 -159.96988345287434 0.0
    vertex 310.3157573830024 -152.40486699581518 -1.0
    vertex 310.3157573830024 -152.40486699581518 0.0
  endloop
endfacet
facet normal -0.3090169802157354 0.9510565208957604 0.0
  outer loop
    vertex 206.0499954094604 -36.60600575009226 0.0
    vertex 214.3577866851107 -33.906640869184756 -1.0
    vertex 206.0499954094604 -36.60600575009226 -1.0
  endloop
endfacet
facet normal -0.3090169802157354 0.9510565208957604 0.0
  outer loop
    vertex 214.3577866851107 -33.906640869184756 -1.0
    vertex 206.0499954094604 -36.60600575009226 0.0
    vertex 214.3577866851107 -33.906640869184756 0.0
  endloop
endfacet
facet normal -0.9135454576421049 -0.4067366430769143 -0.0
  outer loop
    vertex 158.04599861275145 -144.4247456901003 0.0
    vertex 161.59897686439095 -152.40486550013836 -1.0
    vertex 161.59897686439095 -152.40486550013836 0.0
  endloop
endfacet
facet normal -0.9135454576421049 -0.4067366430769143 -0.0
  outer loop
    vertex 161.59897686439095 -152.40486550013836 -1.0
    vertex 158.04599861275145 -144.4247456901003 0.0
    vertex 158.04599861275145 -144.4247456901003 -1.0
  endloop
endfacet
facet normal -0.6691305952952308 0.743144835439129 0.0
  outer loop
    vertex 176.94621518017124 -55.50622100572995 0.0
    vertex 183.43782955294904 -49.66114534545553 -1.0
    vertex 176.94621518017124 -55.50622100572995 -1.0
  endloop
endfacet
facet normal -0.6691305952952308 0.743144835439129 0.0
  outer loop
    vertex 183.43782955294904 -49.66114534545553 -1.0
    vertex 176.94621518017124 -55.50622100572995 0.0
    vertex 183.43782955294904 -49.66114534545553 0.0
  endloop
endfacet
facet normal -0.6691306063579563 -0.7431448254782064 -0.0
  outer loop
    vertex 183.43782858747517 -179.37360139489886 0.0
    vertex 176.94621430170938 -173.52852563798797 -1.0
    vertex 183.43782858747517 -179.37360139489886 -1.0
  endloop
endfacet
facet normal -0.6691306063579563 -0.7431448254782064 -0.0
  outer loop
    vertex 176.94621430170938 -173.52852563798797 -1.0
    vertex 183.43782858747517 -179.37360139489886 0.0
    vertex 176.94621430170938 -173.52852563798797 0.0
  endloop
endfacet
facet normal 0.4999999871069789 -0.8660254112282277 0.0
  outer loop
    vertex 281.4098758519849 -184.50809981518879 0.0
    vertex 273.844859264878 -188.87576402801258 -1.0
    vertex 281.4098758519849 -184.50809981518879 -1.0
  endloop
endfacet
facet normal 0.4999999871069789 -0.8660254112282277 0.0
  outer loop
    vertex 273.844859264878 -188.87576402801258 -1.0
    vertex 281.4098758519849 -184.50809981518879 0.0
    vertex 273.844859264878 -188.87576402801258 0.0
  endloop
endfacet
facet normal 0.587785240248156 -0.8090170031256558 0.0
  outer loop
    vertex 288.47690525845155 -179.3736025654745 0.0
    vertex 281.4098758519849 -184.50809981518879 -1.0
    vertex 288.47690525845155 -179.3736025654745 -1.0
  endloop
endfacet
facet normal 0.587785240248156 -0.8090170031256558 0.0
  outer loop
    vertex 281.4098758519849 -184.50809981518879 -1.0
    vertex 288.47690525845155 -179.3736025654745 0.0
    vertex 281.4098758519849 -184.50809981518879 0.0
  endloop
endfacet
facet normal -3.709621498223889e-18 -8.985008011584242e-19 -1.0
  outer loop
    vertex 168.34255983701325 -96.40003964108226 -0.9999999999999978
    vertex 168.34255932100658 -132.63470595543515 -0.9999999999999978
    vertex 165.95736741924466 -114.51737276429189 -0.9999999999999978
  endloop
endfacet
facet normal -3.709621498223889e-18 -8.985008011584242e-19 -1.0
  outer loop
    vertex 158.04599861269762 -84.61000183221981 -1.0
    vertex 168.34255983701325 -96.40003964108226 -0.9999999999999978
    vertex 155.34663360812488 -92.91779306763696 -1.0
  endloop
endfacet
facet normal -3.709621498223889e-18 -8.985008011584242e-19 -1.0
  outer loop
    vertex 168.34255983701325 -96.40003964108226 -0.9999999999999978
    vertex 158.04599861269762 -84.61000183221981 -1.0
    vertex 161.59897742839817 -76.62988091511484 -1.0
  endloop
endfacet
facet normal -3.709621498223889e-18 -8.985008011584242e-19 -1.0
  outer loop
    vertex 168.34255983701325 -96.40003964108226 -0.9999999999999978
    vertex 161.59897742839817 -76.62988091511484 -1.0
    vertex 165.96664186647166 -69.06486445805571 -1.0
  endloop
endfacet
facet normal -3.709621498223889e-18 -8.985008011584242e-19 -1.0
  outer loop
    vertex 168.34255983701325 -96.40003964108226 -0.9999999999999978
    vertex 165.96664186647166 -69.06486445805571 -1.0
    vertex 171.1011393266079 -61.99783520446973 -1.0
  endloop
endfacet
facet normal -3.709621498223889e-18 -8.985008011584242e-19 -1.0
  outer loop
    vertex 168.34255983701325 -96.40003964108226 -0.9999999999999978
    vertex 171.1011393266079 -61.99783520446973 -1.0
    vertex 171.10113854478266 -167.0369113522363 -1.0
  endloop
endfacet
facet normal -3.709621498223889e-18 -8.985008011584242e-19 -1.0
  outer loop
    vertex 171.10113854478266 -167.0369113522363 -1.0
    vertex 171.1011393266079 -61.99783520446973 -1.0
    vertex 176.94621430170938 -173.52852563798797 -1.0
  endloop
endfacet
facet normal -3.709621498223889e-18 -8.985008011584242e-19 -1.0
  outer loop
    vertex 176.94621430170938 -173.52852563798797 -1.0
    vertex 171.1011393266079 -61.99783520446973 -1.0
    vertex 176.94621518017124 -55.50622100572995 -1.0
  endloop
endfacet
facet normal -3.709621498223889e-18 -8.985008011584242e-19 -1.0
  outer loop
    vertex 176.94621430170938 -173.52852563798797 -1.0
    vertex 176.94621518017124 -55.50622100572995 -1.0
    vertex 183.43782858747517 -179.37360139489886 -1.0
  endloop
endfacet
facet normal -3.709621498223889e-18 -8.985008011584242e-19 -1.0
  outer loop
    vertex 183.43782858747517 -179.37360139489886 -1.0
    vertex 176.94621518017124 -55.50622100572995 -1.0
    vertex 183.43782955294904 -49.66114534545553 -1.0
  endloop
endfacet
facet normal -3.709621498223889e-18 -8.985008011584242e-19 -1.0
  outer loop
    vertex 183.43782858747517 -179.37360139489886 -1.0
    vertex 183.43782955294904 -49.66114534545553 -1.0
    vertex 190.50485791750768 -184.50809874981564 -1.0
  endloop
endfacet
facet normal -3.709621498223889e-18 -8.985008011584242e-19 -1.0
  outer loop
    vertex 190.50485791750768 -184.50809874981564 -1.0
    vertex 183.43782955294904 -49.66114534545553 -1.0
    vertex 190.50485895941563 -44.52664809574119 -1.0
  endloop
endfacet
facet normal -3.709621498223889e-18 -8.985008011584242e-19 -1.0
  outer loop
    vertex 190.50485791750768 -184.50809874981564 -1.0
    vertex 190.50485895941563 -44.52664809574119 -1.0
    vertex 198.06987554665648 -188.8757636393306 -1.0
  endloop
endfacet
facet normal -3.709621498223889e-18 -8.985008011584242e-19 -1.0
  outer loop
    vertex 198.06987554665648 -188.8757636393306 -1.0
    vertex 190.50485895941563 -44.52664809574119 -1.0
    vertex 198.0698755465226 -40.15898388291735 -1.0
  endloop
endfacet
facet normal -3.709621498223889e-18 -8.985008011584242e-19 -1.0
  outer loop
    vertex 198.06987554665648 -188.8757636393306 -1.0
    vertex 198.0698755465226 -40.15898388291735 -1.0
    vertex 206.0499954094604 -36.60600575009226 -1.0
  endloop
endfacet
facet normal -3.709621498223889e-18 -8.985008011584242e-19 -1.0
  outer loop
    vertex 198.06987554665648 -188.8757636393306 -1.0
    vertex 206.0499954094604 -36.60600575009226 -1.0
    vertex 206.04999540960063 -192.4287417721413 -1.0
  endloop
endfacet
facet normal -3.709621498223889e-18 -8.985008011584242e-19 -1.0
  outer loop
    vertex 206.04999540960063 -192.4287417721413 -1.0
    vertex 206.0499954094604 -36.60600575009226 -1.0
    vertex 214.3577866851107 -33.906640869184756 -1.0
  endloop
endfacet
facet normal -3.709621498223889e-18 -8.985008011584242e-19 -1.0
  outer loop
    vertex 206.04999540960063 -192.4287417721413 -1.0
    vertex 214.3577866851107 -33.906640869184756 -1.0
    vertex 214.35778668520808 -195.12810665302098 -1.0
  endloop
endfacet
facet normal -3.709621498223889e-18 -8.985008011584242e-19 -1.0
  outer loop
    vertex 214.35778668520808 -195.12810665302098 -1.0
    vertex 214.3577866851107 -33.906640869184756 -1.0
    vertex 217.84003522494987 -46.90256566290216 -1.0000000000000007
  endloop
endfacet
facet normal -3.709621498223889e-18 -8.985008011584242e-19 -1.0
  outer loop
    vertex 214.35778668520808 -195.12810665302098 -1.0
    vertex 217.84003522494987 -46.90256566290216 -1.0000000000000007
    vertex 217.84003329918662 -182.13218134337168 -1.0
  endloop
endfacet
facet normal -3.709621498223889e-18 -8.985008011584242e-19 -1.0
  outer loop
    vertex 217.84003329918662 -182.13218134337168 -1.0
    vertex 217.84003522494987 -46.90256566290216 -1.0000000000000007
    vertex 235.95736642239632 -184.51737376114028 -1.0
  endloop
endfacet
facet normal -3.709621498223889e-18 -8.985008011584242e-19 -1.0
  outer loop
    vertex 235.95736642239632 -184.51737376114028 -1.0
    vertex 217.84003522494987 -46.90256566290216 -1.0000000000000007
    vertex 235.95736841609306 -44.51737376114031 -1.0000000000000007
  endloop
endfacet
facet normal -3.709621498223889e-18 -8.985008011584242e-19 -1.0
  outer loop
    vertex 235.95736642239632 -184.51737376114028 -1.0
    vertex 235.95736841609306 -44.51737376114031 -1.0000000000000007
    vertex 254.07469961353954 -182.13218185937842 -1.0
  endloop
endfacet
facet normal -3.709621498223889e-18 -8.985008011584242e-19 -1.0
  outer loop
    vertex 254.07469961353954 -182.13218185937842 -1.0
    vertex 235.95736841609306 -44.51737376114031 -1.0000000000000007
    vertex 254.0747015393027 -46.902566178908856 -1.0000000000000007
  endloop
endfacet
facet normal -3.709621498223889e-18 -8.985008011584242e-19 -1.0
  outer loop
    vertex 254.07469961353954 -182.13218185937842 -1.0
    vertex 254.0747015393027 -46.902566178908856 -1.0000000000000007
    vertex 257.55694812628985 -195.12810704174524 -1.0
  endloop
endfacet
facet normal -3.709621498223889e-18 -8.985008011584242e-19 -1.0
  outer loop
    vertex 257.55694812628985 -195.12810704174524 -1.0
    vertex 254.0747015393027 -46.902566178908856 -1.0000000000000007
    vertex 257.5569481261925 -33.90664125790887 -1.0
  endloop
endfacet
facet normal -3.709621498223889e-18 -8.985008011584242e-19 -1.0
  outer loop
    vertex 257.55694812628985 -195.12810704174524 -1.0
    vertex 257.5569481261925 -33.90664125790887 -1.0
    vertex 265.8647394017999 -36.606006138788615 -1.0
  endloop
endfacet
facet normal -3.709621498223889e-18 -8.985008011584242e-19 -1.0
  outer loop
    vertex 257.55694812628985 -195.12810704174524 -1.0
    vertex 265.8647394017999 -36.606006138788615 -1.0
    vertex 265.86473940194014 -192.42874216083763 -1.0
  endloop
endfacet
facet normal -3.709621498223889e-18 -8.985008011584242e-19 -1.0
  outer loop
    vertex 265.86473940194014 -192.42874216083763 -1.0
    vertex 265.8647394017999 -36.606006138788615 -1.0
    vertex 273.84485926474406 -40.15898427159936 -1.0
  endloop
endfacet
facet normal -3.709621498223889e-18 -8.985008011584242e-19 -1.0
  outer loop
    vertex 265.86473940194014 -192.42874216083763 -1.0
    vertex 273.84485926474406 -40.15898427159936 -1.0
    vertex 273.844859264878 -188.87576402801258 -1.0
  endloop
endfacet
facet normal -3.709621498223889e-18 -8.985008011584242e-19 -1.0
  outer loop
    vertex 273.844859264878 -188.87576402801258 -1.0
    vertex 273.84485926474406 -40.15898427159936 -1.0
    vertex 281.40987689389294 -44.526649161114264 -1.0
  endloop
endfacet
facet normal -3.709621498223889e-18 -8.985008011584242e-19 -1.0
  outer loop
    vertex 273.844859264878 -188.87576402801258 -1.0
    vertex 281.40987689389294 -44.526649161114264 -1.0
    vertex 281.4098758519849 -184.50809981518879 -1.0
  endloop
endfacet
facet normal -3.709621498223889e-18 -8.985008011584242e-19 -1.0
  outer loop
    vertex 281.4098758519849 -184.50809981518879 -1.0
    vertex 281.40987689389294 -44.526649161114264 -1.0
    vertex 288.47690525845155 -179.3736025654745 -1.0
  endloop
endfacet
facet normal -3.709621498223889e-18 -8.985008011584242e-19 -1.0
  outer loop
    vertex 288.47690525845155 -179.3736025654745 -1.0
    vertex 281.40987689389294 -44.526649161114264 -1.0
    vertex 288.47690622392537 -49.66114651603107 -1.0
  endloop
endfacet
facet normal -3.709621498223889e-18 -8.985008011584242e-19 -1.0
  outer loop
    vertex 288.47690525845155 -179.3736025654745 -1.0
    vertex 288.47690622392537 -49.66114651603107 -1.0
    vertex 294.96851963122924 -173.52852690520007 -1.0
  endloop
endfacet
facet normal -3.709621498223889e-18 -8.985008011584242e-19 -1.0
  outer loop
    vertex 294.96851963122924 -173.52852690520007 -1.0
    vertex 288.47690622392537 -49.66114651603107 -1.0
    vertex 294.9685205096912 -55.506222272941955 -1.0
  endloop
endfacet
facet normal -3.709621498223889e-18 -8.985008011584242e-19 -1.0
  outer loop
    vertex 294.96851963122924 -173.52852690520007 -1.0
    vertex 294.9685205096912 -55.506222272941955 -1.0
    vertex 300.81359548479264 -167.03691270646036 -1.0
  endloop
endfacet
facet normal -3.709621498223889e-18 -8.985008011584242e-19 -1.0
  outer loop
    vertex 300.81359548479264 -167.03691270646036 -1.0
    vertex 294.9685205096912 -55.506222272941955 -1.0
    vertex 300.8135962666179 -61.997836558693656 -1.0
  endloop
endfacet
facet normal -3.709621498223889e-18 -8.985008011584242e-19 -1.0
  outer loop
    vertex 300.81359548479264 -167.03691270646036 -1.0
    vertex 300.8135962666179 -61.997836558693656 -1.0
    vertex 303.5721750014761 -132.63470788119835 -1.0
  endloop
endfacet
facet normal -3.709621498223889e-18 -8.985008011584242e-19 -1.0
  outer loop
    vertex 300.81359548479264 -167.03691270646036 -1.0
    vertex 303.5721750014761 -132.63470788119835 -1.0
    vertex 305.94809294492893 -159.96988345287434 -1.0
  endloop
endfacet
facet normal -3.709621498223889e-18 -8.985008011584242e-19 -1.0
  outer loop
    vertex 305.94809294492893 -159.96988345287434 -1.0
    vertex 303.5721750014761 -132.63470788119835 -1.0
    vertex 316.5681012032757 -136.11695484329303 -1.0
  endloop
endfacet
facet normal -3.709621498223889e-18 -8.985008011584242e-19 -1.0
  outer loop
    vertex 305.94809294492893 -159.96988345287434 -1.0
    vertex 316.5681012032757 -136.11695484329303 -1.0
    vertex 310.3157573830024 -152.40486699581518 -1.0
  endloop
endfacet
facet normal -3.709621498223889e-18 -8.985008011584242e-19 -1.0
  outer loop
    vertex 310.3157573830024 -152.40486699581518 -1.0
    vertex 316.5681012032757 -136.11695484329303 -1.0
    vertex 313.8687361987029 -144.4247460787102 -1.0
  endloop
endfacet
facet normal -3.709621498223889e-18 -8.985008011584242e-19 -1.0
  outer loop
    vertex 168.34255932100658 -132.63470595543515 -0.9999999999999978
    vertex 158.04599861275145 -144.4247456901003 -1.0
    vertex 155.34663360816376 -136.11695445468803 -1.0
  endloop
endfacet
facet normal -3.709621498223889e-18 -8.985008011584242e-19 -1.0
  outer loop
    vertex 158.04599861275145 -144.4247456901003 -1.0
    vertex 168.34255932100658 -132.63470595543515 -0.9999999999999978
    vertex 161.59897686439095 -152.40486550013836 -1.0
  endloop
endfacet
facet normal -3.709621498223889e-18 -8.985008011584242e-19 -1.0
  outer loop
    vertex 161.59897686439095 -152.40486550013836 -1.0
    vertex 168.34255932100658 -132.63470595543515 -0.9999999999999978
    vertex 165.96664118984873 -159.9698820222162 -1.0
  endloop
endfacet
facet normal -3.709621498223889e-18 -8.985008011584242e-19 -1.0
  outer loop
    vertex 165.96664118984873 -159.9698820222162 -1.0
    vertex 168.34255932100658 -132.63470595543515 -0.9999999999999978
    vertex 171.10113854478266 -167.0369113522363 -1.0
  endloop
endfacet
facet normal -3.709621498223889e-18 -8.985008011584242e-19 -1.0
  outer loop
    vertex 171.10113854478266 -167.0369113522363 -1.0
    vertex 168.34255932100658 -132.63470595543515 -0.9999999999999978
    vertex 168.34255983701325 -96.40003964108226 -0.9999999999999978
  endloop
endfacet
facet normal -3.709621498223889e-18 -8.985008011584242e-19 -1.0
  outer loop
    vertex 300.8135962666179 -61.997836558693656 -1.0
    vertex 303.57217551748283 -96.40004156684546 -1.0
    vertex 303.5721750014761 -132.63470788119835 -1.0
  endloop
endfacet
facet normal -3.709621498223889e-18 -8.985008011584242e-19 -1.0
  outer loop
    vertex 303.57217551748283 -96.40004156684546 -1.0
    vertex 300.8135962666179 -61.997836558693656 -1.0
    vertex 305.9480936215519 -69.06486588871384 -1.0
  endloop
endfacet
facet normal -3.709621498223889e-18 -8.985008011584242e-19 -1.0
  outer loop
    vertex 303.57217551748283 -96.40004156684546 -1.0
    vertex 305.9480936215519 -69.06486588871384 -1.0
    vertex 316.5681012032369 -92.9177934562421 -1.0
  endloop
endfacet
facet normal -3.709621498223889e-18 -8.985008011584242e-19 -1.0
  outer loop
    vertex 316.5681012032369 -92.9177934562421 -1.0
    vertex 305.9480936215519 -69.06486588871384 -1.0
    vertex 310.3157579470096 -76.6298824107916 -1.0
  endloop
endfacet
facet normal -3.709621498223889e-18 -8.985008011584242e-19 -1.0
  outer loop
    vertex 316.5681012032369 -92.9177934562421 -1.0
    vertex 310.3157579470096 -76.6298824107916 -1.0
    vertex 313.8687361986491 -84.61000222082971 -1.0
  endloop
endfacet
facet normal -3.709621498223889e-18 -8.985008011584242e-19 -1.0
  outer loop
    vertex 305.9573674192447 -114.51737475798868 -1.0
    vertex 303.5721750014761 -132.63470788119835 -1.0
    vertex 303.57217551748283 -96.40004156684546 -1.0
  endloop
endfacet
facet normal 0.6691305952952397 -0.743144835439121 0.0
  outer loop
    vertex 294.96851963122924 -173.52852690520007 0.0
    vertex 288.47690525845155 -179.3736025654745 -1.0
    vertex 294.96851963122924 -173.52852690520007 -1.0
  endloop
endfacet
facet normal 0.6691305952952397 -0.743144835439121 0.0
  outer loop
    vertex 288.47690525845155 -179.3736025654745 -1.0
    vertex 294.96851963122924 -173.52852690520007 0.0
    vertex 288.47690525845155 -179.3736025654745 0.0
  endloop
endfacet
facet normal 0.7431448155156507 -0.6691306174224951 0.0
  outer loop
    vertex 300.81359548479264 -167.03691270646036 -1.0
    vertex 294.96851963122924 -173.52852690520007 0.0
    vertex 294.96851963122924 -173.52852690520007 -1.0
  endloop
endfacet
facet normal 0.7431448155156507 -0.6691306174224951 0.0
  outer loop
    vertex 294.96851963122924 -173.52852690520007 0.0
    vertex 300.81359548479264 -167.03691270646036 -1.0
    vertex 300.81359548479264 -167.03691270646036 0.0
  endloop
endfacet
facet normal -0.8090169856242483 0.5877852643367771 0.0
  outer loop
    vertex 171.1011393266079 -61.99783520446973 0.0
    vertex 165.96664186647166 -69.06486445805571 -1.0
    vertex 165.96664186647166 -69.06486445805571 0.0
  endloop
endfacet
facet normal -0.8090169856242483 0.5877852643367771 0.0
  outer loop
    vertex 165.96664186647166 -69.06486445805571 -1.0
    vertex 171.1011393266079 -61.99783520446973 0.0
    vertex 171.1011393266079 -61.99783520446973 -1.0
  endloop
endfacet
facet normal 0.4067366294753037 -0.913545463697932 0.0
  outer loop
    vertex 273.844859264878 -188.87576402801258 0.0
    vertex 265.86473940194014 -192.42874216083763 -1.0
    vertex 273.844859264878 -188.87576402801258 -1.0
  endloop
endfacet
facet normal 0.4067366294753037 -0.913545463697932 0.0
  outer loop
    vertex 265.86473940194014 -192.42874216083763 -1.0
    vertex 273.844859264878 -188.87576402801258 0.0
    vertex 265.86473940194014 -192.42874216083763 0.0
  endloop
endfacet
facet normal -0.3090169802142971 -0.9510565208962278 0.0
  outer loop
    vertex 214.35778668520808 -195.12810665302098 0.0
    vertex 206.04999540960063 -192.4287417721413 -1.0
    vertex 214.35778668520808 -195.12810665302098 -1.0
  endloop
endfacet
facet normal -0.3090169802142971 -0.9510565208962278 0.0
  outer loop
    vertex 206.04999540960063 -192.4287417721413 -1.0
    vertex 214.35778668520808 -195.12810665302098 0.0
    vertex 206.04999540960063 -192.4287417721413 0.0
  endloop
endfacet
facet normal -0.8660254037838359 -0.5000000000010443 -0.0
  outer loop
    vertex 161.59897686439095 -152.40486550013836 0.0
    vertex 165.96664118984873 -159.9698820222162 -1.0
    vertex 165.96664118984873 -159.9698820222162 0.0
  endloop
endfacet
facet normal -0.8660254037838359 -0.5000000000010443 -0.0
  outer loop
    vertex 165.96664118984873 -159.9698820222162 -1.0
    vertex 161.59897686439095 -152.40486550013836 0.0
    vertex 161.59897686439095 -152.40486550013836 -1.0
  endloop
endfacet
facet normal -0.7431448254765809 -0.6691306063597615 -0.0
  outer loop
    vertex 171.10113854478266 -167.0369113522363 0.0
    vertex 176.94621430170938 -173.52852563798797 -1.0
    vertex 176.94621430170938 -173.52852563798797 0.0
  endloop
endfacet
facet normal -0.7431448254765809 -0.6691306063597615 -0.0
  outer loop
    vertex 176.94621430170938 -173.52852563798797 -1.0
    vertex 171.10113854478266 -167.0369113522363 0.0
    vertex 171.10113854478266 -167.0369113522363 -1.0
  endloop
endfacet
facet normal -0.9510565162953349 0.3090169943743896 0.0
  outer loop
    vertex 158.04599861269762 -84.61000183221981 0.0
    vertex 155.34663360812488 -92.91779306763696 -1.0
    vertex 155.34663360812488 -92.91779306763696 0.0
  endloop
endfacet
facet normal -0.9510565162953349 0.3090169943743896 0.0
  outer loop
    vertex 155.34663360812488 -92.91779306763696 -1.0
    vertex 158.04599861269762 -84.61000183221981 0.0
    vertex 158.04599861269762 -84.61000183221981 -1.0
  endloop
endfacet
facet normal -0.40673662947531164 0.9135454636979286 0.0
  outer loop
    vertex 198.0698755465226 -40.15898388291735 0.0
    vertex 206.0499954094604 -36.60600575009226 -1.0
    vertex 198.0698755465226 -40.15898388291735 -1.0
  endloop
endfacet
facet normal -0.40673662947531164 0.9135454636979286 0.0
  outer loop
    vertex 206.0499954094604 -36.60600575009226 -1.0
    vertex 198.0698755465226 -40.15898388291735 0.0
    vertex 206.0499954094604 -36.60600575009226 0.0
  endloop
endfacet
facet normal -0.9510565162947786 -0.3090169943761012 0.0
  outer loop
    vertex 155.34663360816376 -136.11695445468803 0.0
    vertex 158.04599861275145 -144.4247456901003 -1.0
    vertex 158.04599861275145 -144.4247456901003 0.0
  endloop
endfacet
facet normal -0.9510565162947786 -0.3090169943761012 0.0
  outer loop
    vertex 158.04599861275145 -144.4247456901003 -1.0
    vertex 155.34663360816376 -136.11695445468803 0.0
    vertex 155.34663360816376 -136.11695445468803 -1.0
  endloop
endfacet
facet normal 0.309016980215745 -0.9510565208957572 0.0
  outer loop
    vertex 265.86473940194014 -192.42874216083763 0.0
    vertex 257.55694812628985 -195.12810704174524 -1.0
    vertex 265.86473940194014 -192.42874216083763 -1.0
  endloop
endfacet
facet normal 0.309016980215745 -0.9510565208957572 0.0
  outer loop
    vertex 257.55694812628985 -195.12810704174524 -1.0
    vertex 265.86473940194014 -192.42874216083763 0.0
    vertex 257.55694812628985 -195.12810704174524 0.0
  endloop
endfacet
facet normal 0.8090169856242454 -0.587785264336781 0.0
  outer loop
    vertex 305.94809294492893 -159.96988345287434 -1.0
    vertex 300.81359548479264 -167.03691270646036 0.0
    vertex 300.81359548479264 -167.03691270646036 -1.0
  endloop
endfacet
facet normal 0.8090169856242454 -0.587785264336781 0.0
  outer loop
    vertex 300.81359548479264 -167.03691270646036 0.0
    vertex 305.94809294492893 -159.96988345287434 -1.0
    vertex 305.94809294492893 -159.96988345287434 0.0
  endloop
endfacet
facet normal 0.8660254037838354 0.5000000000010448 0.0
  outer loop
    vertex 305.9480936215519 -69.06486588871384 -1.0
    vertex 310.3157579470096 -76.6298824107916 0.0
    vertex 310.3157579470096 -76.6298824107916 -1.0
  endloop
endfacet
facet normal 0.8660254037838354 0.5000000000010448 0.0
  outer loop
    vertex 310.3157579470096 -76.6298824107916 0.0
    vertex 305.9480936215519 -69.06486588871384 -1.0
    vertex 305.9480936215519 -69.06486588871384 0.0
  endloop
endfacet
facet normal 0.40673662947367023 0.9135454636986592 0.0
  outer loop
    vertex 265.8647394017999 -36.606006138788615 0.0
    vertex 273.84485926474406 -40.15898427159936 -1.0
    vertex 265.8647394017999 -36.606006138788615 -1.0
  endloop
endfacet
facet normal 0.40673662947367023 0.9135454636986592 0.0
  outer loop
    vertex 273.84485926474406 -40.15898427159936 -1.0
    vertex 265.8647394017999 -36.606006138788615 0.0
    vertex 273.84485926474406 -40.15898427159936 0.0
  endloop
endfacet
facet normal 0.9135454576421064 0.40673664307691143 0.0
  outer loop
    vertex 310.3157579470096 -76.6298824107916 -1.0
    vertex 313.8687361986491 -84.61000222082971 0.0
    vertex 313.8687361986491 -84.61000222082971 -1.0
  endloop
endfacet
facet normal 0.9135454576421064 0.40673664307691143 0.0
  outer loop
    vertex 313.8687361986491 -84.61000222082971 0.0
    vertex 310.3157579470096 -76.6298824107916 -1.0
    vertex 310.3157579470096 -76.6298824107916 0.0
  endloop
endfacet
facet normal 0.1305262063389105 0.9914448595150273 0.0
  outer loop
    vertex 235.95736841609306 -44.51737376114031 0.0
    vertex 254.0747015393027 -46.902566178908856 -1.0000000000000007
    vertex 235.95736841609306 -44.51737376114031 -1.0000000000000007
  endloop
endfacet
facet normal 0.1305262063389105 0.9914448595150273 0.0
  outer loop
    vertex 254.0747015393027 -46.902566178908856 -1.0000000000000007
    vertex 235.95736841609306 -44.51737376114031 0.0
    vertex 254.0747015393027 -46.902566178908856 0.0
  endloop
endfacet
facet normal 0.25881906716929604 -0.9659258203762934 0.0
  outer loop
    vertex 316.5681012032369 -92.9177934562421 0.0
    vertex 303.57217551748283 -96.40004156684546 -1.0
    vertex 316.5681012032369 -92.9177934562421 -1.0
  endloop
endfacet
facet normal 0.25881906716929604 -0.9659258203762934 0.0
  outer loop
    vertex 303.57217551748283 -96.40004156684546 -1.0
    vertex 316.5681012032369 -92.9177934562421 0.0
    vertex 303.57217551748283 -96.40004156684546 0.0
  endloop
endfacet
facet normal 0.25881896472907834 0.9659258478250637 0.0
  outer loop
    vertex 303.5721750014761 -132.63470788119835 0.0
    vertex 316.5681012032757 -136.11695484329303 -1.0
    vertex 303.5721750014761 -132.63470788119835 -1.0
  endloop
endfacet
facet normal 0.25881896472907834 0.9659258478250637 0.0
  outer loop
    vertex 316.5681012032757 -136.11695484329303 -1.0
    vertex 303.5721750014761 -132.63470788119835 0.0
    vertex 316.5681012032757 -136.11695484329303 0.0
  endloop
endfacet
facet normal 0.9659258079592062 0.25881911351048764 6.03082734526228e-17
  outer loop
    vertex 214.3577866851107 -33.906640869184756 -1.0
    vertex 217.84003522494987 -46.90256566290216 0.0
    vertex 217.84003522494987 -46.90256566290216 -1.0000000000000007
  endloop
endfacet
facet normal 0.9659258079592062 0.25881911351048764 6.03082734526228e-17
  outer loop
    vertex 217.84003522494987 -46.90256566290216 0.0
    vertex 214.3577866851107 -33.906640869184756 -1.0
    vertex 214.3577866851107 -33.906640869184756 0.0
  endloop
endfacet
facet normal -0.9659258448813072 0.2588189757153312 6.030896903042012e-17
  outer loop
    vertex 257.5569481261925 -33.90664125790887 0.0
    vertex 254.0747015393027 -46.902566178908856 -1.0000000000000007
    vertex 254.0747015393027 -46.902566178908856 0.0
  endloop
endfacet
facet normal -0.9659258448813072 0.2588189757153312 6.030896903042012e-17
  outer loop
    vertex 254.0747015393027 -46.902566178908856 -1.0000000000000007
    vertex 257.5569481261925 -33.90664125790887 0.0
    vertex 257.5569481261925 -33.90664125790887 -1.0
  endloop
endfacet
facet normal 0.9914448632325938 0.13052617810118933 0.0
  outer loop
    vertex 303.57217551748283 -96.40004156684546 -1.0
    vertex 305.9573674192447 -114.51737475798868 0.0
    vertex 305.9573674192447 -114.51737475798868 -1.0
  endloop
endfacet
facet normal 0.9914448632325938 0.13052617810118933 0.0
  outer loop
    vertex 305.9573674192447 -114.51737475798868 0.0
    vertex 303.57217551748283 -96.40004156684546 -1.0
    vertex 303.57217551748283 -96.40004156684546 0.0
  endloop
endfacet
facet normal -0.13052617810119066 0.9914448632325937 0.0
  outer loop
    vertex 217.84003522494987 -46.90256566290216 0.0
    vertex 235.95736841609306 -44.51737376114031 -1.0000000000000007
    vertex 217.84003522494987 -46.90256566290216 -1.0000000000000007
  endloop
endfacet
facet normal -0.13052617810119066 0.9914448632325937 0.0
  outer loop
    vertex 235.95736841609306 -44.51737376114031 -1.0000000000000007
    vertex 217.84003522494987 -46.90256566290216 0.0
    vertex 235.95736841609306 -44.51737376114031 0.0
  endloop
endfacet
endsolid Framework
