solid Framework
facet normal 1.820271336033933e-15 0.9999999999999997 2.980232547063906e-08
  outer loop
    vertex -103.7181529974327 -208.54152910670643 4.834571994356931
    vertex -106.7554008156991 -208.54152910716613 4.850000060694637
    vertex -103.75540081569913 -208.54152910716638 4.8500005388956815
  endloop
endfacet
facet normal 1.820271336033933e-15 0.9999999999999997 2.980232547063906e-08
  outer loop
    vertex -106.7554008156991 -208.54152910716613 4.850000060694637
    vertex -103.7181529974327 -208.54152910670643 4.834571994356931
    vertex -106.7181529974327 -208.54152910670652 4.834571516155841
  endloop
endfacet
facet normal 1.820271336033933e-15 0.9999999999999997 2.980232547063906e-08
  outer loop
    vertex -106.7181529974327 -208.54152910670652 4.834571516155841
    vertex -103.7181529974327 -208.54152910670643 4.834571994356931
    vertex -102.92070243651362 -208.54152908847013 4.222666859342121
  endloop
endfacet
facet normal 1.820271336033933e-15 0.9999999999999997 2.980232547063906e-08
  outer loop
    vertex -106.7181529974327 -208.54152910670652 4.834571516155841
    vertex -102.92070243651362 -208.54152908847013 4.222666859342121
    vertex -105.92070243651358 -208.54152908847033 4.222666381141076
  endloop
endfacet
facet normal 1.820271336033933e-15 0.9999999999999997 2.980232547063906e-08
  outer loop
    vertex -105.92070243651358 -208.54152908847033 4.222666381141076
    vertex -102.92070243651362 -208.54152908847013 4.222666859342121
    vertex -102.3087970472714 -208.54152906470426 3.425216493499234
  endloop
endfacet
facet normal 1.820271336033933e-15 0.9999999999999997 2.980232547063906e-08
  outer loop
    vertex -105.92070243651358 -208.54152908847033 4.222666381141076
    vertex -102.3087970472714 -208.54152906470426 3.425216493499234
    vertex -105.30879704727134 -208.5415290647045 3.4252160152981888
  endloop
endfacet
facet normal 1.820271336033933e-15 0.9999999999999997 2.980232547063906e-08
  outer loop
    vertex -105.30879704727134 -208.5415290647045 3.4252160152981888
    vertex -102.3087970472714 -208.54152906470426 3.425216493499234
    vertex -101.92413717076093 -208.54152903702854 2.4965658214112305
  endloop
endfacet
facet normal 1.820271336033933e-15 0.9999999999999997 2.980232547063906e-08
  outer loop
    vertex -105.30879704727134 -208.5415290647045 3.4252160152981888
    vertex -101.92413717076093 -208.54152903702854 2.4965658214112305
    vertex -104.92413717076084 -208.5415290370283 2.4965653432102086
  endloop
endfacet
facet normal 1.820271336033933e-15 0.9999999999999997 2.980232547063906e-08
  outer loop
    vertex -104.92413717076084 -208.5415290370283 2.4965653432102086
    vertex -101.92413717076093 -208.54152903702854 2.4965658214112305
    vertex -104.79293674188587 -208.5415290073286 1.5000003735120164
  endloop
endfacet
facet normal 1.820271336033933e-15 0.9999999999999997 2.980232547063906e-08
  outer loop
    vertex -104.79293674188587 -208.5415290073286 1.5000003735120164
    vertex -101.92413717076093 -208.54152903702854 2.4965658214112305
    vertex -101.79293674188598 -208.54152900732845 1.5000008517130619
  endloop
endfacet
facet normal 1.820271336033933e-15 0.9999999999999997 2.980232547063906e-08
  outer loop
    vertex -104.79293674188587 -208.5415290073286 1.5000003735120164
    vertex -101.79293674188598 -208.54152900732845 1.5000008517130619
    vertex -101.92413685305534 -208.54152897762862 0.5034358401880639
  endloop
endfacet
facet normal 1.820271336033933e-15 0.9999999999999997 2.980232547063906e-08
  outer loop
    vertex -104.79293674188587 -208.5415290073286 1.5000003735120164
    vertex -101.92413685305534 -208.54152897762862 0.5034358401880639
    vertex -104.92413685305527 -208.54152897762845 0.5034353619870185
  endloop
endfacet
facet normal 1.820271336033933e-15 0.9999999999999997 2.980232547063906e-08
  outer loop
    vertex -104.92413685305527 -208.54152897762845 0.5034353619870185
    vertex -101.92413685305534 -208.54152897762862 0.5034358401880639
    vertex -102.30879643351132 -208.54152894995244 -0.42521495452963654
  endloop
endfacet
facet normal 1.820271336033933e-15 0.9999999999999997 2.980232547063906e-08
  outer loop
    vertex -104.92413685305527 -208.54152897762845 0.5034353619870185
    vertex -102.30879643351132 -208.54152894995244 -0.42521495452963654
    vertex -105.30879643351125 -208.54152894995264 -0.425215432730728
  endloop
endfacet
facet normal 1.820271336033933e-15 0.9999999999999997 2.980232547063906e-08
  outer loop
    vertex -105.30879643351125 -208.54152894995264 -0.425215432730728
    vertex -102.30879643351132 -208.54152894995244 -0.42521495452963654
    vertex -102.92070156852581 -208.54152892618657 -1.2226655154483028
  endloop
endfacet
facet normal 1.820271336033933e-15 0.9999999999999997 2.980232547063906e-08
  outer loop
    vertex -105.30879643351125 -208.54152894995264 -0.425215432730728
    vertex -102.92070156852581 -208.54152892618657 -1.2226655154483028
    vertex -105.92070156852576 -208.54152892618671 -1.2226659936493935
  endloop
endfacet
facet normal 1.820271336033933e-15 0.9999999999999997 2.980232547063906e-08
  outer loop
    vertex -105.92070156852576 -208.54152892618671 -1.2226659936493935
    vertex -102.92070156852581 -208.54152892618657 -1.2226655154483028
    vertex -103.71815193436865 -208.5415289079504 -1.8345709046905525
  endloop
endfacet
facet normal 1.820271336033933e-15 0.9999999999999997 2.980232547063906e-08
  outer loop
    vertex -105.92070156852576 -208.54152892618671 -1.2226659936493935
    vertex -103.71815193436865 -208.5415289079504 -1.8345709046905525
    vertex -106.71815193436859 -208.54152890795052 -1.834571382891597
  endloop
endfacet
facet normal 1.820271336033933e-15 0.9999999999999997 2.980232547063906e-08
  outer loop
    vertex -106.71815193436859 -208.54152890795052 -1.834571382891597
    vertex -103.71815193436865 -208.5415289079504 -1.8345709046905525
    vertex -103.7553997477171 -208.54152890749074 -1.8499994611042552
  endloop
endfacet
facet normal 1.820271336033933e-15 0.9999999999999997 2.980232547063906e-08
  outer loop
    vertex -106.71815193436859 -208.54152890795052 -1.834571382891597
    vertex -103.7553997477171 -208.54152890749074 -1.8499994611042552
    vertex -106.75539974771709 -208.5415289074906 -1.8499999393052782
  endloop
endfacet
facet normal 0.38268328509810834 -2.7533760729009133e-08 0.9238795935112536
  outer loop
    vertex -103.7181529974327 -208.54152910670643 4.834571994356931
    vertex -103.75540081569908 -220.65776824617592 4.850000177803552
    vertex -103.71815299743265 -220.65776824571608 4.834571633264802
  endloop
endfacet
facet normal 0.38268328509810834 -2.7533760729009133e-08 0.9238795935112536
  outer loop
    vertex -103.75540081569908 -220.65776824617592 4.850000177803552
    vertex -103.7181529974327 -208.54152910670643 4.834571994356931
    vertex -103.75540081569913 -208.54152910716638 4.8500005388956815
  endloop
endfacet
facet normal -0.7933534373280053 -1.8142506644865387e-08 0.6087613025479185
  outer loop
    vertex -114.36603481130402 -208.54152908847036 4.222665034952154
    vertex -114.97793994631847 -220.65776820371406 3.425214112941359
    vertex -114.36603481130398 -220.65776822747992 4.222664673860025
  endloop
endfacet
facet normal -0.7933534373280053 -1.8142506644865387e-08 0.6087613025479185
  outer loop
    vertex -114.97793994631847 -220.65776820371406 3.425214112941359
    vertex -114.36603481130402 -208.54152908847036 4.222665034952154
    vertex -114.97793994631853 -208.5415290647045 3.425214474033489
  endloop
endfacet
facet normal 0.3826835796323167 2.7533760468414603e-08 -0.92387947151119
  outer loop
    vertex -103.75539974771706 -220.6577680465003 -1.8499998221963845
    vertex -103.71815193436865 -208.5415289079504 -1.8345709046905525
    vertex -103.71815193436859 -220.6577680469601 -1.8345712657826818
  endloop
endfacet
facet normal 0.3826835796323167 2.7533760468414603e-08 -0.92387947151119
  outer loop
    vertex -103.71815193436865 -208.5415289079504 -1.8345709046905525
    vertex -103.75539974771706 -220.6577680465003 -1.8499998221963845
    vertex -103.7553997477171 -208.54152890749074 -1.8499994611042552
  endloop
endfacet
facet normal 1.594003489553223e-07 2.9802326303173966e-08 -0.999999999999987
  outer loop
    vertex -106.75539974771709 -205.38014616645108 -1.8499998450887372
    vertex -107.03989172476861 -200.38014616645108 -1.8499997414252416
    vertex -106.47090777066511 -205.38014616645108 -1.8499997997406397
  endloop
endfacet
facet normal 1.594003489553223e-07 2.9802326303173966e-08 -0.999999999999987
  outer loop
    vertex -107.03989172476861 -200.38014616645108 -1.8499997414252416
    vertex -106.75539974771709 -205.38014616645108 -1.8499998450887372
    vertex -106.75539974771709 -208.5415289074906 -1.8499999393052782
  endloop
endfacet
facet normal 1.594003489553223e-07 2.9802326303173966e-08 -0.999999999999987
  outer loop
    vertex -110.24684358707862 -200.38014616645108 -1.8500002526144848
    vertex -109.39336765592361 -200.3801461664511 -1.8500001165701248
    vertex -109.39336765592368 -208.54152890749066 -1.8500003597983048
  endloop
endfacet
facet normal 1.594003489553223e-07 2.9802326303173966e-08 -0.999999999999987
  outer loop
    vertex -113.53133556413033 -220.65776804650002 -1.8500013804839592
    vertex -103.7553997477171 -208.54152890749074 -1.8499994611042552
    vertex -103.75539974771706 -220.6577680465003 -1.8499998221963845
  endloop
endfacet
facet normal 1.594003489553223e-07 2.9802326303173966e-08 -0.999999999999987
  outer loop
    vertex -103.7553997477171 -208.54152890749074 -1.8499994611042552
    vertex -113.53133556413033 -220.65776804650002 -1.8500013804839592
    vertex -106.75539974771709 -208.5415289074906 -1.8499999393052782
  endloop
endfacet
facet normal 1.594003489553223e-07 2.9802326303173966e-08 -0.999999999999987
  outer loop
    vertex -106.75539974771709 -208.5415289074906 -1.8499999393052782
    vertex -113.53133556413033 -220.65776804650002 -1.8500013804839592
    vertex -107.8933676559234 -208.5415289074906 -1.8500001206977355
  endloop
endfacet
facet normal 1.594003489553223e-07 2.9802326303173966e-08 -0.999999999999987
  outer loop
    vertex -106.75539974771709 -208.5415289074906 -1.8499999393052782
    vertex -107.8933676559234 -208.5415289074906 -1.8500001206977355
    vertex -107.03989172476861 -200.38014616645108 -1.8499997414252416
  endloop
endfacet
facet normal 1.594003489553223e-07 2.9802326303173966e-08 -0.999999999999987
  outer loop
    vertex -107.8933676559234 -208.5415289074906 -1.8500001206977355
    vertex -113.53133556413033 -220.65776804650002 -1.8500013804839592
    vertex -109.39336765592368 -208.54152890749066 -1.8500003597983048
  endloop
endfacet
facet normal 1.594003489553223e-07 2.9802326303173966e-08 -0.999999999999987
  outer loop
    vertex -109.39336765592368 -208.54152890749066 -1.8500003597983048
    vertex -113.53133556413033 -220.65776804650002 -1.8500013804839592
    vertex -110.53133556413042 -208.54152890749066 -1.8500005411907852
  endloop
endfacet
facet normal 1.594003489553223e-07 2.9802326303173966e-08 -0.999999999999987
  outer loop
    vertex -109.39336765592368 -208.54152890749066 -1.8500003597983048
    vertex -110.53133556413042 -208.54152890749066 -1.8500005411907852
    vertex -110.24684358707862 -200.38014616645108 -1.8500002526144848
  endloop
endfacet
facet normal 1.594003489553223e-07 2.9802326303173966e-08 -0.999999999999987
  outer loop
    vertex -110.53133556413042 -208.54152890749066 -1.8500005411907852
    vertex -113.53133556413033 -220.65776804650002 -1.8500013804839592
    vertex -113.53133556413039 -208.5415289074905 -1.85000101939183
  endloop
endfacet
facet normal 1.594003489553223e-07 2.9802326303173966e-08 -0.999999999999987
  outer loop
    vertex -110.24684358707862 -200.38014616645108 -1.8500002526144848
    vertex -110.53133556413044 -205.3801461664509 -1.8500004469742213
    vertex -110.81582754118207 -205.38014616645103 -1.8500004923223647
  endloop
endfacet
facet normal 1.594003489553223e-07 2.9802326303173966e-08 -0.999999999999987
  outer loop
    vertex -110.53133556413044 -205.3801461664509 -1.8500004469742213
    vertex -110.24684358707862 -200.38014616645108 -1.8500002526144848
    vertex -110.53133556413042 -208.54152890749066 -1.8500005411907852
  endloop
endfacet
facet normal 1.594003489553223e-07 2.9802326303173966e-08 -0.999999999999987
  outer loop
    vertex -107.89336765592364 -200.3801461664509 -1.8499998774696016
    vertex -107.03989172476861 -200.38014616645108 -1.8499997414252416
    vertex -107.8933676559234 -208.5415289074906 -1.8500001206977355
  endloop
endfacet
facet normal -0.3826835796317433 -2.7533760302820003e-08 0.9238794715114275
  outer loop
    vertex -113.53133663211304 -208.5415291071661 4.849998980608108
    vertex -113.56858444546074 -220.6577682457161 4.834570063102598
    vertex -113.531336632113 -220.65776824617566 4.849998619515977
  endloop
endfacet
facet normal -0.3826835796317433 -2.7533760302820003e-08 0.9238794715114275
  outer loop
    vertex -113.56858444546074 -220.6577682457161 4.834570063102598
    vertex -113.53133663211304 -208.5415291071661 4.849998980608108
    vertex -113.56858444546081 -208.54152910670658 4.834570424194728
  endloop
endfacet
facet normal -0.6087615554695273 -2.364377577341931e-08 0.7933532432544289
  outer loop
    vertex -113.56858444546081 -208.54152910670658 4.834570424194728
    vertex -114.36603481130398 -220.65776822747992 4.222664673860025
    vertex -113.56858444546074 -220.6577682457161 4.834570063102598
  endloop
endfacet
facet normal -0.6087615554695273 -2.364377577341931e-08 0.7933532432544289
  outer loop
    vertex -114.36603481130398 -220.65776822747992 4.222664673860025
    vertex -113.56858444546081 -208.54152910670658 4.834570424194728
    vertex -114.36603481130402 -208.54152908847036 4.222665034952154
  endloop
endfacet
facet normal 0.7933532432544791 -1.814250993905681e-08 0.6087615554694623
  outer loop
    vertex -102.30879704727134 -220.65776820371383 3.4252161324071047
    vertex -102.92070243651362 -208.54152908847013 4.222666859342121
    vertex -102.92070243651357 -220.65776822747978 4.222666498249992
  endloop
endfacet
facet normal 0.7933532432544791 -1.814250993905681e-08 0.6087615554694623
  outer loop
    vertex -102.92070243651362 -208.54152908847013 4.222666859342121
    vertex -102.30879704727134 -220.65776820371383 3.4252161324071047
    vertex -102.3087970472714 -208.54152906470426 3.425216493499234
  endloop
endfacet
facet normal -0.991444882179723 -3.889983163788873e-09 0.13052603418335865
  outer loop
    vertex -115.3625995267745 -208.54152903702837 2.496563679315742
    vertex -115.49379963794377 -220.65776814633801 1.4999983066986144
    vertex -115.36259952677446 -220.65776817603802 2.4965633182236124
  endloop
endfacet
facet normal -0.991444882179723 -3.889983163788873e-09 0.13052603418335865
  outer loop
    vertex -115.49379963794377 -220.65776814633801 1.4999983066986144
    vertex -115.3625995267745 -208.54152903702837 2.496563679315742
    vertex -115.49379963794384 -208.54152900732848 1.4999986677907438
  endloop
endfacet
facet normal 0.6087615554695129 2.3643775770005552e-08 -0.7933532432544401
  outer loop
    vertex -103.71815193436859 -220.6577680469601 -1.8345712657826818
    vertex -102.92070156852581 -208.54152892618657 -1.2226655154483028
    vertex -102.92070156852576 -220.65776806519622 -1.2226658765404321
  endloop
endfacet
facet normal 0.6087615554695129 2.3643775770005552e-08 -0.7933532432544401
  outer loop
    vertex -102.92070156852581 -208.54152892618657 -1.2226655154483028
    vertex -103.71815193436859 -220.6577680469601 -1.8345712657826818
    vertex -103.71815193436865 -208.5415289079504 -1.8345709046905525
  endloop
endfacet
facet normal 0.7933534373280187 1.8142505278229733e-08 -0.6087613025479014
  outer loop
    vertex -102.92070156852581 -208.54152892618657 -1.2226655154483028
    vertex -102.30879643351128 -220.657768088962 -0.4252153156217659
    vertex -102.92070156852576 -220.65776806519622 -1.2226658765404321
  endloop
endfacet
facet normal 0.7933534373280187 1.8142505278229733e-08 -0.6087613025479014
  outer loop
    vertex -102.30879643351128 -220.657768088962 -0.4252153156217659
    vertex -102.92070156852581 -208.54152892618657 -1.2226655154483028
    vertex -102.30879643351132 -208.54152894995244 -0.42521495452963654
  endloop
endfacet
facet normal -0.9914448405678811 3.889985548536231e-09 -0.1305263502566771
  outer loop
    vertex -115.49379963794377 -220.65776814633801 1.4999983066986144
    vertex -115.36259920906889 -208.54152897762847 0.503433698092529
    vertex -115.36259920906883 -220.65776811663812 0.5034333370003996
  endloop
endfacet
facet normal -0.9914448405678811 3.889985548536231e-09 -0.1305263502566771
  outer loop
    vertex -115.36259920906889 -208.54152897762847 0.503433698092529
    vertex -115.49379963794377 -220.65776814633801 1.4999983066986144
    vertex -115.49379963794384 -208.54152900732848 1.4999986677907438
  endloop
endfacet
facet normal 0.9914448821797197 3.889983166541394e-09 -0.1305260341833841
  outer loop
    vertex -101.92413685305534 -208.54152897762862 0.5034358401880639
    vertex -101.79293674188592 -220.65776814633801 1.5000004906209323
    vertex -101.92413685305529 -220.65776811663818 0.5034354790959344
  endloop
endfacet
facet normal 0.9914448821797197 3.889983166541394e-09 -0.1305260341833841
  outer loop
    vertex -101.79293674188592 -220.65776814633801 1.5000004906209323
    vertex -101.92413685305534 -208.54152897762862 0.5034358401880639
    vertex -101.79293674188598 -208.54152900732845 1.5000008517130619
  endloop
endfacet
facet normal -0.38268328509829863 2.753376089397942e-08 -0.9238795935111748
  outer loop
    vertex -113.56858338239739 -220.65776804696011 -1.8345728359449327
    vertex -113.53133556413039 -208.5415289074905 -1.85000101939183
    vertex -113.53133556413033 -220.65776804650002 -1.8500013804839592
  endloop
endfacet
facet normal -0.38268328509829863 2.753376089397942e-08 -0.9238795935111748
  outer loop
    vertex -113.53133556413039 -208.5415289074905 -1.85000101939183
    vertex -113.56858338239739 -220.65776804696011 -1.8345728359449327
    vertex -113.56858338239746 -208.54152890795055 -1.8345724748528034
  endloop
endfacet
facet normal -0.9238794715113983 1.1404858180233133e-08 -0.38268357963181465
  outer loop
    vertex -115.36259920906883 -220.65776811663812 0.5034333370003996
    vertex -114.9779393325584 -208.54152894995264 -0.425216973995474
    vertex -114.97793933255836 -220.6577680889622 -0.42521733508760334
  endloop
endfacet
facet normal -0.9238794715113983 1.1404858180233133e-08 -0.38268357963181465
  outer loop
    vertex -114.9779393325584 -208.54152894995264 -0.425216973995474
    vertex -115.36259920906883 -220.65776811663812 0.5034333370003996
    vertex -115.36259920906889 -208.54152897762847 0.503433698092529
  endloop
endfacet
facet normal 3.687141460359287e-15 -0.9999999999999997 -2.980232771676519e-08
  outer loop
    vertex -113.56858444546074 -220.6577682457161 4.834570063102598
    vertex -103.75540081569908 -220.65776824617592 4.850000177803552
    vertex -113.531336632113 -220.65776824617566 4.849998619515977
  endloop
endfacet
facet normal 3.687141460359287e-15 -0.9999999999999997 -2.980232771676519e-08
  outer loop
    vertex -103.75540081569908 -220.65776824617592 4.850000177803552
    vertex -113.56858444546074 -220.6577682457161 4.834570063102598
    vertex -103.71815299743265 -220.65776824571608 4.834571633264802
  endloop
endfacet
facet normal 3.687141460359287e-15 -0.9999999999999997 -2.980232771676519e-08
  outer loop
    vertex -103.71815299743265 -220.65776824571608 4.834571633264802
    vertex -113.56858444546074 -220.6577682457161 4.834570063102598
    vertex -114.36603481130398 -220.65776822747992 4.222664673860025
  endloop
endfacet
facet normal 3.687141460359287e-15 -0.9999999999999997 -2.980232771676519e-08
  outer loop
    vertex -103.71815299743265 -220.65776824571608 4.834571633264802
    vertex -114.36603481130398 -220.65776822747992 4.222664673860025
    vertex -102.92070243651357 -220.65776822747978 4.222666498249992
  endloop
endfacet
facet normal 3.687141460359287e-15 -0.9999999999999997 -2.980232771676519e-08
  outer loop
    vertex -102.92070243651357 -220.65776822747978 4.222666498249992
    vertex -114.36603481130398 -220.65776822747992 4.222664673860025
    vertex -114.97793994631847 -220.65776820371406 3.425214112941359
  endloop
endfacet
facet normal 3.687141460359287e-15 -0.9999999999999997 -2.980232771676519e-08
  outer loop
    vertex -102.92070243651357 -220.65776822747978 4.222666498249992
    vertex -114.97793994631847 -220.65776820371406 3.425214112941359
    vertex -102.30879704727134 -220.65776820371383 3.4252161324071047
  endloop
endfacet
facet normal 3.687141460359287e-15 -0.9999999999999997 -2.980232771676519e-08
  outer loop
    vertex -102.30879704727134 -220.65776820371383 3.4252161324071047
    vertex -114.97793994631847 -220.65776820371406 3.425214112941359
    vertex -115.36259952677446 -220.65776817603802 2.4965633182236124
  endloop
endfacet
facet normal 3.687141460359287e-15 -0.9999999999999997 -2.980232771676519e-08
  outer loop
    vertex -102.30879704727134 -220.65776820371383 3.4252161324071047
    vertex -115.36259952677446 -220.65776817603802 2.4965633182236124
    vertex -101.92413717076087 -220.6577681760381 2.4965654603191005
  endloop
endfacet
facet normal 3.687141460359287e-15 -0.9999999999999997 -2.980232771676519e-08
  outer loop
    vertex -101.92413717076087 -220.6577681760381 2.4965654603191005
    vertex -115.36259952677446 -220.65776817603802 2.4965633182236124
    vertex -115.49379963794377 -220.65776814633801 1.4999983066986144
  endloop
endfacet
facet normal 3.687141460359287e-15 -0.9999999999999997 -2.980232771676519e-08
  outer loop
    vertex -101.92413717076087 -220.6577681760381 2.4965654603191005
    vertex -115.49379963794377 -220.65776814633801 1.4999983066986144
    vertex -101.79293674188592 -220.65776814633801 1.5000004906209323
  endloop
endfacet
facet normal 3.687141460359287e-15 -0.9999999999999997 -2.980232771676519e-08
  outer loop
    vertex -101.79293674188592 -220.65776814633801 1.5000004906209323
    vertex -115.49379963794377 -220.65776814633801 1.4999983066986144
    vertex -115.36259920906883 -220.65776811663812 0.5034333370003996
  endloop
endfacet
facet normal 3.687141460359287e-15 -0.9999999999999997 -2.980232771676519e-08
  outer loop
    vertex -101.79293674188592 -220.65776814633801 1.5000004906209323
    vertex -115.36259920906883 -220.65776811663812 0.5034333370003996
    vertex -101.92413685305529 -220.65776811663818 0.5034354790959344
  endloop
endfacet
facet normal 3.687141460359287e-15 -0.9999999999999997 -2.980232771676519e-08
  outer loop
    vertex -101.92413685305529 -220.65776811663818 0.5034354790959344
    vertex -115.36259920906883 -220.65776811663812 0.5034333370003996
    vertex -114.97793933255836 -220.6577680889622 -0.42521733508760334
  endloop
endfacet
facet normal 3.687141460359287e-15 -0.9999999999999997 -2.980232771676519e-08
  outer loop
    vertex -101.92413685305529 -220.65776811663818 0.5034354790959344
    vertex -114.97793933255836 -220.6577680889622 -0.42521733508760334
    vertex -102.30879643351128 -220.657768088962 -0.4252153156217659
  endloop
endfacet
facet normal 3.687141460359287e-15 -0.9999999999999997 -2.980232771676519e-08
  outer loop
    vertex -102.30879643351128 -220.657768088962 -0.4252153156217659
    vertex -114.97793933255836 -220.6577680889622 -0.42521733508760334
    vertex -102.92070156852576 -220.65776806519622 -1.2226658765404321
  endloop
endfacet
facet normal 3.687141460359287e-15 -0.9999999999999997 -2.980232771676519e-08
  outer loop
    vertex -102.92070156852576 -220.65776806519622 -1.2226658765404321
    vertex -114.97793933255836 -220.6577680889622 -0.42521733508760334
    vertex -114.36603394331613 -220.6577680651963 -1.2226677009304454
  endloop
endfacet
facet normal 3.687141460359287e-15 -0.9999999999999997 -2.980232771676519e-08
  outer loop
    vertex -102.92070156852576 -220.65776806519622 -1.2226658765404321
    vertex -114.36603394331613 -220.6577680651963 -1.2226677009304454
    vertex -103.71815193436859 -220.6577680469601 -1.8345712657826818
  endloop
endfacet
facet normal 3.687141460359287e-15 -0.9999999999999997 -2.980232771676519e-08
  outer loop
    vertex -103.71815193436859 -220.6577680469601 -1.8345712657826818
    vertex -114.36603394331613 -220.6577680651963 -1.2226677009304454
    vertex -113.56858338239739 -220.65776804696011 -1.8345728359449327
  endloop
endfacet
facet normal 3.687141460359287e-15 -0.9999999999999997 -2.980232771676519e-08
  outer loop
    vertex -103.71815193436859 -220.6577680469601 -1.8345712657826818
    vertex -113.56858338239739 -220.65776804696011 -1.8345728359449327
    vertex -103.75539974771706 -220.6577680465003 -1.8499998221963845
  endloop
endfacet
facet normal 3.687141460359287e-15 -0.9999999999999997 -2.980232771676519e-08
  outer loop
    vertex -103.75539974771706 -220.6577680465003 -1.8499998221963845
    vertex -113.56858338239739 -220.65776804696011 -1.8345728359449327
    vertex -113.53133556413033 -220.65776804650002 -1.8500013804839592
  endloop
endfacet
facet normal 0.9238794715113968 -1.1404858985203329e-08 0.38268357963181837
  outer loop
    vertex -101.92413717076093 -208.54152903702854 2.4965658214112305
    vertex -102.30879704727134 -220.65776820371383 3.4252161324071047
    vertex -101.92413717076087 -220.6577681760381 2.4965654603191005
  endloop
endfacet
facet normal 0.9238794715113968 -1.1404858985203329e-08 0.38268357963181837
  outer loop
    vertex -102.30879704727134 -220.65776820371383 3.4252161324071047
    vertex -101.92413717076093 -208.54152903702854 2.4965658214112305
    vertex -102.3087970472714 -208.54152906470426 3.425216493499234
  endloop
endfacet
facet normal -0.7933532432544487 1.8142508561990698e-08 -0.6087615554695017
  outer loop
    vertex -114.9779393325584 -208.54152894995264 -0.425216973995474
    vertex -114.36603394331613 -220.6577680651963 -1.2226677009304454
    vertex -114.97793933255836 -220.6577680889622 -0.42521733508760334
  endloop
endfacet
facet normal -0.7933532432544487 1.8142508561990698e-08 -0.6087615554695017
  outer loop
    vertex -114.36603394331613 -220.6577680651963 -1.2226677009304454
    vertex -114.9779393325584 -208.54152894995264 -0.425216973995474
    vertex -114.36603394331617 -208.54152892618674 -1.222667339838316
  endloop
endfacet
facet normal -0.6087613025478826 2.3643776695671417e-08 -0.7933534373280329
  outer loop
    vertex -114.36603394331613 -220.6577680651963 -1.2226677009304454
    vertex -113.56858338239746 -208.54152890795055 -1.8345724748528034
    vertex -113.56858338239739 -220.65776804696011 -1.8345728359449327
  endloop
endfacet
facet normal -0.6087613025478826 2.3643776695671417e-08 -0.7933534373280329
  outer loop
    vertex -113.56858338239746 -208.54152890795055 -1.8345724748528034
    vertex -114.36603394331613 -220.6577680651963 -1.2226677009304454
    vertex -114.36603394331617 -208.54152892618674 -1.222667339838316
  endloop
endfacet
facet normal -0.9238795935111365 -1.140485594601002e-08 0.38268328509839233
  outer loop
    vertex -114.97793994631853 -208.5415290647045 3.425214474033489
    vertex -115.36259952677446 -220.65776817603802 2.4965633182236124
    vertex -114.97793994631847 -220.65776820371406 3.425214112941359
  endloop
endfacet
facet normal -0.9238795935111365 -1.140485594601002e-08 0.38268328509839233
  outer loop
    vertex -115.36259952677446 -220.65776817603802 2.4965633182236124
    vertex -114.97793994631853 -208.5415290647045 3.425214474033489
    vertex -115.3625995267745 -208.54152903702837 2.496563679315742
  endloop
endfacet
facet normal 0.99144484056788 -3.889985545784698e-09 0.1305263502566859
  outer loop
    vertex -101.79293674188592 -220.65776814633801 1.5000004906209323
    vertex -101.92413717076093 -208.54152903702854 2.4965658214112305
    vertex -101.92413717076087 -220.6577681760381 2.4965654603191005
  endloop
endfacet
facet normal 0.99144484056788 -3.889985545784698e-09 0.1305263502566859
  outer loop
    vertex -101.92413717076093 -208.54152903702854 2.4965658214112305
    vertex -101.79293674188592 -220.65776814633801 1.5000004906209323
    vertex -101.79293674188598 -208.54152900732845 1.5000008517130619
  endloop
endfacet
facet normal 0.8543236280540303 0.1685295342228637 0.4916593685095643
  outer loop
    vertex -105.95493990965213 -200.3801463236646 3.4252161555310177
    vertex -106.41386898336233 -200.3801463474307 4.222666545758337
    vertex -105.42753588966451 -205.3801463474306 4.222666553968537
  endloop
endfacet
facet normal 0.31433614107582875 0.03694128806214762 -0.9485927111515595
  outer loop
    vertex -107.01195586537213 -200.38014616691072 -1.834571186495913
    vertex -106.4243480033647 -205.3801461669109 -1.8345712418426539
    vertex -106.47090777066511 -205.38014616645108 -1.8499997997406397
  endloop
endfacet
facet normal 0.7933534373280097 1.8142510291275445e-08 -0.608761302547913
  outer loop
    vertex -105.92070156852576 -208.54152892618671 -1.2226659936493935
    vertex -105.30879643351126 -205.380146208913 -0.4252153385141401
    vertex -105.30879643351125 -208.54152894995264 -0.425215432730728
  endloop
endfacet
facet normal 0.7933534373280097 1.8142510291275445e-08 -0.608761302547913
  outer loop
    vertex -105.30879643351126 -205.380146208913 -0.4252153385141401
    vertex -105.92070156852576 -208.54152892618671 -1.2226659936493935
    vertex -105.92070156852576 -205.38014618514694 -1.2226658994328057
  endloop
endfacet
facet normal 0.5221695359601455 0.061366175510240505 0.8506310411796719
  outer loop
    vertex -107.01195692843608 -200.3801463656667 4.834571712551595
    vertex -106.42434906642885 -205.3801463656669 4.834571657204877
    vertex -105.42753588966451 -205.3801463474306 4.222666553968537
  endloop
endfacet
facet normal -1.1039086070850864e-14 0.9999999999999997 2.9802327716764024e-08
  outer loop
    vertex -110.56858444546083 -208.54152910670638 4.834570902395773
    vertex -113.53133663211304 -208.5415291071661 4.849998980608108
    vertex -110.53133663211307 -208.54152910716624 4.849999458809152
  endloop
endfacet
facet normal -1.1039086070850864e-14 0.9999999999999997 2.9802327716764024e-08
  outer loop
    vertex -113.53133663211304 -208.5415291071661 4.849998980608108
    vertex -110.56858444546083 -208.54152910670638 4.834570902395773
    vertex -113.56858444546081 -208.54152910670658 4.834570424194728
  endloop
endfacet
facet normal -1.1039086070850864e-14 0.9999999999999997 2.9802327716764024e-08
  outer loop
    vertex -113.56858444546081 -208.54152910670658 4.834570424194728
    vertex -110.56858444546083 -208.54152910670638 4.834570902395773
    vertex -111.366034811304 -208.54152908847018 4.222665513153153
  endloop
endfacet
facet normal -1.1039086070850864e-14 0.9999999999999997 2.9802327716764024e-08
  outer loop
    vertex -113.56858444546081 -208.54152910670658 4.834570424194728
    vertex -111.366034811304 -208.54152908847018 4.222665513153153
    vertex -114.36603481130402 -208.54152908847036 4.222665034952154
  endloop
endfacet
facet normal -1.1039086070850864e-14 0.9999999999999997 2.9802327716764024e-08
  outer loop
    vertex -114.36603481130402 -208.54152908847036 4.222665034952154
    vertex -111.366034811304 -208.54152908847018 4.222665513153153
    vertex -114.97793994631853 -208.5415290647045 3.425214474033489
  endloop
endfacet
facet normal -1.1039086070850864e-14 0.9999999999999997 2.9802327716764024e-08
  outer loop
    vertex -114.97793994631853 -208.5415290647045 3.425214474033489
    vertex -111.366034811304 -208.54152908847018 4.222665513153153
    vertex -111.97793994631853 -208.5415290647043 3.4252149522344872
  endloop
endfacet
facet normal -1.1039086070850864e-14 0.9999999999999997 2.9802327716764024e-08
  outer loop
    vertex -114.97793994631853 -208.5415290647045 3.425214474033489
    vertex -111.97793994631853 -208.5415290647043 3.4252149522344872
    vertex -115.3625995267745 -208.54152903702837 2.496563679315742
  endloop
endfacet
facet normal -1.1039086070850864e-14 0.9999999999999997 2.9802327716764024e-08
  outer loop
    vertex -115.3625995267745 -208.54152903702837 2.496563679315742
    vertex -111.97793994631853 -208.5415290647043 3.4252149522344872
    vertex -112.36259952677445 -208.54152903702854 2.496564157516764
  endloop
endfacet
facet normal -1.1039086070850864e-14 0.9999999999999997 2.9802327716764024e-08
  outer loop
    vertex -115.3625995267745 -208.54152903702837 2.496563679315742
    vertex -112.36259952677445 -208.54152903702854 2.496564157516764
    vertex -115.49379963794384 -208.54152900732848 1.4999986677907438
  endloop
endfacet
facet normal -1.1039086070850864e-14 0.9999999999999997 2.9802327716764024e-08
  outer loop
    vertex -115.49379963794384 -208.54152900732848 1.4999986677907438
    vertex -112.36259952677445 -208.54152903702854 2.496564157516764
    vertex -112.49379963794381 -208.54152900732836 1.4999991459917652
  endloop
endfacet
facet normal -1.1039086070850864e-14 0.9999999999999997 2.9802327716764024e-08
  outer loop
    vertex -115.49379963794384 -208.54152900732848 1.4999986677907438
    vertex -112.49379963794381 -208.54152900732836 1.4999991459917652
    vertex -115.36259920906889 -208.54152897762847 0.503433698092529
  endloop
endfacet
facet normal -1.1039086070850864e-14 0.9999999999999997 2.9802327716764024e-08
  outer loop
    vertex -115.36259920906889 -208.54152897762847 0.503433698092529
    vertex -112.49379963794381 -208.54152900732836 1.4999991459917652
    vertex -112.36259920906885 -208.54152897762862 0.5034341762935973
  endloop
endfacet
facet normal -1.1039086070850864e-14 0.9999999999999997 2.9802327716764024e-08
  outer loop
    vertex -115.36259920906889 -208.54152897762847 0.503433698092529
    vertex -112.36259920906885 -208.54152897762862 0.5034341762935973
    vertex -111.97793933255842 -208.5415289499525 -0.42521649579440635
  endloop
endfacet
facet normal -1.1039086070850864e-14 0.9999999999999997 2.9802327716764024e-08
  outer loop
    vertex -115.36259920906889 -208.54152897762847 0.503433698092529
    vertex -111.97793933255842 -208.5415289499525 -0.42521649579440635
    vertex -114.9779393325584 -208.54152894995264 -0.425216973995474
  endloop
endfacet
facet normal -1.1039086070850864e-14 0.9999999999999997 2.9802327716764024e-08
  outer loop
    vertex -114.9779393325584 -208.54152894995264 -0.425216973995474
    vertex -111.97793933255842 -208.5415289499525 -0.42521649579440635
    vertex -111.36603394331615 -208.54152892618663 -1.2226668616372245
  endloop
endfacet
facet normal -1.1039086070850864e-14 0.9999999999999997 2.9802327716764024e-08
  outer loop
    vertex -114.9779393325584 -208.54152894995264 -0.425216973995474
    vertex -111.36603394331615 -208.54152892618663 -1.2226668616372245
    vertex -114.36603394331617 -208.54152892618674 -1.222667339838316
  endloop
endfacet
facet normal -1.1039086070850864e-14 0.9999999999999997 2.9802327716764024e-08
  outer loop
    vertex -114.36603394331617 -208.54152892618674 -1.222667339838316
    vertex -111.36603394331615 -208.54152892618663 -1.2226668616372245
    vertex -110.56858338239745 -208.5415289079504 -1.8345719966517111
  endloop
endfacet
facet normal -1.1039086070850864e-14 0.9999999999999997 2.9802327716764024e-08
  outer loop
    vertex -114.36603394331617 -208.54152892618674 -1.222667339838316
    vertex -110.56858338239745 -208.5415289079504 -1.8345719966517111
    vertex -113.56858338239746 -208.54152890795055 -1.8345724748528034
  endloop
endfacet
facet normal -1.1039086070850864e-14 0.9999999999999997 2.9802327716764024e-08
  outer loop
    vertex -113.56858338239746 -208.54152890795055 -1.8345724748528034
    vertex -110.56858338239745 -208.5415289079504 -1.8345719966517111
    vertex -110.53133556413042 -208.54152890749066 -1.8500005411907852
  endloop
endfacet
facet normal -1.1039086070850864e-14 0.9999999999999997 2.9802327716764024e-08
  outer loop
    vertex -113.56858338239746 -208.54152890795055 -1.8345724748528034
    vertex -110.53133556413042 -208.54152890749066 -1.8500005411907852
    vertex -113.53133556413039 -208.5415289074905 -1.85000101939183
  endloop
endfacet
facet normal 5.457630878781919e-14 0.9999999999999997 2.980232082090426e-08
  outer loop
    vertex -107.8933676559234 -208.5415289074906 -1.8500001206977355
    vertex -109.39336872390604 -208.54152910716624 4.849999640201633
    vertex -107.89336872390574 -208.54152910716613 4.849999879302156
  endloop
endfacet
facet normal 5.457630878781919e-14 0.9999999999999997 2.980232082090426e-08
  outer loop
    vertex -109.39336872390604 -208.54152910716624 4.849999640201633
    vertex -107.8933676559234 -208.5415289074906 -1.8500001206977355
    vertex -109.39336765592368 -208.54152890749066 -1.8500003597983048
  endloop
endfacet
facet normal -1.5940034833739072e-07 -2.980232631358995e-08 0.999999999999987
  outer loop
    vertex -107.0398927927507 -200.38014636612672 4.850000258574696
    vertex -106.7554008156991 -205.3801463661267 4.850000154911178
    vertex -106.47090883864705 -205.3801463661267 4.850000200259299
  endloop
endfacet
facet normal -1.5940034833739072e-07 -2.980232631358995e-08 0.999999999999987
  outer loop
    vertex -106.7554008156991 -205.3801463661267 4.850000154911178
    vertex -107.0398927927507 -200.38014636612672 4.850000258574696
    vertex -106.7554008156991 -208.54152910716613 4.850000060694637
  endloop
endfacet
facet normal -1.5940034833739072e-07 -2.980232631358995e-08 0.999999999999987
  outer loop
    vertex -107.89336872390597 -200.3801463661265 4.850000122530336
    vertex -107.89336872390574 -208.54152910716613 4.849999879302156
    vertex -107.0398927927507 -200.38014636612672 4.850000258574696
  endloop
endfacet
facet normal -1.5940034833739072e-07 -2.980232631358995e-08 0.999999999999987
  outer loop
    vertex -110.24684465506121 -200.3801463661267 4.849999747385453
    vertex -109.39336872390604 -208.54152910716624 4.849999640201633
    vertex -109.39336872390597 -200.3801463661267 4.849999883429813
  endloop
endfacet
facet normal -1.5940034833739072e-07 -2.980232631358995e-08 0.999999999999987
  outer loop
    vertex -110.24684465506121 -200.3801463661267 4.849999747385453
    vertex -110.5313366321131 -205.3801463661265 4.849999553025694
    vertex -110.53133663211307 -208.54152910716624 4.849999458809152
  endloop
endfacet
facet normal -1.5940034833739072e-07 -2.980232631358995e-08 0.999999999999987
  outer loop
    vertex -110.5313366321131 -205.3801463661265 4.849999553025694
    vertex -110.24684465506121 -200.3801463661267 4.849999747385453
    vertex -110.81582860916483 -205.3801463661266 4.849999507677573
  endloop
endfacet
facet normal -1.5940034833739072e-07 -2.980232631358995e-08 0.999999999999987
  outer loop
    vertex -103.75540081569913 -208.54152910716638 4.8500005388956815
    vertex -113.531336632113 -220.65776824617566 4.849998619515977
    vertex -103.75540081569908 -220.65776824617592 4.850000177803552
  endloop
endfacet
facet normal -1.5940034833739072e-07 -2.980232631358995e-08 0.999999999999987
  outer loop
    vertex -113.531336632113 -220.65776824617566 4.849998619515977
    vertex -103.75540081569913 -208.54152910716638 4.8500005388956815
    vertex -106.7554008156991 -208.54152910716613 4.850000060694637
  endloop
endfacet
facet normal -1.5940034833739072e-07 -2.980232631358995e-08 0.999999999999987
  outer loop
    vertex -113.531336632113 -220.65776824617566 4.849998619515977
    vertex -106.7554008156991 -208.54152910716613 4.850000060694637
    vertex -107.89336872390574 -208.54152910716613 4.849999879302156
  endloop
endfacet
facet normal -1.5940034833739072e-07 -2.980232631358995e-08 0.999999999999987
  outer loop
    vertex -107.89336872390574 -208.54152910716613 4.849999879302156
    vertex -106.7554008156991 -208.54152910716613 4.850000060694637
    vertex -107.0398927927507 -200.38014636612672 4.850000258574696
  endloop
endfacet
facet normal -1.5940034833739072e-07 -2.980232631358995e-08 0.999999999999987
  outer loop
    vertex -113.531336632113 -220.65776824617566 4.849998619515977
    vertex -107.89336872390574 -208.54152910716613 4.849999879302156
    vertex -109.39336872390604 -208.54152910716624 4.849999640201633
  endloop
endfacet
facet normal -1.5940034833739072e-07 -2.980232631358995e-08 0.999999999999987
  outer loop
    vertex -113.531336632113 -220.65776824617566 4.849998619515977
    vertex -109.39336872390604 -208.54152910716624 4.849999640201633
    vertex -110.53133663211307 -208.54152910716624 4.849999458809152
  endloop
endfacet
facet normal -1.5940034833739072e-07 -2.980232631358995e-08 0.999999999999987
  outer loop
    vertex -110.53133663211307 -208.54152910716624 4.849999458809152
    vertex -109.39336872390604 -208.54152910716624 4.849999640201633
    vertex -110.24684465506121 -200.3801463661267 4.849999747385453
  endloop
endfacet
facet normal -1.5940034833739072e-07 -2.980232631358995e-08 0.999999999999987
  outer loop
    vertex -113.531336632113 -220.65776824617566 4.849998619515977
    vertex -110.53133663211307 -208.54152910716624 4.849999458809152
    vertex -113.53133663211304 -208.5415291071661 4.849998980608108
  endloop
endfacet
facet normal 0.954368438779352 0.28337405402462074 0.09423390349292382
  outer loop
    vertex -105.66644496526249 -200.38014629598865 2.496565468114336
    vertex -104.1818293762589 -205.38014629598882 2.496565555750917
    vertex -105.56804460389306 -200.38014626628868 1.5000004931877795
  endloop
endfacet
facet normal 0.9238795935111199 1.1404855147115305e-08 -0.38268328509843175
  outer loop
    vertex -102.30879643351128 -220.657768088962 -0.4252153156217659
    vertex -101.92413685305534 -208.54152897762862 0.5034358401880639
    vertex -101.92413685305529 -220.65776811663818 0.5034354790959344
  endloop
endfacet
facet normal 0.9238795935111199 1.1404855147115305e-08 -0.38268328509843175
  outer loop
    vertex -101.92413685305534 -208.54152897762862 0.5034358401880639
    vertex -102.30879643351128 -220.657768088962 -0.4252153156217659
    vertex -102.30879643351132 -208.54152894995244 -0.42521495452963654
  endloop
endfacet
facet normal -3.4444901228123356e-14 0.9999999999999997 2.980232686962598e-08
  outer loop
    vertex -107.01195692843608 -200.3801463656667 4.834571712551595
    vertex -107.89336872390597 -200.3801463661265 4.850000122530336
    vertex -107.0398927927507 -200.38014636612672 4.850000258574696
  endloop
endfacet
facet normal -3.4444901228123356e-14 0.9999999999999997 2.980232686962598e-08
  outer loop
    vertex -107.89336872390597 -200.3801463661265 4.850000122530336
    vertex -107.01195692843608 -200.3801463656667 4.834571712551595
    vertex -107.89336765592364 -200.3801461664509 -1.8499998774696016
  endloop
endfacet
facet normal -3.4444901228123356e-14 0.9999999999999997 2.980232686962598e-08
  outer loop
    vertex -107.89336765592364 -200.3801461664509 -1.8499998774696016
    vertex -107.01195692843608 -200.3801463656667 4.834571712551595
    vertex -106.41386898336233 -200.3801463474307 4.222666545758337
  endloop
endfacet
facet normal -3.4444901228123356e-14 0.9999999999999997 2.980232686962598e-08
  outer loop
    vertex -107.89336765592364 -200.3801461664509 -1.8499998774696016
    vertex -106.41386898336233 -200.3801463474307 4.222666545758337
    vertex -105.95493990965213 -200.3801463236646 3.4252161555310177
  endloop
endfacet
facet normal -3.4444901228123356e-14 0.9999999999999997 2.980232686962598e-08
  outer loop
    vertex -107.89336765592364 -200.3801461664509 -1.8499998774696016
    vertex -105.95493990965213 -200.3801463236646 3.4252161555310177
    vertex -105.66644496526249 -200.38014629598865 2.496565468114336
  endloop
endfacet
facet normal -3.4444901228123356e-14 0.9999999999999997 2.980232686962598e-08
  outer loop
    vertex -107.89336765592364 -200.3801461664509 -1.8499998774696016
    vertex -105.66644496526249 -200.38014629598865 2.496565468114336
    vertex -105.56804460389306 -200.38014626628868 1.5000004931877795
  endloop
endfacet
facet normal -3.4444901228123356e-14 0.9999999999999997 2.980232686962598e-08
  outer loop
    vertex -107.89336765592364 -200.3801461664509 -1.8499998774696016
    vertex -105.56804460389306 -200.38014626628868 1.5000004931877795
    vertex -105.66644464755687 -200.38014623658873 0.50343548689117
  endloop
endfacet
facet normal -3.4444901228123356e-14 0.9999999999999997 2.980232686962598e-08
  outer loop
    vertex -107.89336765592364 -200.3801461664509 -1.8499998774696016
    vertex -105.66644464755687 -200.38014623658873 0.50343548689117
    vertex -105.95493929589202 -200.38014620891278 -0.4252152924979455
  endloop
endfacet
facet normal -3.4444901228123356e-14 0.9999999999999997 2.980232686962598e-08
  outer loop
    vertex -107.89336765592364 -200.3801461664509 -1.8499998774696016
    vertex -105.95493929589202 -200.38014620891278 -0.4252152924979455
    vertex -106.41386811537447 -200.3801461851471 -1.222665829032087
  endloop
endfacet
facet normal -3.4444901228123356e-14 0.9999999999999997 2.980232686962598e-08
  outer loop
    vertex -107.89336765592364 -200.3801461664509 -1.8499998774696016
    vertex -106.41386811537447 -200.3801461851471 -1.222665829032087
    vertex -107.01195586537213 -200.38014616691072 -1.834571186495913
  endloop
endfacet
facet normal -3.4444901228123356e-14 0.9999999999999997 2.980232686962598e-08
  outer loop
    vertex -107.89336765592364 -200.3801461664509 -1.8499998774696016
    vertex -107.01195586537213 -200.38014616691072 -1.834571186495913
    vertex -107.03989172476861 -200.38014616645108 -1.8499997414252416
  endloop
endfacet
facet normal 0.6087613025479068 -2.364377671509455e-08 0.7933534373280142
  outer loop
    vertex -102.92070243651362 -208.54152908847013 4.222666859342121
    vertex -103.71815299743265 -220.65776824571608 4.834571633264802
    vertex -102.92070243651357 -220.65776822747978 4.222666498249992
  endloop
endfacet
facet normal 0.6087613025479068 -2.364377671509455e-08 0.7933534373280142
  outer loop
    vertex -103.71815299743265 -220.65776824571608 4.834571633264802
    vertex -102.92070243651362 -208.54152908847013 4.222666859342121
    vertex -103.7181529974327 -208.54152910670643 4.834571994356931
  endloop
endfacet
facet normal 0.7126226871417936 0.08374854643201234 -0.6965307507507006
  outer loop
    vertex -107.01195586537213 -200.38014616691072 -1.834571186495913
    vertex -106.41386811537447 -200.3801461851471 -1.222665829032087
    vertex -106.4243480033647 -205.3801461669109 -1.8345712418426539
  endloop
endfacet
facet normal 0.9271548575861214 0.2396298007027855 0.28803025651761394
  outer loop
    vertex -105.95493990965213 -200.3801463236646 3.4252161555310177
    vertex -104.66265418489017 -205.38014632366477 3.4252162125101733
    vertex -105.66644496526249 -200.38014629598865 2.496565468114336
  endloop
endfacet
facet normal 0.6087615554694847 2.3643776002652525e-08 -0.7933532432544615
  outer loop
    vertex -105.92070156852576 -208.54152892618671 -1.2226659936493935
    vertex -106.71815193436862 -205.38014616691072 -1.834571288675056
    vertex -105.92070156852576 -205.38014618514694 -1.2226658994328057
  endloop
endfacet
facet normal 0.6087615554694847 2.3643776002652525e-08 -0.7933532432544615
  outer loop
    vertex -106.71815193436862 -205.38014616691072 -1.834571288675056
    vertex -105.92070156852576 -208.54152892618671 -1.2226659936493935
    vertex -106.71815193436859 -208.54152890795052 -1.834571382891597
  endloop
endfacet
facet normal -0.7933534373280081 -1.8142524154979302e-08 0.608761302547915
  outer loop
    vertex -111.36603481130408 -205.38014634743067 4.22266560736974
    vertex -111.97793994631853 -208.5415290647043 3.4252149522344872
    vertex -111.366034811304 -208.54152908847018 4.222665513153153
  endloop
endfacet
facet normal -0.7933534373280081 -1.8142524154979302e-08 0.608761302547915
  outer loop
    vertex -111.97793994631853 -208.5415290647043 3.4252149522344872
    vertex -111.36603481130408 -205.38014634743067 4.22266560736974
    vertex -111.97793994631857 -205.38014632366475 3.425215046451075
  endloop
endfacet
facet normal 0.865522737400728 0.2237005304930474 -0.44813888884974024
  outer loop
    vertex -105.95493929589202 -200.38014620891278 -0.4252152924979455
    vertex -104.18182905855332 -205.3801462365889 0.5034355745277737
    vertex -104.66265357113005 -205.38014620891295 -0.4252152355187888
  endloop
endfacet
facet normal 0.9435605599554393 0.2925444863669318 0.1552777936244789
  outer loop
    vertex -105.56804460389306 -200.38014626628868 1.5000004931877795
    vertex -104.1818293762589 -205.38014629598882 2.496565555750917
    vertex -104.0178288798784 -205.38014626628885 1.5000005912810446
  endloop
endfacet
facet normal 0.6087613025478957 -2.364377911830996e-08 0.7933534373280229
  outer loop
    vertex -105.92070243651361 -205.3801463474305 4.222666475357618
    vertex -106.7181529974327 -208.54152910670652 4.834571516155841
    vertex -105.92070243651358 -208.54152908847033 4.222666381141076
  endloop
endfacet
facet normal 0.6087613025478957 -2.364377911830996e-08 0.7933534373280229
  outer loop
    vertex -106.7181529974327 -208.54152910670652 4.834571516155841
    vertex -105.92070243651361 -205.3801463474305 4.222666475357618
    vertex -106.71815299743267 -205.3801463656667 4.834571610372428
  endloop
endfacet
facet normal -1.148047611757027e-14 -0.9999999999999997 -2.9802327716767703e-08
  outer loop
    vertex -106.71815299743267 -205.3801463656667 4.834571610372428
    vertex -106.47090883864705 -205.3801463661267 4.850000200259299
    vertex -106.7554008156991 -205.3801463661267 4.850000154911178
  endloop
endfacet
facet normal -1.148047611757027e-14 -0.9999999999999997 -2.9802327716767703e-08
  outer loop
    vertex -106.47090883864705 -205.3801463661267 4.850000200259299
    vertex -106.71815299743267 -205.3801463656667 4.834571610372428
    vertex -106.42434906642885 -205.3801463656669 4.834571657204877
  endloop
endfacet
facet normal -1.148047611757027e-14 -0.9999999999999997 -2.9802327716767703e-08
  outer loop
    vertex -106.42434906642885 -205.3801463656669 4.834571657204877
    vertex -106.71815299743267 -205.3801463656667 4.834571610372428
    vertex -105.92070243651361 -205.3801463474305 4.222666475357618
  endloop
endfacet
facet normal -1.148047611757027e-14 -0.9999999999999997 -2.9802327716767703e-08
  outer loop
    vertex -106.42434906642885 -205.3801463656669 4.834571657204877
    vertex -105.92070243651361 -205.3801463474305 4.222666475357618
    vertex -105.42753588966451 -205.3801463474306 4.222666553968537
  endloop
endfacet
facet normal -1.148047611757027e-14 -0.9999999999999997 -2.9802327716767703e-08
  outer loop
    vertex -105.42753588966451 -205.3801463474306 4.222666553968537
    vertex -105.92070243651361 -205.3801463474305 4.222666475357618
    vertex -105.3087970472714 -205.38014632366483 3.4252161095147766
  endloop
endfacet
facet normal -1.148047611757027e-14 -0.9999999999999997 -2.9802327716767703e-08
  outer loop
    vertex -105.42753588966451 -205.3801463474306 4.222666553968537
    vertex -105.3087970472714 -205.38014632366483 3.4252161095147766
    vertex -104.66265418489017 -205.38014632366477 3.4252162125101733
  endloop
endfacet
facet normal -1.148047611757027e-14 -0.9999999999999997 -2.9802327716767703e-08
  outer loop
    vertex -104.66265418489017 -205.38014632366477 3.4252162125101733
    vertex -105.3087970472714 -205.38014632366483 3.4252161095147766
    vertex -104.92413717076091 -205.38014629598888 2.496565437426773
  endloop
endfacet
facet normal -1.148047611757027e-14 -0.9999999999999997 -2.9802327716767703e-08
  outer loop
    vertex -104.66265418489017 -205.38014632366477 3.4252162125101733
    vertex -104.92413717076091 -205.38014629598888 2.496565437426773
    vertex -104.1818293762589 -205.38014629598882 2.496565555750917
  endloop
endfacet
facet normal -1.148047611757027e-14 -0.9999999999999997 -2.9802327716767703e-08
  outer loop
    vertex -104.1818293762589 -205.38014629598882 2.496565555750917
    vertex -104.92413717076091 -205.38014629598888 2.496565437426773
    vertex -104.0178288798784 -205.38014626628885 1.5000005912810446
  endloop
endfacet
facet normal -1.148047611757027e-14 -0.9999999999999997 -2.9802327716767703e-08
  outer loop
    vertex -104.0178288798784 -205.38014626628885 1.5000005912810446
    vertex -104.92413717076091 -205.38014629598888 2.496565437426773
    vertex -104.79293674188594 -205.3801462662889 1.5000004677285812
  endloop
endfacet
facet normal -1.148047611757027e-14 -0.9999999999999997 -2.9802327716767703e-08
  outer loop
    vertex -104.0178288798784 -205.38014626628885 1.5000005912810446
    vertex -104.79293674188594 -205.3801462662889 1.5000004677285812
    vertex -104.9241368530553 -205.38014623658896 0.5034354562036296
  endloop
endfacet
facet normal -1.148047611757027e-14 -0.9999999999999997 -2.9802327716767703e-08
  outer loop
    vertex -104.0178288798784 -205.38014626628885 1.5000005912810446
    vertex -104.9241368530553 -205.38014623658896 0.5034354562036296
    vertex -104.18182905855332 -205.3801462365889 0.5034355745277737
  endloop
endfacet
facet normal -1.148047611757027e-14 -0.9999999999999997 -2.9802327716767703e-08
  outer loop
    vertex -104.18182905855332 -205.3801462365889 0.5034355745277737
    vertex -104.9241368530553 -205.38014623658896 0.5034354562036296
    vertex -104.66265357113005 -205.38014620891295 -0.4252152355187888
  endloop
endfacet
facet normal -1.148047611757027e-14 -0.9999999999999997 -2.9802327716767703e-08
  outer loop
    vertex -104.66265357113005 -205.38014620891295 -0.4252152355187888
    vertex -104.9241368530553 -205.38014623658896 0.5034354562036296
    vertex -105.30879643351126 -205.380146208913 -0.4252153385141401
  endloop
endfacet
facet normal -1.148047611757027e-14 -0.9999999999999997 -2.9802327716767703e-08
  outer loop
    vertex -104.66265357113005 -205.38014620891295 -0.4252152355187888
    vertex -105.30879643351126 -205.380146208913 -0.4252153385141401
    vertex -105.92070156852576 -205.38014618514694 -1.2226658994328057
  endloop
endfacet
facet normal -1.148047611757027e-14 -0.9999999999999997 -2.9802327716767703e-08
  outer loop
    vertex -104.66265357113005 -205.38014620891295 -0.4252152355187888
    vertex -105.92070156852576 -205.38014618514694 -1.2226658994328057
    vertex -105.42753502167663 -205.38014618514703 -1.2226658208218866
  endloop
endfacet
facet normal -1.148047611757027e-14 -0.9999999999999997 -2.9802327716767703e-08
  outer loop
    vertex -105.42753502167663 -205.38014618514703 -1.2226658208218866
    vertex -105.92070156852576 -205.38014618514694 -1.2226658994328057
    vertex -106.71815193436862 -205.38014616691072 -1.834571288675056
  endloop
endfacet
facet normal -1.148047611757027e-14 -0.9999999999999997 -2.9802327716767703e-08
  outer loop
    vertex -105.42753502167663 -205.38014618514703 -1.2226658208218866
    vertex -106.71815193436862 -205.38014616691072 -1.834571288675056
    vertex -106.4243480033647 -205.3801461669109 -1.8345712418426539
  endloop
endfacet
facet normal -1.148047611757027e-14 -0.9999999999999997 -2.9802327716767703e-08
  outer loop
    vertex -106.4243480033647 -205.3801461669109 -1.8345712418426539
    vertex -106.71815193436862 -205.38014616691072 -1.834571288675056
    vertex -106.75539974771709 -205.38014616645108 -1.8499998450887372
  endloop
endfacet
facet normal -1.148047611757027e-14 -0.9999999999999997 -2.9802327716767703e-08
  outer loop
    vertex -106.4243480033647 -205.3801461669109 -1.8345712418426539
    vertex -106.75539974771709 -205.38014616645108 -1.8499998450887372
    vertex -106.47090777066511 -205.38014616645108 -1.8499997997406397
  endloop
endfacet
facet normal 0.7144864186075879 0.14094431880876346 -0.6853056665611604
  outer loop
    vertex -106.41386811537447 -200.3801461851471 -1.222665829032087
    vertex -104.66265357113005 -205.38014620891295 -0.4252152355187888
    vertex -105.42753502167663 -205.38014618514703 -1.2226658208218866
  endloop
endfacet
facet normal 0.9509260571278861 0.2948281033849055 -0.09389368098904187
  outer loop
    vertex -105.56804460389306 -200.38014626628868 1.5000004931877795
    vertex -104.0178288798784 -205.38014626628885 1.5000005912810446
    vertex -105.66644464755687 -200.38014623658873 0.50343548689117
  endloop
endfacet
facet normal -0.923879593511145 -1.1404874526600434e-08 0.3826832850983716
  outer loop
    vertex -111.97793994631853 -208.5415290647043 3.4252149522344872
    vertex -112.36259952677453 -205.38014629598882 2.496564251733305
    vertex -112.36259952677445 -208.54152903702854 2.496564157516764
  endloop
endfacet
facet normal -0.923879593511145 -1.1404874526600434e-08 0.3826832850983716
  outer loop
    vertex -112.36259952677453 -205.38014629598882 2.496564251733305
    vertex -111.97793994631853 -208.5415290647043 3.4252149522344872
    vertex -111.97793994631857 -205.38014632366475 3.425215046451075
  endloop
endfacet
facet normal 0.8586787909660132 0.2549615915955347 0.44459568234095315
  outer loop
    vertex -105.66644496526249 -200.38014629598865 2.496565468114336
    vertex -104.66265418489017 -205.38014632366477 3.4252162125101733
    vertex -104.1818293762589 -205.38014629598882 2.496565555750917
  endloop
endfacet
facet normal 0.4827236810086249 0.0549324159460325 -0.8740482123268803
  outer loop
    vertex -107.03989172476861 -200.38014616645108 -1.8499997414252416
    vertex -107.01195586537213 -200.38014616691072 -1.834571186495913
    vertex -106.47090777066511 -205.38014616645108 -1.8499997997406397
  endloop
endfacet
facet normal 0.9914448405678786 -3.889968561184623e-09 0.13052635025669715
  outer loop
    vertex -104.79293674188594 -205.3801462662889 1.5000004677285812
    vertex -104.92413717076084 -208.5415290370283 2.4965653432102086
    vertex -104.79293674188587 -208.5415290073286 1.5000003735120164
  endloop
endfacet
facet normal 0.9914448405678786 -3.889968561184623e-09 0.13052635025669715
  outer loop
    vertex -104.92413717076084 -208.5415290370283 2.4965653432102086
    vertex -104.79293674188594 -205.3801462662889 1.5000004677285812
    vertex -104.92413717076091 -205.38014629598888 2.496565437426773
  endloop
endfacet
facet normal 0.7094543151170748 0.1833635445139366 0.6804795259998997
  outer loop
    vertex -105.95493990965213 -200.3801463236646 3.4252161555310177
    vertex -105.42753588966451 -205.3801463474306 4.222666553968537
    vertex -104.66265418489017 -205.38014632366477 3.4252162125101733
  endloop
endfacet
facet normal 0.48267495045771686 0.056724709462408554 0.8739606395811231
  outer loop
    vertex -107.0398927927507 -200.38014636612672 4.850000258574696
    vertex -106.42434906642885 -205.3801463656669 4.834571657204877
    vertex -107.01195692843608 -200.3801463656667 4.834571712551595
  endloop
endfacet
facet normal 0.520391917731868 0.10265595263835113 -0.8477346326222973
  outer loop
    vertex -106.4243480033647 -205.3801461669109 -1.8345712418426539
    vertex -106.41386811537447 -200.3801461851471 -1.222665829032087
    vertex -105.42753502167663 -205.38014618514703 -1.2226658208218866
  endloop
endfacet
facet normal -0.9999999999999873 -2.3370131576044277e-14 -1.5940034833739175e-07
  outer loop
    vertex -107.89336872390574 -208.54152910716613 4.849999879302156
    vertex -107.89336765592364 -200.3801461664509 -1.8499998774696016
    vertex -107.8933676559234 -208.5415289074906 -1.8500001206977355
  endloop
endfacet
facet normal -0.9999999999999873 -2.3370131576044277e-14 -1.5940034833739175e-07
  outer loop
    vertex -107.89336765592364 -200.3801461664509 -1.8499998774696016
    vertex -107.89336872390574 -208.54152910716613 4.849999879302156
    vertex -107.89336872390597 -200.3801463661265 4.850000122530336
  endloop
endfacet
facet normal 0.31434921973161933 0.03577192133847617 0.948633194495046
  outer loop
    vertex -107.0398927927507 -200.38014636612672 4.850000258574696
    vertex -106.47090883864705 -205.3801463661267 4.850000200259299
    vertex -106.42434906642885 -205.3801463656669 4.834571657204877
  endloop
endfacet
facet normal 0.9187572127208511 0.2728002511002905 -0.2854211048136264
  outer loop
    vertex -105.66644464755687 -200.38014623658873 0.50343548689117
    vertex -104.18182905855332 -205.3801462365889 0.5034355745277737
    vertex -105.95493929589202 -200.38014620891278 -0.4252152924979455
  endloop
endfacet
facet normal 0.8457602138211974 0.21859276463184085 -0.4867307920891501
  outer loop
    vertex -105.95493929589202 -200.38014620891278 -0.4252152924979455
    vertex -104.66265357113005 -205.38014620891295 -0.4252152355187888
    vertex -106.41386811537447 -200.3801461851471 -1.222665829032087
  endloop
endfacet
facet normal 0.7933532432544643 -1.8142505743980834e-08 0.6087615554694815
  outer loop
    vertex -105.3087970472714 -205.38014632366483 3.4252161095147766
    vertex -105.92070243651358 -208.54152908847033 4.222666381141076
    vertex -105.30879704727134 -208.5415290647045 3.4252160152981888
  endloop
endfacet
facet normal 0.7933532432544643 -1.8142505743980834e-08 0.6087615554694815
  outer loop
    vertex -105.92070243651358 -208.54152908847033 4.222666381141076
    vertex -105.3087970472714 -205.38014632366483 3.4252161095147766
    vertex -105.92070243651361 -205.3801463474305 4.222666475357618
  endloop
endfacet
facet normal -0.9238794715114054 1.1404842631868048e-08 -0.38268357963179733
  outer loop
    vertex -112.36259920906892 -205.3801462365889 0.503434270510139
    vertex -111.97793933255842 -208.5415289499525 -0.42521649579440635
    vertex -112.36259920906885 -208.54152897762862 0.5034341762935973
  endloop
endfacet
facet normal -0.9238794715114054 1.1404842631868048e-08 -0.38268357963179733
  outer loop
    vertex -111.97793933255842 -208.5415289499525 -0.42521649579440635
    vertex -112.36259920906892 -205.3801462365889 0.503434270510139
    vertex -111.97793933255846 -205.38014620891295 -0.4252164015778416
  endloop
endfacet
facet normal 0.9469233667965694 0.2811634356562774 -0.15583086942133206
  outer loop
    vertex -105.66644464755687 -200.38014623658873 0.50343548689117
    vertex -104.0178288798784 -205.38014626628885 1.5000005912810446
    vertex -104.18182905855332 -205.3801462365889 0.5034355745277737
  endloop
endfacet
facet normal 0.9238795935111359 1.1404862375466526e-08 -0.38268328509839367
  outer loop
    vertex -105.30879643351126 -205.380146208913 -0.4252153385141401
    vertex -104.92413685305527 -208.54152897762845 0.5034353619870185
    vertex -105.30879643351125 -208.54152894995264 -0.425215432730728
  endloop
endfacet
facet normal 0.9238795935111359 1.1404862375466526e-08 -0.38268328509839367
  outer loop
    vertex -104.92413685305527 -208.54152897762845 0.5034353619870185
    vertex -105.30879643351126 -205.380146208913 -0.4252153385141401
    vertex -104.9241368530553 -205.38014623658896 0.5034354562036296
  endloop
endfacet
facet normal 0.3826835796319254 2.7533753696691992e-08 -0.9238794715113521
  outer loop
    vertex -106.75539974771709 -208.5415289074906 -1.8499999393052782
    vertex -106.71815193436862 -205.38014616691072 -1.834571288675056
    vertex -106.71815193436859 -208.54152890795052 -1.834571382891597
  endloop
endfacet
facet normal 0.3826835796319254 2.7533753696691992e-08 -0.9238794715113521
  outer loop
    vertex -106.71815193436862 -205.38014616691072 -1.834571288675056
    vertex -106.75539974771709 -208.5415289074906 -1.8499999393052782
    vertex -106.75539974771709 -205.38014616645108 -1.8499998450887372
  endloop
endfacet
facet normal -0.6087615554695508 -2.364378469254612e-08 0.7933532432544108
  outer loop
    vertex -110.56858444546087 -205.3801463656669 4.834570996612314
    vertex -111.366034811304 -208.54152908847018 4.222665513153153
    vertex -110.56858444546083 -208.54152910670638 4.834570902395773
  endloop
endfacet
facet normal -0.6087615554695508 -2.364378469254612e-08 0.7933532432544108
  outer loop
    vertex -111.366034811304 -208.54152908847018 4.222665513153153
    vertex -110.56858444546087 -205.3801463656669 4.834570996612314
    vertex -111.36603481130408 -205.38014634743067 4.22266560736974
  endloop
endfacet
facet normal 0.9238794715113872 -1.1404848910666893e-08 0.3826835796318412
  outer loop
    vertex -104.92413717076084 -208.5415290370283 2.4965653432102086
    vertex -105.3087970472714 -205.38014632366483 3.4252161095147766
    vertex -105.30879704727134 -208.5415290647045 3.4252160152981888
  endloop
endfacet
facet normal 0.9238794715113872 -1.1404848910666893e-08 0.3826835796318412
  outer loop
    vertex -105.3087970472714 -205.38014632366483 3.4252161095147766
    vertex -104.92413717076084 -208.5415290370283 2.4965653432102086
    vertex -104.92413717076091 -205.38014629598888 2.496565437426773
  endloop
endfacet
facet normal -0.9914448405678791 3.8899581428152146e-09 -0.1305263502566936
  outer loop
    vertex -112.49379963794381 -208.54152900732836 1.4999991459917652
    vertex -112.36259920906892 -205.3801462365889 0.503434270510139
    vertex -112.36259920906885 -208.54152897762862 0.5034341762935973
  endloop
endfacet
facet normal -0.9914448405678791 3.8899581428152146e-09 -0.1305263502566936
  outer loop
    vertex -112.36259920906892 -205.3801462365889 0.503434270510139
    vertex -112.49379963794381 -208.54152900732836 1.4999991459917652
    vertex -112.4937996379439 -205.3801462662887 1.499999240208353
  endloop
endfacet
facet normal 0.3826832850987016 -2.753376363380199e-08 0.9238795935110078
  outer loop
    vertex -106.7554008156991 -205.3801463661267 4.850000154911178
    vertex -106.7181529974327 -208.54152910670652 4.834571516155841
    vertex -106.71815299743267 -205.3801463656667 4.834571610372428
  endloop
endfacet
facet normal 0.3826832850987016 -2.753376363380199e-08 0.9238795935110078
  outer loop
    vertex -106.7181529974327 -208.54152910670652 4.834571516155841
    vertex -106.7554008156991 -205.3801463661267 4.850000154911178
    vertex -106.7554008156991 -208.54152910716613 4.850000060694637
  endloop
endfacet
facet normal -0.7933532432544385 1.814249853881608e-08 -0.608761555469515
  outer loop
    vertex -111.97793933255846 -205.38014620891295 -0.4252164015778416
    vertex -111.36603394331615 -208.54152892618663 -1.2226668616372245
    vertex -111.97793933255842 -208.5415289499525 -0.42521649579440635
  endloop
endfacet
facet normal -0.7933532432544385 1.814249853881608e-08 -0.608761555469515
  outer loop
    vertex -111.36603394331615 -208.54152892618663 -1.2226668616372245
    vertex -111.97793933255846 -205.38014620891295 -0.4252164015778416
    vertex -111.36603394331621 -205.3801461851471 -1.2226667674206828
  endloop
endfacet
facet normal -0.5203916474734728 0.10265595263834963 -0.8477347985235464
  outer loop
    vertex -111.85920049016501 -205.3801461851471 -1.2226668460316026
    vertex -110.87286739646724 -200.38014618514703 -1.2226665397981256
    vertex -110.86238731340111 -205.38014616691075 -1.8345719492676662
  endloop
endfacet
facet normal 0.9914448821797172 3.88999340913239e-09 -0.1305260341834026
  outer loop
    vertex -104.92413685305527 -208.54152897762845 0.5034353619870185
    vertex -104.79293674188594 -205.3801462662889 1.5000004677285812
    vertex -104.79293674188587 -208.5415290073286 1.5000003735120164
  endloop
endfacet
facet normal 0.9914448821797172 3.88999340913239e-09 -0.1305260341834026
  outer loop
    vertex -104.79293674188594 -205.3801462662889 1.5000004677285812
    vertex -104.92413685305527 -208.54152897762845 0.5034353619870185
    vertex -104.9241368530553 -205.38014623658896 0.5034354562036296
  endloop
endfacet
facet normal -0.4826752290772339 0.056724709462445386 0.8739604857038108
  outer loop
    vertex -110.8623883764644 -205.38014636566672 4.834570949779865
    vertex -110.24684465506121 -200.3801463661267 4.849999747385453
    vertex -110.2747805144572 -200.38014636566692 4.834571192456378
  endloop
endfacet
facet normal -0.9435606094580679 0.2925444863669461 0.15527749281663208
  outer loop
    vertex -111.7186917759365 -200.38014626628888 1.499999512772478
    vertex -113.26890749995113 -205.38014626628888 1.4999991166558897
    vertex -113.10490732127624 -205.38014629598862 2.4965641334091844
  endloop
endfacet
facet normal -0.382683285099051 2.7533753660135555e-08 -0.9238795935108631
  outer loop
    vertex -110.56858338239745 -208.5415289079504 -1.8345719966517111
    vertex -110.53133556413044 -205.3801461664509 -1.8500004469742213
    vertex -110.53133556413042 -208.54152890749066 -1.8500005411907852
  endloop
endfacet
facet normal -0.382683285099051 2.7533753660135555e-08 -0.9238795935108631
  outer loop
    vertex -110.53133556413044 -205.3801461664509 -1.8500004469742213
    vertex -110.56858338239745 -208.5415289079504 -1.8345719966517111
    vertex -110.56858338239752 -205.3801461669109 -1.83457190243517
  endloop
endfacet
facet normal -0.6087613025478898 2.3643761855107937e-08 -0.7933534373280271
  outer loop
    vertex -111.36603394331615 -208.54152892618663 -1.2226668616372245
    vertex -110.56858338239752 -205.3801461669109 -1.83457190243517
    vertex -110.56858338239745 -208.5415289079504 -1.8345719966517111
  endloop
endfacet
facet normal -0.6087613025478898 2.3643761855107937e-08 -0.7933534373280271
  outer loop
    vertex -110.56858338239752 -205.3801461669109 -1.83457190243517
    vertex -111.36603394331615 -208.54152892618663 -1.2226668616372245
    vertex -111.36603394331621 -205.3801461851471 -1.2226667674206828
  endloop
endfacet
facet normal 0.7081231894745681 0.13968906837523748 0.6921333055884706
  outer loop
    vertex -107.01195692843608 -200.3801463656667 4.834571712551595
    vertex -105.42753588966451 -205.3801463474306 4.222666553968537
    vertex -106.41386898336233 -200.3801463474307 4.222666545758337
  endloop
endfacet
facet normal -0.9543684688211299 0.2833740540246459 0.0942335992395993
  outer loop
    vertex -111.7186917759365 -200.38014626628888 1.499999512772478
    vertex -113.10490732127624 -205.38014629598862 2.4965641334091844
    vertex -111.6202917322727 -200.38014629598885 2.4965645190690875
  endloop
endfacet
facet normal -0.9914448821797199 -3.89001282851202e-09 0.13052603418338218
  outer loop
    vertex -112.36259952677453 -205.38014629598882 2.496564251733305
    vertex -112.49379963794381 -208.54152900732836 1.4999991459917652
    vertex -112.36259952677445 -208.54152903702854 2.496564157516764
  endloop
endfacet
facet normal -0.9914448821797199 -3.89001282851202e-09 0.13052603418338218
  outer loop
    vertex -112.49379963794381 -208.54152900732836 1.4999991459917652
    vertex -112.36259952677453 -205.38014629598882 2.496564251733305
    vertex -112.4937996379439 -205.3801462662887 1.499999240208353
  endloop
endfacet
facet normal -1.1404319649980463e-15 -0.9999999999999997 -2.9802327716766e-08
  outer loop
    vertex -110.8623883764644 -205.38014636566672 4.834570949779865
    vertex -110.5313366321131 -205.3801463661265 4.849999553025694
    vertex -110.81582860916483 -205.3801463661266 4.849999507677573
  endloop
endfacet
facet normal -1.1404319649980463e-15 -0.9999999999999997 -2.9802327716766e-08
  outer loop
    vertex -110.5313366321131 -205.3801463661265 4.849999553025694
    vertex -110.8623883764644 -205.38014636566672 4.834570949779865
    vertex -110.56858444546087 -205.3801463656669 4.834570996612314
  endloop
endfacet
facet normal -1.1404319649980463e-15 -0.9999999999999997 -2.9802327716766e-08
  outer loop
    vertex -110.56858444546087 -205.3801463656669 4.834570996612314
    vertex -110.8623883764644 -205.38014636566672 4.834570949779865
    vertex -111.85920135815287 -205.3801463474307 4.222665528758821
  endloop
endfacet
facet normal -1.1404319649980463e-15 -0.9999999999999997 -2.9802327716766e-08
  outer loop
    vertex -110.56858444546087 -205.3801463656669 4.834570996612314
    vertex -111.85920135815287 -205.3801463474307 4.222665528758821
    vertex -111.36603481130408 -205.38014634743067 4.22266560736974
  endloop
endfacet
facet normal -1.1404319649980463e-15 -0.9999999999999997 -2.9802327716766e-08
  outer loop
    vertex -111.36603481130408 -205.38014634743067 4.22266560736974
    vertex -111.85920135815287 -205.3801463474307 4.222665528758821
    vertex -112.62408280869947 -205.3801463236647 3.4252149434556776
  endloop
endfacet
facet normal -1.1404319649980463e-15 -0.9999999999999997 -2.9802327716766e-08
  outer loop
    vertex -111.36603481130408 -205.38014634743067 4.22266560736974
    vertex -112.62408280869947 -205.3801463236647 3.4252149434556776
    vertex -111.97793994631857 -205.38014632366475 3.425215046451075
  endloop
endfacet
facet normal -1.1404319649980463e-15 -0.9999999999999997 -2.9802327716766e-08
  outer loop
    vertex -111.97793994631857 -205.38014632366475 3.425215046451075
    vertex -112.62408280869947 -205.3801463236647 3.4252149434556776
    vertex -113.10490732127624 -205.38014629598862 2.4965641334091844
  endloop
endfacet
facet normal -1.1404319649980463e-15 -0.9999999999999997 -2.9802327716766e-08
  outer loop
    vertex -111.97793994631857 -205.38014632366475 3.425215046451075
    vertex -113.10490732127624 -205.38014629598862 2.4965641334091844
    vertex -112.36259952677453 -205.38014629598882 2.496564251733305
  endloop
endfacet
facet normal -1.1404319649980463e-15 -0.9999999999999997 -2.9802327716766e-08
  outer loop
    vertex -112.36259952677453 -205.38014629598882 2.496564251733305
    vertex -113.10490732127624 -205.38014629598862 2.4965641334091844
    vertex -113.26890749995113 -205.38014626628888 1.4999991166558897
  endloop
endfacet
facet normal -1.1404319649980463e-15 -0.9999999999999997 -2.9802327716766e-08
  outer loop
    vertex -112.36259952677453 -205.38014629598882 2.496564251733305
    vertex -113.26890749995113 -205.38014626628888 1.4999991166558897
    vertex -112.4937996379439 -205.3801462662887 1.499999240208353
  endloop
endfacet
facet normal -1.1404319649980463e-15 -0.9999999999999997 -2.9802327716766e-08
  outer loop
    vertex -112.4937996379439 -205.3801462662887 1.499999240208353
    vertex -113.26890749995113 -205.38014626628888 1.4999991166558897
    vertex -113.10490700357063 -205.38014623658873 0.5034341521860413
  endloop
endfacet
facet normal -1.1404319649980463e-15 -0.9999999999999997 -2.9802327716766e-08
  outer loop
    vertex -112.4937996379439 -205.3801462662887 1.499999240208353
    vertex -113.10490700357063 -205.38014623658873 0.5034341521860413
    vertex -112.36259920906892 -205.3801462365889 0.503434270510139
  endloop
endfacet
facet normal -1.1404319649980463e-15 -0.9999999999999997 -2.9802327716766e-08
  outer loop
    vertex -112.36259920906892 -205.3801462365889 0.503434270510139
    vertex -113.10490700357063 -205.38014623658873 0.5034341521860413
    vertex -112.62408219493936 -205.38014620891286 -0.4252165045732845
  endloop
endfacet
facet normal -1.1404319649980463e-15 -0.9999999999999997 -2.9802327716766e-08
  outer loop
    vertex -112.36259920906892 -205.3801462365889 0.503434270510139
    vertex -112.62408219493936 -205.38014620891286 -0.4252165045732845
    vertex -111.97793933255846 -205.38014620891295 -0.4252164015778416
  endloop
endfacet
facet normal -1.1404319649980463e-15 -0.9999999999999997 -2.9802327716766e-08
  outer loop
    vertex -111.97793933255846 -205.38014620891295 -0.4252164015778416
    vertex -112.62408219493936 -205.38014620891286 -0.4252165045732845
    vertex -111.36603394331621 -205.3801461851471 -1.2226667674206828
  endloop
endfacet
facet normal -1.1404319649980463e-15 -0.9999999999999997 -2.9802327716766e-08
  outer loop
    vertex -111.36603394331621 -205.3801461851471 -1.2226667674206828
    vertex -112.62408219493936 -205.38014620891286 -0.4252165045732845
    vertex -111.85920049016501 -205.3801461851471 -1.2226668460316026
  endloop
endfacet
facet normal -1.1404319649980463e-15 -0.9999999999999997 -2.9802327716766e-08
  outer loop
    vertex -111.36603394331621 -205.3801461851471 -1.2226667674206828
    vertex -111.85920049016501 -205.3801461851471 -1.2226668460316026
    vertex -110.86238731340111 -205.38014616691075 -1.8345719492676662
  endloop
endfacet
facet normal -1.1404319649980463e-15 -0.9999999999999997 -2.9802327716766e-08
  outer loop
    vertex -111.36603394331621 -205.3801461851471 -1.2226667674206828
    vertex -110.86238731340111 -205.38014616691075 -1.8345719492676662
    vertex -110.56858338239752 -205.3801461669109 -1.83457190243517
  endloop
endfacet
facet normal -1.1404319649980463e-15 -0.9999999999999997 -2.9802327716766e-08
  outer loop
    vertex -110.56858338239752 -205.3801461669109 -1.83457190243517
    vertex -110.86238731340111 -205.38014616691075 -1.8345719492676662
    vertex -110.53133556413044 -205.3801461664509 -1.8500004469742213
  endloop
endfacet
facet normal -1.1404319649980463e-15 -0.9999999999999997 -2.9802327716766e-08
  outer loop
    vertex -110.53133556413044 -205.3801461664509 -1.8500004469742213
    vertex -110.86238731340111 -205.38014616691075 -1.8345719492676662
    vertex -110.81582754118207 -205.38014616645103 -1.8500004923223647
  endloop
endfacet
facet normal -0.8457600586510862 0.21859276463187122 -0.48673106171797464
  outer loop
    vertex -110.87286739646724 -200.38014618514703 -1.2226665397981256
    vertex -112.62408219493936 -205.38014620891286 -0.4252165045732845
    vertex -111.33179647017741 -200.38014620891298 -0.4252161495708519
  endloop
endfacet
facet normal -0.31434952215646256 0.035771921338469403 0.9486330942802691
  outer loop
    vertex -110.8623883764644 -205.38014636566672 4.834570949779865
    vertex -110.81582860916483 -205.3801463661266 4.849999507677573
    vertex -110.24684465506121 -200.3801463661267 4.849999747385453
  endloop
endfacet
facet normal -0.9187571217283448 0.2728002511003131 -0.2854213977140702
  outer loop
    vertex -111.33179647017741 -200.38014620891298 -0.4252161495708519
    vertex -113.10490700357063 -205.38014623658873 0.5034341521860413
    vertex -111.62029141456709 -200.38014623658893 0.5034345378459214
  endloop
endfacet
facet normal -0.92715494941031 0.23962980070280257 0.28802996094000444
  outer loop
    vertex -111.6202917322727 -200.38014629598885 2.4965645190690875
    vertex -112.62408280869947 -205.3801463236647 3.4252149434556776
    vertex -111.33179708393752 -200.38014632366477 3.4252152984581112
  endloop
endfacet
facet normal -0.52216980714191 0.06136617551024743 0.8506308747116027
  outer loop
    vertex -111.85920135815287 -205.3801463474307 4.222665528758821
    vertex -110.8623883764644 -205.38014636566672 4.834570949779865
    vertex -110.2747805144572 -200.38014636566692 4.834571192456378
  endloop
endfacet
facet normal -0.7144862001316072 0.14094431880875127 -0.6853058943399174
  outer loop
    vertex -110.87286739646724 -200.38014618514703 -1.2226665397981256
    vertex -111.85920049016501 -205.3801461851471 -1.2226668460316026
    vertex -112.62408219493936 -205.38014620891286 -0.4252165045732845
  endloop
endfacet
facet normal -0.4827234023613734 0.054932415946027935 -0.8740483662195087
  outer loop
    vertex -110.81582754118207 -205.38014616645103 -1.8500004923223647
    vertex -110.27477945139375 -200.38014616691092 -1.834571706591129
    vertex -110.24684358707862 -200.38014616645108 -1.8500002526144848
  endloop
endfacet
facet normal -0.7094545320543574 0.18336354451394446 0.6804792998253625
  outer loop
    vertex -111.33179708393752 -200.38014632366477 3.4252152984581112
    vertex -112.62408280869947 -205.3801463236647 3.4252149434556776
    vertex -111.85920135815287 -205.3801463474307 4.222665528758821
  endloop
endfacet
facet normal -0.7126224650872552 0.08374854643201321 -0.6965309779352881
  outer loop
    vertex -110.87286739646724 -200.38014618514703 -1.2226665397981256
    vertex -110.27477945139375 -200.38014616691092 -1.834571706591129
    vertex -110.86238731340111 -205.38014616691075 -1.8345719492676662
  endloop
endfacet
facet normal -0.3826835796316418 -2.7533755750411676e-08 0.9238794715114697
  outer loop
    vertex -110.5313366321131 -205.3801463661265 4.849999553025694
    vertex -110.56858444546083 -208.54152910670638 4.834570902395773
    vertex -110.53133663211307 -208.54152910716624 4.849999458809152
  endloop
endfacet
facet normal -0.3826835796316418 -2.7533755750411676e-08 0.9238794715114697
  outer loop
    vertex -110.56858444546083 -208.54152910670638 4.834570902395773
    vertex -110.5313366321131 -205.3801463661265 4.849999553025694
    vertex -110.56858444546087 -205.3801463656669 4.834570996612314
  endloop
endfacet
facet normal -0.7081234101270882 0.13968906837522457 0.6921330798382965
  outer loop
    vertex -110.87286826445512 -200.3801463474306 4.2226658349922985
    vertex -111.85920135815287 -205.3801463474307 4.222665528758821
    vertex -110.2747805144572 -200.38014636566692 4.834571192456378
  endloop
endfacet
facet normal -0.9469233171175353 0.28116343565630547 -0.1558311713010795
  outer loop
    vertex -111.62029141456709 -200.38014623658893 0.5034345378459214
    vertex -113.10490700357063 -205.38014623658873 0.5034341521860413
    vertex -113.26890749995113 -205.38014626628888 1.4999991166558897
  endloop
endfacet
facet normal -0.8543237847953821 0.168529534222863 0.4916590961504918
  outer loop
    vertex -110.87286826445512 -200.3801463474306 4.2226658349922985
    vertex -111.33179708393752 -200.38014632366477 3.4252152984581112
    vertex -111.85920135815287 -205.3801463474307 4.222665528758821
  endloop
endfacet
facet normal -0.9509260271944632 0.2948281033849163 -0.0938939841449304
  outer loop
    vertex -111.62029141456709 -200.38014623658893 0.5034345378459214
    vertex -113.26890749995113 -205.38014626628888 1.4999991166558897
    vertex -111.7186917759365 -200.38014626628888 1.499999512772478
  endloop
endfacet
facet normal -0.31433583866375275 0.03694128806214367 -0.9485928113621065
  outer loop
    vertex -110.86238731340111 -205.38014616691075 -1.8345719492676662
    vertex -110.27477945139375 -200.38014616691092 -1.834571706591129
    vertex -110.81582754118207 -205.38014616645103 -1.8500004923223647
  endloop
endfacet
facet normal 0.9999999999999873 -1.3338506241077051e-14 1.5940034833739043e-07
  outer loop
    vertex -109.39336765592361 -200.3801461664511 -1.8500001165701248
    vertex -109.39336872390604 -208.54152910716624 4.849999640201633
    vertex -109.39336765592368 -208.54152890749066 -1.8500003597983048
  endloop
endfacet
facet normal 0.9999999999999873 -1.3338506241077051e-14 1.5940034833739043e-07
  outer loop
    vertex -109.39336872390604 -208.54152910716624 4.849999640201633
    vertex -109.39336765592361 -200.3801461664511 -1.8500001165701248
    vertex -109.39336872390597 -200.3801463661267 4.849999883429813
  endloop
endfacet
facet normal 9.38899900976853e-15 0.9999999999999997 2.980232686963294e-08
  outer loop
    vertex -109.39336765592361 -200.3801461664511 -1.8500001165701248
    vertex -110.24684465506121 -200.3801463661267 4.849999747385453
    vertex -109.39336872390597 -200.3801463661267 4.849999883429813
  endloop
endfacet
facet normal 9.38899900976853e-15 0.9999999999999997 2.980232686963294e-08
  outer loop
    vertex -110.24684465506121 -200.3801463661267 4.849999747385453
    vertex -109.39336765592361 -200.3801461664511 -1.8500001165701248
    vertex -110.2747805144572 -200.38014636566692 4.834571192456378
  endloop
endfacet
facet normal 9.38899900976853e-15 0.9999999999999997 2.980232686963294e-08
  outer loop
    vertex -110.2747805144572 -200.38014636566692 4.834571192456378
    vertex -109.39336765592361 -200.3801461664511 -1.8500001165701248
    vertex -110.87286826445512 -200.3801463474306 4.2226658349922985
  endloop
endfacet
facet normal 9.38899900976853e-15 0.9999999999999997 2.980232686963294e-08
  outer loop
    vertex -110.87286826445512 -200.3801463474306 4.2226658349922985
    vertex -109.39336765592361 -200.3801461664511 -1.8500001165701248
    vertex -111.33179708393752 -200.38014632366477 3.4252152984581112
  endloop
endfacet
facet normal 9.38899900976853e-15 0.9999999999999997 2.980232686963294e-08
  outer loop
    vertex -111.33179708393752 -200.38014632366477 3.4252152984581112
    vertex -109.39336765592361 -200.3801461664511 -1.8500001165701248
    vertex -111.6202917322727 -200.38014629598885 2.4965645190690875
  endloop
endfacet
facet normal 9.38899900976853e-15 0.9999999999999997 2.980232686963294e-08
  outer loop
    vertex -111.6202917322727 -200.38014629598885 2.4965645190690875
    vertex -109.39336765592361 -200.3801461664511 -1.8500001165701248
    vertex -111.7186917759365 -200.38014626628888 1.499999512772478
  endloop
endfacet
facet normal 9.38899900976853e-15 0.9999999999999997 2.980232686963294e-08
  outer loop
    vertex -111.7186917759365 -200.38014626628888 1.499999512772478
    vertex -109.39336765592361 -200.3801461664511 -1.8500001165701248
    vertex -111.62029141456709 -200.38014623658893 0.5034345378459214
  endloop
endfacet
facet normal 9.38899900976853e-15 0.9999999999999997 2.980232686963294e-08
  outer loop
    vertex -111.62029141456709 -200.38014623658893 0.5034345378459214
    vertex -109.39336765592361 -200.3801461664511 -1.8500001165701248
    vertex -111.33179647017741 -200.38014620891298 -0.4252161495708519
  endloop
endfacet
facet normal 9.38899900976853e-15 0.9999999999999997 2.980232686963294e-08
  outer loop
    vertex -111.33179647017741 -200.38014620891298 -0.4252161495708519
    vertex -109.39336765592361 -200.3801461664511 -1.8500001165701248
    vertex -110.87286739646724 -200.38014618514703 -1.2226665397981256
  endloop
endfacet
facet normal 9.38899900976853e-15 0.9999999999999997 2.980232686963294e-08
  outer loop
    vertex -110.87286739646724 -200.38014618514703 -1.2226665397981256
    vertex -109.39336765592361 -200.3801461664511 -1.8500001165701248
    vertex -110.27477945139375 -200.38014616691092 -1.834571706591129
  endloop
endfacet
facet normal 9.38899900976853e-15 0.9999999999999997 2.980232686963294e-08
  outer loop
    vertex -110.27477945139375 -200.38014616691092 -1.834571706591129
    vertex -109.39336765592361 -200.3801461664511 -1.8500001165701248
    vertex -110.24684358707862 -200.38014616645108 -1.8500002526144848
  endloop
endfacet
facet normal -0.8586789327033605 0.2549615915955527 0.44459540859356667
  outer loop
    vertex -111.6202917322727 -200.38014629598885 2.4965645190690875
    vertex -113.10490732127624 -205.38014629598862 2.4965641334091844
    vertex -112.62408280869947 -205.3801463236647 3.4252149434556776
  endloop
endfacet
facet normal -0.8655225945336742 0.2237005304930607 -0.44813916477900073
  outer loop
    vertex -111.33179647017741 -200.38014620891298 -0.4252161495708519
    vertex -112.62408219493936 -205.38014620891286 -0.4252165045732845
    vertex -113.10490700357063 -205.38014623658873 0.5034341521860413
  endloop
endfacet
endsolid Framework
